<svg width="24" height="24" viewBox="0 0 24 24" fill="none" xmlns="http://www.w3.org/2000/svg">
<path d="M16.7069 7.72824L10.2028 14.2291L7.29277 11.3191C6.91777 10.9441 6.30566 10.9441 5.93066 11.3191C5.55566 11.6941 5.55566 12.3062 5.93066 12.6812L9.52161 16.2722C9.71057 16.4611 9.95667 16.5543 10.2026 16.5543C10.4487 16.5543 10.6945 16.4614 10.8835 16.2722L18.0685 9.08986C18.4435 8.71486 18.4435 8.10276 18.0685 7.72776C17.6904 7.34983 17.0814 7.34983 16.7064 7.72797L16.7069 7.72824Z" fill="#333533"/>
<path d="M12 0C5.38179 0 0 5.38179 0 12C0 18.6182 5.38179 24 12 24C18.6182 24 24 18.6182 24 12C24 5.38179 18.6182 0 12 0ZM12 22.0741C6.44679 22.0741 1.92589 17.5561 1.92589 12C1.92589 6.44389 6.44684 1.92589 12 1.92589C17.5532 1.92589 22.0741 6.44389 22.0741 12C22.0741 17.5561 17.5532 22.0741 12 22.0741Z" fill="#333533"/>
</svg>
