<svg width="36" height="36" viewBox="0 0 36 36" fill="none" xmlns="http://www.w3.org/2000/svg">
<path fill-rule="evenodd" clip-rule="evenodd" d="M18 0C8.06537 0 0 8.06537 0 18C0 27.9346 8.06537 36 18 36C27.9346 36 36 27.9346 36 18C36 8.06537 27.9346 0 18 0ZM18 2.4C26.6098 2.4 33.6 9.39017 33.6 18C33.6 26.6098 26.6098 33.6 18 33.6C9.39017 33.6 2.4 26.6098 2.4 18C2.4 9.39017 9.39017 2.4 18 2.4ZM16.3031 18L10.3631 23.94C9.89519 24.4079 9.89519 25.1689 10.3631 25.6369C10.8311 26.1048 11.5921 26.1048 12.06 25.6369L18 19.6969L23.94 25.6369C24.4079 26.1048 25.1689 26.1048 25.6369 25.6369C26.1048 25.1689 26.1048 24.4079 25.6369 23.94L19.6969 18L25.6369 12.06C26.1048 11.5921 26.1048 10.8311 25.6369 10.3631C25.1689 9.89519 24.4079 9.89519 23.94 10.3631L18 16.3031L12.06 10.3631C11.5921 9.89519 10.8311 9.89519 10.3631 10.3631C9.89519 10.8311 9.89519 11.5921 10.3631 12.06L16.3031 18Z" fill="#D6D6D6"/>
</svg>
