<svg width="193" height="43" viewBox="0 0 193 43" fill="none" xmlns="http://www.w3.org/2000/svg">
<rect x="1" y="1" width="191" height="41" rx="20.5" stroke="url(#paint0_linear_12_410)" stroke-width="2"/>
<path d="M32.7055 28.2C31.2388 28.2 29.9788 27.9067 28.9255 27.32C27.8855 26.72 27.0855 25.88 26.5255 24.8C25.9655 23.7067 25.6855 22.42 25.6855 20.94C25.6855 19.46 25.9655 18.18 26.5255 17.1C27.0855 16.02 27.8855 15.1867 28.9255 14.6C29.9788 14 31.2388 13.7 32.7055 13.7C33.4388 13.7 34.1588 13.7933 34.8655 13.98C35.5721 14.1667 36.1921 14.4333 36.7255 14.78C37.0721 15.0067 37.2788 15.28 37.3455 15.6C37.4121 15.9067 37.3721 16.1933 37.2255 16.46C37.0788 16.7133 36.8588 16.8867 36.5655 16.98C36.2721 17.06 35.9455 16.98 35.5855 16.74C35.1721 16.4733 34.7255 16.28 34.2455 16.16C33.7655 16.04 33.2788 15.98 32.7855 15.98C31.3588 15.98 30.2721 16.4133 29.5255 17.28C28.7788 18.1333 28.4055 19.3533 28.4055 20.94C28.4055 22.5267 28.7788 23.7533 29.5255 24.62C30.2721 25.4867 31.3588 25.92 32.7855 25.92C33.2921 25.92 33.7921 25.86 34.2855 25.74C34.7788 25.6067 35.2455 25.4067 35.6855 25.14C36.0455 24.9133 36.3655 24.84 36.6455 24.92C36.9255 25 37.1321 25.1667 37.2655 25.42C37.4121 25.66 37.4588 25.9267 37.4055 26.22C37.3521 26.5133 37.1721 26.7733 36.8655 27C36.3321 27.3867 35.6921 27.6867 34.9455 27.9C34.2121 28.1 33.4655 28.2 32.7055 28.2ZM43.2561 28.2C42.2428 28.2 41.3628 27.9933 40.6161 27.58C39.8694 27.1667 39.2894 26.58 38.8761 25.82C38.4628 25.0467 38.2561 24.14 38.2561 23.1C38.2561 22.06 38.4628 21.16 38.8761 20.4C39.2894 19.64 39.8694 19.0533 40.6161 18.64C41.3628 18.2267 42.2428 18.02 43.2561 18.02C44.2694 18.02 45.1494 18.2267 45.8961 18.64C46.6428 19.0533 47.2228 19.64 47.6361 20.4C48.0494 21.16 48.2561 22.06 48.2561 23.1C48.2561 24.14 48.0494 25.0467 47.6361 25.82C47.2228 26.58 46.6428 27.1667 45.8961 27.58C45.1494 27.9933 44.2694 28.2 43.2561 28.2ZM43.2561 26.3C44.0028 26.3 44.6028 26.0333 45.0561 25.5C45.5094 24.9533 45.7361 24.1533 45.7361 23.1C45.7361 22.0333 45.5094 21.24 45.0561 20.72C44.6028 20.1867 44.0028 19.92 43.2561 19.92C42.5094 19.92 41.9094 20.1867 41.4561 20.72C41.0028 21.24 40.7761 22.0333 40.7761 23.1C40.7761 24.1533 41.0028 24.9533 41.4561 25.5C41.9094 26.0333 42.5094 26.3 43.2561 26.3ZM51.5595 28.16C50.7329 28.16 50.3195 27.7333 50.3195 26.88V19.32C50.3195 18.48 50.7262 18.06 51.5395 18.06C52.3529 18.06 52.7595 18.48 52.7595 19.32V19.74C53.0929 19.18 53.5395 18.7533 54.0995 18.46C54.6729 18.1667 55.3129 18.02 56.0195 18.02C58.3262 18.02 59.4795 19.36 59.4795 22.04V26.88C59.4795 27.7333 59.0662 28.16 58.2395 28.16C57.3995 28.16 56.9795 27.7333 56.9795 26.88V22.16C56.9795 21.4 56.8329 20.8467 56.5395 20.5C56.2595 20.1533 55.8195 19.98 55.2195 19.98C54.4862 19.98 53.8995 20.2133 53.4595 20.68C53.0329 21.1333 52.8195 21.74 52.8195 22.5V26.88C52.8195 27.7333 52.3995 28.16 51.5595 28.16ZM63.2588 28.16C62.4321 28.16 62.0188 27.7333 62.0188 26.88V19.32C62.0188 18.48 62.4254 18.06 63.2388 18.06C64.0521 18.06 64.4588 18.48 64.4588 19.32V19.74C64.7921 19.18 65.2388 18.7533 65.7988 18.46C66.3721 18.1667 67.0121 18.02 67.7188 18.02C70.0254 18.02 71.1788 19.36 71.1788 22.04V26.88C71.1788 27.7333 70.7654 28.16 69.9388 28.16C69.0988 28.16 68.6788 27.7333 68.6788 26.88V22.16C68.6788 21.4 68.5321 20.8467 68.2388 20.5C67.9588 20.1533 67.5188 19.98 66.9188 19.98C66.1854 19.98 65.5988 20.2133 65.1588 20.68C64.7321 21.1333 64.5188 21.74 64.5188 22.5V26.88C64.5188 27.7333 64.0988 28.16 63.2588 28.16ZM78.538 28.2C77.4313 28.2 76.478 27.9933 75.678 27.58C74.878 27.1667 74.258 26.58 73.818 25.82C73.3913 25.06 73.178 24.16 73.178 23.12C73.178 22.1067 73.3846 21.22 73.798 20.46C74.2246 19.7 74.8046 19.1067 75.538 18.68C76.2846 18.24 77.1313 18.02 78.078 18.02C79.4646 18.02 80.558 18.46 81.358 19.34C82.1713 20.22 82.578 21.42 82.578 22.94C82.578 23.4333 82.258 23.68 81.618 23.68H75.578C75.7646 25.4267 76.7646 26.3 78.578 26.3C78.9246 26.3 79.3113 26.26 79.738 26.18C80.178 26.0867 80.5913 25.9333 80.978 25.72C81.3246 25.52 81.618 25.46 81.858 25.54C82.098 25.6067 82.2646 25.7467 82.358 25.96C82.4646 26.1733 82.478 26.4133 82.398 26.68C82.3313 26.9333 82.1446 27.1533 81.838 27.34C81.3713 27.6333 80.8313 27.8533 80.218 28C79.618 28.1333 79.058 28.2 78.538 28.2ZM78.178 19.72C77.4446 19.72 76.8513 19.9467 76.398 20.4C75.9446 20.8533 75.6713 21.4667 75.578 22.24H80.498C80.4446 21.4267 80.218 20.8067 79.818 20.38C79.4313 19.94 78.8846 19.72 78.178 19.72ZM89.0778 28.2C88.0511 28.2 87.1578 27.9933 86.3978 27.58C85.6378 27.1533 85.0511 26.5533 84.6378 25.78C84.2245 25.0067 84.0178 24.1 84.0178 23.06C84.0178 22.02 84.2245 21.1267 84.6378 20.38C85.0511 19.62 85.6378 19.04 86.3978 18.64C87.1578 18.2267 88.0511 18.02 89.0778 18.02C89.5178 18.02 89.9911 18.08 90.4978 18.2C91.0178 18.32 91.5045 18.52 91.9578 18.8C92.2245 18.96 92.3778 19.1667 92.4178 19.42C92.4711 19.6733 92.4378 19.9067 92.3178 20.12C92.2111 20.3333 92.0445 20.4867 91.8178 20.58C91.6045 20.6733 91.3578 20.64 91.0778 20.48C90.4645 20.1333 89.8711 19.96 89.2978 19.96C88.4311 19.96 87.7578 20.2333 87.2778 20.78C86.8111 21.3133 86.5778 22.08 86.5778 23.08C86.5778 24.0667 86.8111 24.8467 87.2778 25.42C87.7578 25.98 88.4311 26.26 89.2978 26.26C89.8711 26.26 90.4645 26.0933 91.0778 25.76C91.3578 25.6 91.6045 25.5667 91.8178 25.66C92.0311 25.7533 92.1845 25.9133 92.2778 26.14C92.3711 26.3533 92.3911 26.5867 92.3378 26.84C92.2845 27.08 92.1311 27.28 91.8778 27.44C91.4378 27.7067 90.9711 27.9 90.4778 28.02C89.9845 28.14 89.5178 28.2 89.0778 28.2ZM98.5105 28.2C95.9238 28.2 94.6305 26.92 94.6305 24.36V20.1H93.5905C92.9238 20.1 92.5905 19.7867 92.5905 19.16C92.5905 18.5333 92.9238 18.22 93.5905 18.22H94.6305V16.4C94.6305 15.56 95.0505 15.14 95.8905 15.14C96.7171 15.14 97.1305 15.56 97.1305 16.4V18.22H99.2505C99.9171 18.22 100.25 18.5333 100.25 19.16C100.25 19.7867 99.9171 20.1 99.2505 20.1H97.1305V24.22C97.1305 24.86 97.2705 25.34 97.5505 25.66C97.8305 25.98 98.2838 26.14 98.9105 26.14C99.1371 26.14 99.3371 26.12 99.5105 26.08C99.6838 26.04 99.8371 26.0133 99.9705 26C100.13 25.9867 100.264 26.04 100.37 26.16C100.477 26.2667 100.53 26.4933 100.53 26.84C100.53 27.1067 100.484 27.3467 100.39 27.56C100.31 27.76 100.157 27.9 99.9305 27.98C99.7571 28.0333 99.5305 28.08 99.2505 28.12C98.9705 28.1733 98.7238 28.2 98.5105 28.2ZM112.336 28.16C111.656 28.16 111.189 27.8 110.936 27.08L106.756 15.26C106.609 14.8333 106.636 14.4733 106.836 14.18C107.049 13.8867 107.403 13.74 107.896 13.74C108.256 13.74 108.536 13.8267 108.736 14C108.936 14.16 109.096 14.42 109.216 14.78L112.416 24.3L115.776 14.8C116.029 14.0933 116.456 13.74 117.056 13.74C117.376 13.74 117.629 13.8267 117.816 14C118.003 14.1733 118.163 14.4467 118.296 14.82L121.596 24.44L124.896 14.78C125.016 14.4333 125.176 14.1733 125.376 14C125.576 13.8267 125.849 13.74 126.196 13.74C126.623 13.74 126.936 13.8867 127.136 14.18C127.336 14.4733 127.363 14.8333 127.216 15.26L122.996 27.1C122.863 27.46 122.689 27.7267 122.476 27.9C122.263 28.0733 121.976 28.16 121.616 28.16C121.256 28.16 120.969 28.0733 120.756 27.9C120.543 27.7267 120.369 27.4533 120.236 27.08L116.976 17.82L113.696 27.1C113.563 27.46 113.389 27.7267 113.176 27.9C112.976 28.0733 112.696 28.16 112.336 28.16ZM131.43 28.2C130.723 28.2 130.09 28.0667 129.53 27.8C128.983 27.52 128.55 27.1467 128.23 26.68C127.923 26.2133 127.77 25.6867 127.77 25.1C127.77 24.38 127.957 23.8133 128.33 23.4C128.703 22.9733 129.31 22.6667 130.15 22.48C130.99 22.2933 132.117 22.2 133.53 22.2H134.23V21.78C134.23 21.1133 134.083 20.6333 133.79 20.34C133.497 20.0467 133.003 19.9 132.31 19.9C131.923 19.9 131.503 19.9467 131.05 20.04C130.61 20.1333 130.143 20.2933 129.65 20.52C129.33 20.6667 129.063 20.6867 128.85 20.58C128.637 20.46 128.49 20.28 128.41 20.04C128.343 19.7867 128.357 19.5333 128.45 19.28C128.557 19.0267 128.763 18.84 129.07 18.72C129.683 18.4667 130.27 18.2867 130.83 18.18C131.403 18.0733 131.923 18.02 132.39 18.02C133.817 18.02 134.877 18.3533 135.57 19.02C136.263 19.6733 136.61 20.6933 136.61 22.08V26.88C136.61 27.7333 136.223 28.16 135.45 28.16C134.663 28.16 134.27 27.7333 134.27 26.88V26.44C134.043 26.9867 133.683 27.42 133.19 27.74C132.697 28.0467 132.11 28.2 131.43 28.2ZM131.95 26.48C132.603 26.48 133.143 26.2533 133.57 25.8C134.01 25.3467 134.23 24.7733 134.23 24.08V23.64H133.55C132.297 23.64 131.423 23.74 130.93 23.94C130.45 24.1267 130.21 24.4733 130.21 24.98C130.21 25.42 130.363 25.78 130.67 26.06C130.977 26.34 131.403 26.48 131.95 26.48ZM142.488 28.2C140.261 28.2 139.148 26.9533 139.148 24.46V15C139.148 14.16 139.561 13.74 140.388 13.74C141.228 13.74 141.648 14.16 141.648 15V24.34C141.648 25.54 142.148 26.14 143.148 26.14C143.254 26.14 143.354 26.14 143.448 26.14C143.541 26.1267 143.634 26.1133 143.728 26.1C143.914 26.0733 144.041 26.1267 144.108 26.26C144.174 26.38 144.208 26.6333 144.208 27.02C144.208 27.3533 144.141 27.6133 144.008 27.8C143.874 27.9867 143.654 28.1 143.348 28.14C143.068 28.18 142.781 28.2 142.488 28.2ZM148.874 28.2C146.648 28.2 145.534 26.9533 145.534 24.46V15C145.534 14.16 145.948 13.74 146.774 13.74C147.614 13.74 148.034 14.16 148.034 15V24.34C148.034 25.54 148.534 26.14 149.534 26.14C149.641 26.14 149.741 26.14 149.834 26.14C149.928 26.1267 150.021 26.1133 150.114 26.1C150.301 26.0733 150.428 26.1267 150.494 26.26C150.561 26.38 150.594 26.6333 150.594 27.02C150.594 27.3533 150.528 27.6133 150.394 27.8C150.261 27.9867 150.041 28.1 149.734 28.14C149.454 28.18 149.168 28.2 148.874 28.2ZM156.643 28.2C155.537 28.2 154.583 27.9933 153.783 27.58C152.983 27.1667 152.363 26.58 151.923 25.82C151.497 25.06 151.283 24.16 151.283 23.12C151.283 22.1067 151.49 21.22 151.903 20.46C152.33 19.7 152.91 19.1067 153.643 18.68C154.39 18.24 155.237 18.02 156.183 18.02C157.57 18.02 158.663 18.46 159.463 19.34C160.277 20.22 160.683 21.42 160.683 22.94C160.683 23.4333 160.363 23.68 159.723 23.68H153.683C153.87 25.4267 154.87 26.3 156.683 26.3C157.03 26.3 157.417 26.26 157.843 26.18C158.283 26.0867 158.697 25.9333 159.083 25.72C159.43 25.52 159.723 25.46 159.963 25.54C160.203 25.6067 160.37 25.7467 160.463 25.96C160.57 26.1733 160.583 26.4133 160.503 26.68C160.437 26.9333 160.25 27.1533 159.943 27.34C159.477 27.6333 158.937 27.8533 158.323 28C157.723 28.1333 157.163 28.2 156.643 28.2ZM156.283 19.72C155.55 19.72 154.957 19.9467 154.503 20.4C154.05 20.8533 153.777 21.4667 153.683 22.24H158.603C158.55 21.4267 158.323 20.8067 157.923 20.38C157.537 19.94 156.99 19.72 156.283 19.72ZM167.104 28.2C164.518 28.2 163.224 26.92 163.224 24.36V20.1H162.184C161.518 20.1 161.184 19.7867 161.184 19.16C161.184 18.5333 161.518 18.22 162.184 18.22H163.224V16.4C163.224 15.56 163.644 15.14 164.484 15.14C165.311 15.14 165.724 15.56 165.724 16.4V18.22H167.844C168.511 18.22 168.844 18.5333 168.844 19.16C168.844 19.7867 168.511 20.1 167.844 20.1H165.724V24.22C165.724 24.86 165.864 25.34 166.144 25.66C166.424 25.98 166.878 26.14 167.504 26.14C167.731 26.14 167.931 26.12 168.104 26.08C168.278 26.04 168.431 26.0133 168.564 26C168.724 25.9867 168.858 26.04 168.964 26.16C169.071 26.2667 169.124 26.4933 169.124 26.84C169.124 27.1067 169.078 27.3467 168.984 27.56C168.904 27.76 168.751 27.9 168.524 27.98C168.351 28.0333 168.124 28.08 167.844 28.12C167.564 28.1733 167.318 28.2 167.104 28.2Z" fill="white"/>
<defs>
<linearGradient id="paint0_linear_12_410" x1="0" y1="43" x2="193" y2="43" gradientUnits="userSpaceOnUse">
<stop stop-color="#FFD100"/>
<stop offset="0.46875" stop-color="#FFEE32"/>
<stop offset="1" stop-color="#D6D6D6"/>
</linearGradient>
</defs>
</svg>
