<svg width="225" height="139" viewBox="0 0 225 139" fill="none" xmlns="http://www.w3.org/2000/svg">
<g filter="url(#filter0_d_3_7)">
<path d="M40.0483 46H29.1392L34.9347 11.0909H46.0483C49.4347 11.0909 52.2244 11.8011 54.4176 13.2216C56.6222 14.642 58.1563 16.6705 59.0199 19.3068C59.8949 21.9432 60.0256 25.0909 59.4119 28.75C58.821 32.3409 57.6733 35.4261 55.9688 38.0057C54.2756 40.5739 52.0824 42.5511 49.3892 43.9375C46.7074 45.3125 43.5938 46 40.0483 46ZM33.9972 42.25H40.1847C43.071 42.25 45.5597 41.6818 47.6506 40.5455C49.7528 39.4091 51.446 37.7898 52.7301 35.6875C54.0256 33.5852 54.9119 31.0909 55.3892 28.2045C55.8665 25.4318 55.821 23.0511 55.2528 21.0625C54.696 19.0625 53.5994 17.5284 51.9631 16.4602C50.3381 15.3807 48.1619 14.8409 45.4347 14.8409H38.5312L33.9972 42.25ZM63.6392 46L69.4347 11.0909H90.5028L89.8892 14.8409H73.0483L71.071 26.6364H86.821L86.2074 30.3864H70.4574L68.4801 42.25H85.5938L84.9801 46H63.6392ZM124.372 22H120.213C120.168 20.7841 119.918 19.7159 119.463 18.7955C119.009 17.875 118.395 17.1023 117.622 16.4773C116.861 15.8409 115.986 15.3636 114.997 15.0455C114.009 14.7273 112.952 14.5682 111.827 14.5682C109.668 14.5682 107.622 15.1193 105.69 16.2216C103.759 17.3125 102.105 18.9205 100.73 21.0455C99.3551 23.1591 98.4176 25.75 97.9176 28.8182C97.4176 31.7955 97.4915 34.3011 98.1392 36.3352C98.7869 38.3693 99.8608 39.9091 101.361 40.9545C102.861 42 104.645 42.5227 106.713 42.5227C107.906 42.5227 109.077 42.3636 110.224 42.0455C111.384 41.7273 112.463 41.2557 113.463 40.6307C114.474 39.9943 115.372 39.2159 116.156 38.2955C116.952 37.3636 117.577 36.2955 118.031 35.0909H122.259C121.634 36.875 120.787 38.4716 119.719 39.8807C118.662 41.2898 117.44 42.4886 116.054 43.4773C114.668 44.4545 113.173 45.1989 111.571 45.7102C109.969 46.2216 108.304 46.4773 106.577 46.4773C103.554 46.4773 100.98 45.7386 98.8551 44.2614C96.7415 42.7727 95.2301 40.6705 94.321 37.9545C93.4233 35.2273 93.2813 32 93.8949 28.2727C94.5085 24.6364 95.6847 21.5 97.4233 18.8636C99.1619 16.2159 101.293 14.1818 103.815 12.7614C106.338 11.3295 109.077 10.6136 112.031 10.6136C113.804 10.6136 115.435 10.8693 116.923 11.3807C118.412 11.892 119.707 12.642 120.81 13.6307C121.912 14.608 122.77 15.8011 123.384 17.2102C124.009 18.608 124.338 20.2045 124.372 22ZM159.567 28.8182C158.953 32.4545 157.777 35.5966 156.038 38.2443C154.3 40.8807 152.175 42.9148 149.663 44.3466C147.152 45.767 144.43 46.4773 141.499 46.4773C138.476 46.4773 135.902 45.7386 133.777 44.2614C131.663 42.7727 130.152 40.6705 129.243 37.9545C128.345 35.2273 128.203 32 128.817 28.2727C129.43 24.6364 130.607 21.5 132.345 18.8636C134.084 16.2159 136.214 14.1818 138.737 12.7614C141.26 11.3295 143.999 10.6136 146.953 10.6136C149.953 10.6136 152.504 11.358 154.607 12.8466C156.72 14.3239 158.226 16.4261 159.124 19.1534C160.033 21.8693 160.18 25.0909 159.567 28.8182ZM155.544 28.2727C156.044 25.2955 155.97 22.7898 155.322 20.7557C154.675 18.7216 153.601 17.1818 152.101 16.1364C150.601 15.0909 148.817 14.5682 146.749 14.5682C144.589 14.5682 142.544 15.1193 140.612 16.2216C138.68 17.3125 137.027 18.9205 135.652 21.0455C134.277 23.1591 133.339 25.75 132.839 28.8182C132.339 31.7955 132.413 34.3011 133.061 36.3352C133.709 38.3693 134.783 39.9091 136.283 40.9545C137.783 42 139.567 42.5227 141.635 42.5227C143.794 42.5227 145.839 41.9773 147.771 40.8864C149.703 39.7841 151.357 38.1761 152.732 36.0625C154.107 33.9375 155.044 31.3409 155.544 28.2727ZM197.288 11.0909L191.493 46H187.402L172.947 18.5909H172.607L168.038 46H163.811L169.607 11.0909H173.697L188.22 38.5682H188.561L193.129 11.0909H197.288ZM48.0597 80H43.9006C43.8551 78.7841 43.6051 77.7159 43.1506 76.7955C42.696 75.875 42.0824 75.1023 41.3097 74.4773C40.5483 73.8409 39.6733 73.3636 38.6847 73.0455C37.696 72.7273 36.6392 72.5682 35.5142 72.5682C33.3551 72.5682 31.3097 73.1193 29.3778 74.2216C27.446 75.3125 25.7926 76.9205 24.4176 79.0455C23.0426 81.1591 22.1051 83.75 21.6051 86.8182C21.1051 89.7955 21.179 92.3011 21.8267 94.3352C22.4744 96.3693 23.5483 97.9091 25.0483 98.9545C26.5483 100 28.3324 100.523 30.4006 100.523C31.5938 100.523 32.7642 100.364 33.9119 100.045C35.071 99.7273 36.1506 99.2557 37.1506 98.6307C38.1619 97.9943 39.0597 97.2159 39.8438 96.2955C40.6392 95.3636 41.2642 94.2955 41.7188 93.0909H45.946C45.321 94.875 44.4744 96.4716 43.4062 97.8807C42.3494 99.2898 41.1278 100.489 39.7415 101.477C38.3551 102.455 36.8608 103.199 35.2585 103.71C33.6562 104.222 31.9915 104.477 30.2642 104.477C27.2415 104.477 24.6676 103.739 22.5426 102.261C20.429 100.773 18.9176 98.6705 18.0085 95.9545C17.1108 93.2273 16.9688 90 17.5824 86.2727C18.196 82.6364 19.3722 79.5 21.1108 76.8636C22.8494 74.2159 24.9801 72.1818 27.5028 70.7614C30.0256 69.3295 32.7642 68.6136 35.7188 68.6136C37.4915 68.6136 39.1222 68.8693 40.6108 69.3807C42.0994 69.892 43.3949 70.642 44.4972 71.6307C45.5994 72.608 46.4574 73.8011 47.071 75.2102C47.696 76.608 48.0256 78.2045 48.0597 80ZM83.2543 86.8182C82.6406 90.4545 81.4645 93.5966 79.7259 96.2443C77.9872 98.8807 75.8622 100.915 73.3509 102.347C70.8395 103.767 68.1179 104.477 65.1861 104.477C62.1634 104.477 59.5895 103.739 57.4645 102.261C55.3509 100.773 53.8395 98.6705 52.9304 95.9545C52.0327 93.2273 51.8906 90 52.5043 86.2727C53.1179 82.6364 54.294 79.5 56.0327 76.8636C57.7713 74.2159 59.902 72.1818 62.4247 70.7614C64.9474 69.3295 67.6861 68.6136 70.6406 68.6136C73.6406 68.6136 76.1918 69.358 78.294 70.8466C80.4077 72.3239 81.9134 74.4261 82.8111 77.1534C83.7202 79.8693 83.8679 83.0909 83.2543 86.8182ZM79.2315 86.2727C79.7315 83.2955 79.6577 80.7898 79.0099 78.7557C78.3622 76.7216 77.2884 75.1818 75.7884 74.1364C74.2884 73.0909 72.5043 72.5682 70.4361 72.5682C68.277 72.5682 66.2315 73.1193 64.2997 74.2216C62.3679 75.3125 60.7145 76.9205 59.3395 79.0455C57.9645 81.1591 57.027 83.75 56.527 86.8182C56.027 89.7955 56.1009 92.3011 56.7486 94.3352C57.3963 96.3693 58.4702 97.9091 59.9702 98.9545C61.4702 100 63.2543 100.523 65.3224 100.523C67.4815 100.523 69.527 99.9773 71.4588 98.8864C73.3906 97.7841 75.044 96.1761 76.419 94.0625C77.794 91.9375 78.7315 89.3409 79.2315 86.2727ZM116.203 69.0909H120.43L116.612 92.2045C116.214 94.5909 115.3 96.7216 113.868 98.5966C112.436 100.46 110.612 101.932 108.396 103.011C106.18 104.08 103.703 104.614 100.964 104.614C98.2259 104.614 95.9304 104.08 94.0781 103.011C92.2259 101.932 90.8963 100.46 90.0895 98.5966C89.2827 96.7216 89.0781 94.5909 89.4759 92.2045L93.294 69.0909H97.5213L93.7372 91.8636C93.4645 93.5682 93.5952 95.0852 94.1293 96.4148C94.6634 97.733 95.5611 98.7727 96.8224 99.5341C98.0952 100.284 99.7031 100.659 101.646 100.659C103.589 100.659 105.322 100.284 106.845 99.5341C108.368 98.7727 109.607 97.733 110.561 96.4148C111.527 95.0852 112.146 93.5682 112.419 91.8636L116.203 69.0909ZM123.077 104L128.872 69.0909H140.668C143.395 69.0909 145.554 69.5511 147.145 70.4716C148.747 71.392 149.832 72.6591 150.401 74.2727C150.98 75.8864 151.099 77.7273 150.759 79.7955C150.418 81.8409 149.69 83.6591 148.577 85.25C147.474 86.8409 145.974 88.0909 144.077 89C142.19 89.9091 139.895 90.3636 137.19 90.3636H127.645L128.327 86.5455H137.736C139.599 86.5455 141.145 86.2727 142.372 85.7273C143.599 85.1818 144.554 84.4034 145.236 83.392C145.918 82.3807 146.372 81.1818 146.599 79.7955C146.827 78.3864 146.764 77.1648 146.412 76.1307C146.071 75.0852 145.372 74.2784 144.315 73.7102C143.27 73.1307 141.804 72.8409 139.918 72.8409H132.486L127.304 104H123.077ZM142.099 88.3182L148.099 104H143.19L137.327 88.3182H142.099ZM177.166 78.0909C177.166 76.2159 176.547 74.7955 175.308 73.8295C174.07 72.8523 172.393 72.3636 170.28 72.3636C168.734 72.3636 167.342 72.6136 166.104 73.1136C164.865 73.6136 163.854 74.3011 163.07 75.1761C162.286 76.0511 161.803 77.0455 161.621 78.1591C161.473 79.0909 161.57 79.892 161.911 80.5625C162.251 81.2216 162.734 81.7727 163.359 82.2159C163.996 82.6477 164.678 83.0057 165.405 83.2898C166.132 83.5625 166.803 83.7841 167.416 83.9545L170.825 84.9091C171.678 85.1477 172.626 85.4773 173.672 85.8977C174.717 86.3182 175.695 86.892 176.604 87.6193C177.513 88.3352 178.206 89.2557 178.683 90.3807C179.172 91.5057 179.28 92.8864 179.007 94.5227C178.689 96.4091 177.911 98.1136 176.672 99.6364C175.445 101.159 173.82 102.369 171.797 103.267C169.786 104.165 167.439 104.614 164.757 104.614C162.257 104.614 160.155 104.21 158.45 103.403C156.757 102.597 155.507 101.472 154.7 100.028C153.905 98.5852 153.598 96.9091 153.78 95H158.143C158.03 96.3182 158.291 97.4091 158.928 98.2727C159.564 99.125 160.45 99.7614 161.587 100.182C162.723 100.591 163.984 100.795 165.371 100.795C166.984 100.795 168.473 100.534 169.837 100.011C171.212 99.4773 172.348 98.7386 173.246 97.7955C174.155 96.8409 174.712 95.7273 174.916 94.4545C175.121 93.2955 174.962 92.3523 174.439 91.625C173.916 90.8977 173.161 90.3068 172.172 89.8523C171.183 89.3977 170.098 89 168.916 88.6591L164.825 87.4318C162.234 86.6477 160.263 85.5284 158.911 84.0739C157.57 82.6193 157.087 80.7159 157.462 78.3636C157.803 76.4091 158.626 74.7045 159.933 73.25C161.24 71.7841 162.859 70.6477 164.791 69.8409C166.723 69.0227 168.803 68.6136 171.03 68.6136C173.28 68.6136 175.206 69.0227 176.808 69.8409C178.411 70.6477 179.604 71.767 180.388 73.1989C181.172 74.6193 181.462 76.25 181.257 78.0909H177.166ZM184.389 104L190.185 69.0909H211.253L210.639 72.8409H193.798L191.821 84.6364H207.571L206.957 88.3864H191.207L189.23 100.25H206.344L205.73 104H184.389Z" fill="#202020"/>
<path d="M29.1392 46L27.1662 45.6725L26.7798 48H29.1392V46ZM34.9347 11.0909V9.09091H33.2393L32.9617 10.7634L34.9347 11.0909ZM54.4176 13.2216L53.3304 14.9003L53.3343 14.9028L54.4176 13.2216ZM59.0199 19.3068L57.1193 19.9294L57.1217 19.9368L59.0199 19.3068ZM59.4119 28.75L57.4395 28.4192L57.4385 28.4253L59.4119 28.75ZM55.9688 38.0057L54.3001 36.9031L54.299 36.9048L55.9688 38.0057ZM49.3892 43.9375L50.3017 45.7172L50.3046 45.7157L49.3892 43.9375ZM33.9972 42.25L32.024 41.9236L31.6391 44.25H33.9972V42.25ZM47.6506 40.5455L46.6995 38.786L46.6955 38.7882L47.6506 40.5455ZM52.7301 35.6875L51.0274 34.6383L51.0233 34.645L52.7301 35.6875ZM55.3892 28.2045L53.4181 27.8653L53.416 27.8783L55.3892 28.2045ZM55.2528 21.0625L53.3261 21.5989L53.3298 21.6119L55.2528 21.0625ZM51.9631 16.4602L50.8564 18.1261L50.8631 18.1306L50.8698 18.135L51.9631 16.4602ZM38.5312 14.8409V12.8409H36.8349L36.5581 14.5145L38.5312 14.8409ZM40.0483 44H29.1392V48H40.0483V44ZM31.1122 46.3275L36.9077 11.4185L32.9617 10.7634L27.1662 45.6725L31.1122 46.3275ZM34.9347 13.0909H46.0483V9.09091H34.9347V13.0909ZM46.0483 13.0909C49.1615 13.0909 51.5442 13.7434 53.3304 14.9003L55.5048 11.5429C52.9047 9.85889 49.7078 9.09091 46.0483 9.09091V13.0909ZM53.3343 14.9028C55.1297 16.0596 56.3896 17.7021 57.1193 19.9294L60.9205 18.6842C59.9229 15.6388 58.1147 13.2245 55.5009 11.5404L53.3343 14.9028ZM57.1217 19.9368C57.8654 22.1775 58.0166 24.9781 57.4395 28.4192L61.3844 29.0808C62.0346 25.2037 61.9244 21.7089 60.9181 18.6768L57.1217 19.9368ZM57.4385 28.4253C56.8853 31.7869 55.8244 34.5964 54.3001 36.9031L57.6374 39.1083C59.5222 36.2559 60.7568 32.8949 61.3854 29.0747L57.4385 28.4253ZM54.299 36.9048C52.7918 39.1908 50.8566 40.9327 48.4738 42.1593L50.3046 45.7157C53.3082 44.1696 55.7593 41.9569 57.6385 39.1065L54.299 36.9048ZM48.4767 42.1578C46.1231 43.3645 43.3323 44 40.0483 44V48C43.8552 48 47.2917 47.2605 50.3017 45.7172L48.4767 42.1578ZM33.9972 44.25H40.1847V40.25H33.9972V44.25ZM40.1847 44.25C43.3341 44.25 46.1653 43.6289 48.6056 42.3027L46.6955 38.7882C44.954 39.7347 42.8079 40.25 40.1847 40.25V44.25ZM48.6016 42.3049C51.0246 40.9952 52.9746 39.1241 54.4369 36.73L51.0233 34.645C49.9175 36.4554 48.4811 37.823 46.6995 38.786L48.6016 42.3049ZM54.4328 36.7367C55.8872 34.3765 56.8504 31.627 57.3624 28.5308L53.416 27.8783C52.9734 30.5548 52.1639 32.794 51.0274 34.6383L54.4328 36.7367ZM57.3602 28.5438C57.8711 25.576 57.8508 22.8752 57.1759 20.5131L53.3298 21.6119C53.7913 23.2271 53.8619 25.2876 53.4182 27.8653L57.3602 28.5438ZM57.1796 20.5261C56.5013 18.0898 55.1264 16.1367 53.0563 14.7855L50.8698 18.135C52.0725 18.9201 52.8908 20.0352 53.3261 21.5989L57.1796 20.5261ZM53.0698 14.7943C51.0103 13.4262 48.4047 12.8409 45.4347 12.8409V16.8409C47.9191 16.8409 49.6658 17.3352 50.8564 18.1261L53.0698 14.7943ZM45.4347 12.8409H38.5312V16.8409H45.4347V12.8409ZM36.5581 14.5145L32.024 41.9236L35.9703 42.5764L40.5044 15.1673L36.5581 14.5145ZM63.6392 46L61.6662 45.6725L61.2798 48H63.6392V46ZM69.4347 11.0909V9.09091H67.7393L67.4617 10.7634L69.4347 11.0909ZM90.5028 11.0909L92.4766 11.4139L92.8567 9.09091H90.5028V11.0909ZM89.8892 14.8409V16.8409H91.5885L91.863 15.1639L89.8892 14.8409ZM73.0483 14.8409V12.8409H71.3557L71.0758 14.5103L73.0483 14.8409ZM71.071 26.6364L69.0985 26.3057L68.7079 28.6364H71.071V26.6364ZM86.821 26.6364L88.7948 26.9593L89.1749 24.6364H86.821V26.6364ZM86.2074 30.3864V32.3864H87.9067L88.1811 30.7093L86.2074 30.3864ZM70.4574 30.3864V28.3864H68.7631L68.4846 30.0576L70.4574 30.3864ZM68.4801 42.25L66.5073 41.9212L66.1192 44.25H68.4801V42.25ZM85.5938 42.25L87.5675 42.573L87.9476 40.25H85.5938V42.25ZM84.9801 46V48H86.6794L86.9539 46.323L84.9801 46ZM65.6122 46.3275L71.4077 11.4185L67.4617 10.7634L61.6662 45.6725L65.6122 46.3275ZM69.4347 13.0909H90.5028V9.09091H69.4347V13.0909ZM88.5291 10.7679L87.9155 14.5179L91.863 15.1639L92.4766 11.4139L88.5291 10.7679ZM89.8892 12.8409H73.0483V16.8409H89.8892V12.8409ZM71.0758 14.5103L69.0985 26.3057L73.0435 26.967L75.0208 15.1716L71.0758 14.5103ZM71.071 28.6364H86.821V24.6364H71.071V28.6364ZM84.8473 26.3134L84.2336 30.0634L88.1811 30.7093L88.7948 26.9593L84.8473 26.3134ZM86.2074 28.3864H70.4574V32.3864H86.2074V28.3864ZM68.4846 30.0576L66.5073 41.9212L70.4529 42.5788L72.4302 30.7152L68.4846 30.0576ZM68.4801 44.25H85.5938V40.25H68.4801V44.25ZM83.62 41.927L83.0064 45.677L86.9539 46.323L87.5675 42.573L83.62 41.927ZM84.9801 44H63.6392V48H84.9801V44ZM124.372 22V24H126.41L126.372 21.962L124.372 22ZM120.213 22L118.214 22.0747L118.286 24H120.213V22ZM117.622 16.4773L116.34 18.0118L116.352 18.0222L116.364 18.0323L117.622 16.4773ZM114.997 15.0455L115.61 13.1416L115.61 13.1416L114.997 15.0455ZM105.69 16.2216L106.674 17.9631L106.682 17.9587L105.69 16.2216ZM100.73 21.0455L102.407 22.1361L102.409 22.132L100.73 21.0455ZM97.9176 28.8182L99.89 29.1494L99.8916 29.1399L97.9176 28.8182ZM110.224 42.0455L109.695 40.1168L109.69 40.1181L110.224 42.0455ZM113.463 40.6307L114.523 42.3267L114.528 42.3235L113.463 40.6307ZM116.156 38.2955L114.635 36.9969L114.634 36.9985L116.156 38.2955ZM118.031 35.0909V33.0909H116.648L116.16 34.3848L118.031 35.0909ZM122.259 35.0909L124.146 35.7521L125.078 33.0909H122.259V35.0909ZM119.719 39.8807L118.125 38.6725L118.119 38.6807L119.719 39.8807ZM116.054 43.4773L117.206 45.112L117.215 45.1056L116.054 43.4773ZM111.571 45.7102L112.179 47.6155L111.571 45.7102ZM98.8551 44.2614L97.7035 45.8965L97.7135 45.9035L98.8551 44.2614ZM94.321 37.9545L92.4213 38.5799L92.4245 38.5894L94.321 37.9545ZM93.8949 28.2727L91.9228 27.9399L91.9215 27.9478L93.8949 28.2727ZM97.4233 18.8636L99.0929 19.9647L99.0951 19.9614L97.4233 18.8636ZM103.815 12.7614L104.797 14.5041L104.803 14.5007L103.815 12.7614ZM120.81 13.6307L119.474 15.1196L119.483 15.1272L120.81 13.6307ZM123.384 17.2102L121.55 18.0088L121.554 18.0177L121.558 18.0266L123.384 17.2102ZM124.372 20H120.213V24H124.372V20ZM122.212 21.9253C122.158 20.4791 121.857 19.1256 121.256 17.9099L117.67 19.681C117.979 20.3062 118.178 21.089 118.214 22.0747L122.212 21.9253ZM121.256 17.9099C120.678 16.739 119.885 15.7351 118.88 14.9223L116.364 18.0323C116.905 18.4694 117.339 19.011 117.67 19.681L121.256 17.9099ZM118.905 14.9427C117.937 14.1337 116.832 13.5349 115.61 13.1416L114.384 16.9493C115.14 17.1924 115.785 17.5482 116.34 18.0118L118.905 14.9427ZM115.61 13.1416C114.407 12.7546 113.142 12.5682 111.827 12.5682V16.5682C112.761 16.5682 113.61 16.6999 114.384 16.9493L115.61 13.1416ZM111.827 12.5682C109.309 12.5682 106.923 13.2153 104.699 14.4845L106.682 17.9587C108.321 17.0233 110.026 16.5682 111.827 16.5682V12.5682ZM104.707 14.4801C102.456 15.751 100.577 17.6012 99.051 19.959L102.409 22.132C103.634 20.2398 105.061 18.874 106.674 17.9631L104.707 14.4801ZM99.0536 19.9548C97.4962 22.3489 96.4782 25.2163 95.9437 28.4965L99.8916 29.1399C100.357 26.2837 101.214 23.9693 102.407 22.1361L99.0536 19.9548ZM95.9452 28.4869C95.413 31.6559 95.4577 34.5059 96.2335 36.9421L100.045 35.7284C99.5252 34.0963 99.4222 31.935 99.89 29.1494L95.9452 28.4869ZM96.2335 36.9421C96.9914 39.3222 98.2982 41.2579 100.217 42.5953L102.504 39.3137C101.423 38.5603 100.582 37.4164 100.045 35.7284L96.2335 36.9421ZM100.217 42.5953C102.096 43.9046 104.292 44.5227 106.713 44.5227V40.5227C104.998 40.5227 103.626 40.0954 102.504 39.3137L100.217 42.5953ZM106.713 44.5227C108.086 44.5227 109.437 44.3393 110.759 43.9728L109.69 40.1181C108.717 40.388 107.726 40.5227 106.713 40.5227V44.5227ZM110.754 43.9741C112.097 43.6055 113.355 43.0566 114.523 42.3267L112.403 38.9347C111.571 39.4548 110.671 39.849 109.695 40.1168L110.754 43.9741ZM114.528 42.3235C115.713 41.5778 116.765 40.6654 117.679 39.5924L114.634 36.9985C113.98 37.7665 113.236 38.4108 112.398 38.9379L114.528 42.3235ZM117.677 39.594C118.63 38.4776 119.371 37.2067 119.902 35.797L116.16 34.3848C115.783 35.3842 115.273 36.2497 114.635 36.9969L117.677 39.594ZM118.031 37.0909H122.259V33.0909H118.031V37.0909ZM120.371 34.4297C119.81 36.0309 119.059 37.4404 118.125 38.6725L121.313 41.0889C122.515 39.5028 123.457 37.7191 124.146 35.7521L120.371 34.4297ZM118.119 38.6807C117.181 39.931 116.106 40.9837 114.893 41.8489L117.215 45.1056C118.775 43.9935 120.143 42.6486 121.319 41.0807L118.119 38.6807ZM114.902 41.8426C113.68 42.7035 112.369 43.356 110.963 43.8049L112.179 47.6155C113.977 47.0417 115.655 46.2056 117.206 45.112L114.902 41.8426ZM110.963 43.8049C109.563 44.2518 108.103 44.4773 106.577 44.4773V48.4773C108.505 48.4773 110.375 48.1913 112.179 47.6155L110.963 43.8049ZM106.577 44.4773C103.892 44.4773 101.733 43.8263 99.9967 42.6192L97.7135 45.9035C100.227 47.651 103.216 48.4773 106.577 48.4773V44.4773ZM100.007 42.6262C98.2792 41.4095 97.0067 39.6771 96.2176 37.3197L92.4245 38.5894C93.4535 41.6638 95.2037 44.1359 97.7035 45.8965L100.007 42.6262ZM96.2208 37.3292C95.4505 34.9893 95.2911 32.1036 95.8683 28.5976L91.9215 27.9478C91.2714 31.8964 91.396 35.4652 92.4213 38.5799L96.2208 37.3292ZM95.867 28.6055C96.442 25.1979 97.531 22.3331 99.0929 19.9647L95.7537 17.7626C93.8383 20.6669 92.575 24.0748 91.9228 27.9399L95.867 28.6055ZM99.0951 19.9614C100.675 17.5551 102.578 15.7534 104.797 14.5041L102.834 11.0186C100.007 12.6102 97.6487 14.8767 95.7515 17.7659L99.0951 19.9614ZM104.803 14.5007C107.019 13.243 109.416 12.6136 112.031 12.6136V8.61364C108.737 8.61364 105.658 9.41606 102.828 11.022L104.803 14.5007ZM112.031 12.6136C113.61 12.6136 115.019 12.8411 116.274 13.2722L117.573 9.48917C115.851 8.89753 113.997 8.61364 112.031 8.61364V12.6136ZM116.274 13.2722C117.525 13.7021 118.584 14.3208 119.474 15.1196L122.145 12.1418C120.831 10.9633 119.299 10.0819 117.573 9.48917L116.274 13.2722ZM119.483 15.1272C120.358 15.9031 121.047 16.8546 121.55 18.0088L125.217 16.4117C124.493 14.7477 123.466 13.3128 122.136 12.1342L119.483 15.1272ZM121.558 18.0266C122.056 19.1406 122.343 20.4652 122.373 22.038L126.372 21.962C126.333 19.9438 125.961 18.0753 125.209 16.3938L121.558 18.0266ZM159.567 28.8182L161.539 29.151L161.54 29.1431L159.567 28.8182ZM156.038 38.2443L157.708 39.3454L157.71 39.3421L156.038 38.2443ZM149.663 44.3466L150.648 46.0874L150.654 46.084L149.663 44.3466ZM133.777 44.2614L132.625 45.8965L132.635 45.9035L133.777 44.2614ZM129.243 37.9545L127.343 38.5799L127.346 38.5894L129.243 37.9545ZM128.817 28.2727L126.845 27.9399L126.843 27.9478L128.817 28.2727ZM132.345 18.8636L134.015 19.9647L134.017 19.9614L132.345 18.8636ZM138.737 12.7614L139.718 14.5041L139.724 14.5007L138.737 12.7614ZM154.607 12.8466L153.451 14.4788L153.461 14.4859L154.607 12.8466ZM159.124 19.1534L157.224 19.7787L157.227 19.7882L159.124 19.1534ZM155.544 28.2727L153.572 27.9415L153.57 27.951L155.544 28.2727ZM155.322 20.7557L157.228 20.1488L157.228 20.1488L155.322 20.7557ZM152.101 16.1364L153.244 14.4956L153.244 14.4956L152.101 16.1364ZM140.612 16.2216L141.596 17.9631L141.603 17.9587L140.612 16.2216ZM135.652 21.0455L137.328 22.1361L137.331 22.132L135.652 21.0455ZM132.839 28.8182L134.812 29.1494L134.813 29.1399L132.839 28.8182ZM147.771 40.8864L148.755 42.6279L148.762 42.6235L147.771 40.8864ZM152.732 36.0625L154.408 37.1531L154.411 37.149L152.732 36.0625ZM157.595 28.4854C157.02 31.8931 155.93 34.7652 154.367 37.1465L157.71 39.3421C159.624 36.428 160.887 33.016 161.539 29.151L157.595 28.4854ZM154.369 37.1432C152.787 39.5418 150.886 41.3471 148.673 42.6091L150.654 46.084C153.463 44.4824 155.812 42.2196 157.708 39.3454L154.369 37.1432ZM148.679 42.6058C146.473 43.8535 144.091 44.4773 141.499 44.4773V48.4773C144.77 48.4773 147.831 47.6806 150.648 46.0874L148.679 42.6058ZM141.499 44.4773C138.814 44.4773 136.655 43.8263 134.919 42.6192L132.635 45.9035C135.149 47.651 138.138 48.4773 141.499 48.4773V44.4773ZM134.929 42.6262C133.201 41.4095 131.929 39.6771 131.139 37.3197L127.346 38.5894C128.375 41.6638 130.126 44.1359 132.625 45.8965L134.929 42.6262ZM131.143 37.3292C130.372 34.9893 130.213 32.1036 130.79 28.5976L126.843 27.9478C126.193 31.8964 126.318 35.4652 127.343 38.5799L131.143 37.3292ZM130.789 28.6055C131.364 25.1979 132.453 22.3331 134.015 19.9647L130.676 17.7626C128.76 20.6669 127.497 24.0748 126.845 27.9399L130.789 28.6055ZM134.017 19.9614C135.597 17.5551 137.5 15.7534 139.718 14.5041L137.756 11.0186C134.929 12.6102 132.571 14.8767 130.673 17.7659L134.017 19.9614ZM139.724 14.5007C141.94 13.243 144.338 12.6136 146.953 12.6136V8.61364C143.659 8.61364 140.58 9.41606 137.75 11.022L139.724 14.5007ZM146.953 12.6136C149.609 12.6136 151.74 13.2671 153.451 14.4788L155.762 11.2144C153.269 9.44882 150.297 8.61364 146.953 8.61364V12.6136ZM153.461 14.4859C155.18 15.6875 156.445 17.4131 157.224 19.7787L161.023 18.5281C160.007 15.4392 158.26 12.9602 155.752 11.2073L153.461 14.4859ZM157.227 19.7882C158.005 22.1126 158.17 24.9886 157.593 28.4933L161.54 29.1431C162.19 25.1932 162.06 21.6261 161.02 18.5186L157.227 19.7882ZM157.516 28.604C158.049 25.435 158.004 22.585 157.228 20.1488L153.417 21.3625C153.936 22.9946 154.039 25.1559 153.572 27.9415L157.516 28.604ZM157.228 20.1488C156.47 17.7687 155.163 15.8331 153.244 14.4956L150.957 17.7772C152.038 18.5306 152.879 19.6745 153.417 21.3625L157.228 20.1488ZM153.244 14.4956C151.366 13.1863 149.17 12.5682 146.749 12.5682V16.5682C148.463 16.5682 149.836 16.9955 150.957 17.7772L153.244 14.4956ZM146.749 12.5682C144.231 12.5682 141.845 13.2153 139.621 14.4845L141.603 17.9587C143.243 17.0233 144.948 16.5682 146.749 16.5682V12.5682ZM139.629 14.4801C137.378 15.751 135.498 17.6012 133.973 19.959L137.331 22.132C138.555 20.2398 139.983 18.874 141.596 17.9631L139.629 14.4801ZM133.976 19.9548C132.418 22.3489 131.4 25.2163 130.866 28.4965L134.813 29.1399C135.279 26.2837 136.136 23.9693 137.328 22.1361L133.976 19.9548ZM130.867 28.4869C130.335 31.6559 130.38 34.5059 131.155 36.9421L134.967 35.7284C134.447 34.0963 134.344 31.935 134.812 29.1494L130.867 28.4869ZM131.155 36.9421C131.913 39.3222 133.22 41.2579 135.139 42.5953L137.426 39.3137C136.345 38.5603 135.504 37.4164 134.967 35.7284L131.155 36.9421ZM135.139 42.5953C137.018 43.9046 139.213 44.5227 141.635 44.5227V40.5227C139.92 40.5227 138.548 40.0954 137.426 39.3137L135.139 42.5953ZM141.635 44.5227C144.148 44.5227 146.531 43.8834 148.755 42.6279L146.788 39.1449C145.147 40.0712 143.44 40.5227 141.635 40.5227V44.5227ZM148.762 42.6235C151.006 41.3433 152.883 39.4977 154.408 37.1531L151.055 34.9719C149.83 36.8545 148.4 38.2248 146.78 39.1492L148.762 42.6235ZM154.411 37.149C155.966 34.7456 156.983 31.8746 157.518 28.5944L153.57 27.951C153.105 30.8073 152.247 33.1294 151.052 34.976L154.411 37.149ZM197.288 11.0909L199.261 11.4185L199.648 9.09091H197.288V11.0909ZM191.493 46V48H193.188L193.466 46.3275L191.493 46ZM187.402 46L185.633 46.9329L186.196 48H187.402V46ZM172.947 18.5909L174.717 17.658L174.154 16.5909H172.947V18.5909ZM172.607 18.5909V16.5909H170.912L170.634 18.2621L172.607 18.5909ZM168.038 46V48H169.733L170.011 46.3288L168.038 46ZM163.811 46L161.838 45.6725L161.452 48H163.811V46ZM169.607 11.0909V9.09091H167.911L167.634 10.7634L169.607 11.0909ZM173.697 11.0909L175.466 10.1563L174.903 9.09091H173.697V11.0909ZM188.22 38.5682L186.452 39.5027L187.015 40.5682H188.22V38.5682ZM188.561 38.5682V40.5682H190.256L190.534 38.8962L188.561 38.5682ZM193.129 11.0909V9.09091H191.434L191.156 10.7629L193.129 11.0909ZM195.315 10.7634L189.52 45.6725L193.466 46.3275L199.261 11.4185L195.315 10.7634ZM191.493 44H187.402V48H191.493V44ZM189.171 45.0671L174.717 17.658L171.178 19.5239L185.633 46.9329L189.171 45.0671ZM172.947 16.5909H172.607V20.5909H172.947V16.5909ZM170.634 18.2621L166.066 45.6712L170.011 46.3288L174.579 18.9197L170.634 18.2621ZM168.038 44H163.811V48H168.038V44ZM165.784 46.3275L171.58 11.4185L167.634 10.7634L161.838 45.6725L165.784 46.3275ZM169.607 13.0909H173.697V9.09091H169.607V13.0909ZM171.929 12.0255L186.452 39.5027L189.988 37.6336L175.466 10.1563L171.929 12.0255ZM188.22 40.5682H188.561V36.5682H188.22V40.5682ZM190.534 38.8962L195.102 11.4189L191.156 10.7629L186.588 38.2402L190.534 38.8962ZM193.129 13.0909H197.288V9.09091H193.129V13.0909ZM48.0597 80V82H50.098L50.0593 79.962L48.0597 80ZM43.9006 80L41.902 80.0747L41.9739 82H43.9006V80ZM41.3097 74.4773L40.027 76.0118L40.0394 76.0222L40.0519 76.0323L41.3097 74.4773ZM38.6847 73.0455L39.2974 71.1416L39.2974 71.1416L38.6847 73.0455ZM29.3778 74.2216L30.3613 75.9631L30.369 75.9587L29.3778 74.2216ZM24.4176 79.0455L26.0941 80.1361L26.0968 80.132L24.4176 79.0455ZM21.6051 86.8182L23.5775 87.1494L23.5791 87.1399L21.6051 86.8182ZM33.9119 100.045L33.3825 98.1168L33.3776 98.1181L33.9119 100.045ZM37.1506 98.6307L38.2106 100.327L38.2157 100.323L37.1506 98.6307ZM39.8438 96.2955L38.3226 94.9969L38.3213 94.9985L39.8438 96.2955ZM41.7188 93.0909V91.0909H40.3358L39.8475 92.3848L41.7188 93.0909ZM45.946 93.0909L47.8336 93.7521L48.7658 91.0909H45.946V93.0909ZM43.4062 97.8807L41.8124 96.6725L41.8062 96.6807L43.4062 97.8807ZM39.7415 101.477L40.8938 103.112L40.9027 103.106L39.7415 101.477ZM35.2585 103.71L35.8666 105.616L35.2585 103.71ZM22.5426 102.261L21.391 103.897L21.401 103.904L22.5426 102.261ZM18.0085 95.9545L16.1088 96.5799L16.112 96.5894L18.0085 95.9545ZM17.5824 86.2727L15.6103 85.9399L15.609 85.9478L17.5824 86.2727ZM21.1108 76.8636L22.7804 77.9647L22.7826 77.9614L21.1108 76.8636ZM27.5028 70.7614L28.4841 72.5041L28.4901 72.5007L27.5028 70.7614ZM44.4972 71.6307L43.1618 73.1196L43.1703 73.1272L44.4972 71.6307ZM47.071 75.2102L45.2374 76.0088L45.2413 76.0177L45.2452 76.0266L47.071 75.2102ZM48.0597 78H43.9006V82H48.0597V78ZM45.8992 79.9253C45.8451 78.4791 45.5442 77.1256 44.9438 75.9099L41.3573 77.681C41.6661 78.3062 41.8651 79.089 41.902 80.0747L45.8992 79.9253ZM44.9438 75.9099C44.3656 74.739 43.5724 73.7351 42.5674 72.9223L40.0519 76.0323C40.5924 76.4694 41.0265 77.011 41.3573 77.681L44.9438 75.9099ZM42.5923 72.9427C41.6243 72.1337 40.5194 71.5349 39.2974 71.1416L38.0719 74.9493C38.8272 75.1924 39.4723 75.5482 40.027 76.0118L42.5923 72.9427ZM39.2974 71.1416C38.095 70.7546 36.8299 70.5682 35.5142 70.5682V74.5682C36.4485 74.5682 37.2971 74.6999 38.0719 74.9493L39.2974 71.1416ZM35.5142 70.5682C32.9967 70.5682 30.6109 71.2153 28.3867 72.4845L30.369 75.9587C32.0084 75.0233 33.7135 74.5682 35.5142 74.5682V70.5682ZM28.3944 72.4801C26.1437 73.751 24.2641 75.6012 22.7385 77.959L26.0968 80.132C27.3211 78.2398 28.7483 76.874 30.3613 75.9631L28.3944 72.4801ZM22.7411 77.9548C21.1837 80.3489 20.1657 83.2163 19.6312 86.4965L23.5791 87.1399C24.0445 84.2837 24.9015 81.9693 26.0941 80.1361L22.7411 77.9548ZM19.6327 86.4869C19.1005 89.6559 19.1452 92.5059 19.921 94.9421L23.7324 93.7284C23.2127 92.0963 23.1097 89.935 23.5775 87.1494L19.6327 86.4869ZM19.921 94.9421C20.6789 97.3222 21.9857 99.2579 23.9047 100.595L26.1919 97.3137C25.1109 96.5603 24.2699 95.4164 23.7324 93.7284L19.921 94.9421ZM23.9047 100.595C25.7832 101.905 27.9791 102.523 30.4006 102.523V98.5227C28.6857 98.5227 27.3134 98.0954 26.1919 97.3137L23.9047 100.595ZM30.4006 102.523C31.774 102.523 33.1242 102.339 34.4462 101.973L33.3776 98.1181C32.4042 98.388 31.4135 98.5227 30.4006 98.5227V102.523ZM34.4414 101.974C35.784 101.606 37.0428 101.057 38.2106 100.327L36.0906 96.9347C35.2584 97.4548 34.358 97.849 33.3825 98.1168L34.4414 101.974ZM38.2157 100.323C39.4008 99.5778 40.4522 98.6654 41.3662 97.5924L38.3213 94.9985C37.6671 95.7665 36.9231 96.4108 36.0854 96.9379L38.2157 100.323ZM41.3649 97.594C42.3179 96.4776 43.058 95.2067 43.59 93.797L39.8475 92.3848C39.4704 93.3842 38.9605 94.2497 38.3226 94.9969L41.3649 97.594ZM41.7188 95.0909H45.946V91.0909H41.7188V95.0909ZM44.0585 92.4297C43.4976 94.0309 42.7464 95.4404 41.8124 96.6725L45.0001 99.0889C46.2024 97.5028 47.1445 95.7191 47.8336 93.7521L44.0585 92.4297ZM41.8062 96.6807C40.8685 97.931 39.7935 98.9837 38.5803 99.8489L40.9027 103.106C42.4622 101.994 43.8303 100.649 45.0063 99.0807L41.8062 96.6807ZM38.5892 99.8426C37.3679 100.703 36.0569 101.356 34.6504 101.805L35.8666 105.616C37.6647 105.042 39.3423 104.206 40.8938 103.112L38.5892 99.8426ZM34.6504 101.805C33.2501 102.252 31.7907 102.477 30.2642 102.477V106.477C32.1922 106.477 34.0624 106.191 35.8666 105.616L34.6504 101.805ZM30.2642 102.477C27.5791 102.477 25.4206 101.826 23.6842 100.619L21.401 103.904C23.9147 105.651 26.9038 106.477 30.2642 106.477V102.477ZM23.6943 100.626C21.9667 99.4095 20.6942 97.6771 19.9051 95.3197L16.112 96.5894C17.141 99.6638 18.8912 102.136 21.391 103.897L23.6943 100.626ZM19.9083 95.3292C19.138 92.9893 18.9786 90.1036 19.5558 86.5976L15.609 85.9478C14.9589 89.8964 15.0835 93.4652 16.1088 96.5799L19.9083 95.3292ZM19.5545 86.6055C20.1295 83.1979 21.2185 80.3331 22.7804 77.9647L19.4412 75.7626C17.5258 78.6669 16.2625 82.0748 15.6103 85.9399L19.5545 86.6055ZM22.7826 77.9614C24.3627 75.5551 26.2653 73.7534 28.4841 72.5041L26.5216 69.0186C23.6949 70.6102 21.3362 72.8767 19.439 75.7659L22.7826 77.9614ZM28.4901 72.5007C30.706 71.243 33.1036 70.6136 35.7188 70.6136V66.6136C32.4249 66.6136 29.3451 67.4161 26.5156 69.022L28.4901 72.5007ZM35.7188 70.6136C37.298 70.6136 38.7061 70.8411 39.961 71.2722L41.2606 67.4892C39.5382 66.8975 37.685 66.6136 35.7188 66.6136V70.6136ZM39.961 71.2722C41.2127 71.7021 42.2712 72.3208 43.1618 73.1196L45.8325 70.1418C44.5186 68.9633 42.9862 68.0819 41.2606 67.4892L39.961 71.2722ZM43.1703 73.1272C44.0454 73.9031 44.7347 74.8546 45.2374 76.0088L48.9047 74.4117C48.18 72.7477 47.1534 71.3128 45.824 70.1342L43.1703 73.1272ZM45.2452 76.0266C45.7433 77.1406 46.0302 78.4652 46.06 80.038L50.0593 79.962C50.021 77.9438 49.6487 76.0753 48.8968 74.3938L45.2452 76.0266ZM83.2543 86.8182L85.2264 87.151L85.2277 87.1431L83.2543 86.8182ZM79.7259 96.2443L81.3955 97.3454L81.3976 97.3421L79.7259 96.2443ZM73.3509 102.347L74.3355 104.087L74.3414 104.084L73.3509 102.347ZM57.4645 102.261L56.3128 103.897L56.3229 103.904L57.4645 102.261ZM52.9304 95.9545L51.0306 96.5799L51.0338 96.5894L52.9304 95.9545ZM52.5043 86.2727L50.5321 85.9399L50.5308 85.9478L52.5043 86.2727ZM56.0327 76.8636L57.7023 77.9647L57.7045 77.9614L56.0327 76.8636ZM62.4247 70.7614L63.406 72.5041L63.4119 72.5007L62.4247 70.7614ZM78.294 70.8466L77.1382 72.4788L77.1483 72.4859L78.294 70.8466ZM82.8111 77.1534L80.9113 77.7787L80.9145 77.7882L82.8111 77.1534ZM79.2315 86.2727L77.2591 85.9415L77.2576 85.951L79.2315 86.2727ZM79.0099 78.7557L80.9157 78.1488L80.9157 78.1488L79.0099 78.7557ZM75.7884 74.1364L76.9319 72.4956L76.9319 72.4956L75.7884 74.1364ZM64.2997 74.2216L65.2832 75.9631L65.2909 75.9587L64.2997 74.2216ZM59.3395 79.0455L61.016 80.1361L61.0186 80.132L59.3395 79.0455ZM56.527 86.8182L58.4994 87.1494L58.5009 87.1399L56.527 86.8182ZM71.4588 98.8864L72.4423 100.628L72.45 100.623L71.4588 98.8864ZM76.419 94.0625L78.0955 95.1531L78.0982 95.149L76.419 94.0625ZM81.2821 86.4854C80.7071 89.8931 79.6178 92.7652 78.0541 95.1465L81.3976 97.3421C83.3112 94.428 84.5742 91.016 85.2264 87.151L81.2821 86.4854ZM78.0562 95.1432C76.4745 97.5418 74.5738 99.3471 72.3603 100.609L74.3414 104.084C77.1506 102.482 79.5 100.22 81.3955 97.3454L78.0562 95.1432ZM72.3662 100.606C70.1603 101.853 67.7787 102.477 65.1861 102.477V106.477C68.4571 106.477 71.5187 105.681 74.3355 104.087L72.3662 100.606ZM65.1861 102.477C62.501 102.477 60.3424 101.826 58.6061 100.619L56.3229 103.904C58.8365 105.651 61.8257 106.477 65.1861 106.477V102.477ZM58.6161 100.626C56.8886 99.4095 55.6161 97.6771 54.827 95.3197L51.0338 96.5894C52.0629 99.6638 53.8131 102.136 56.3128 103.897L58.6161 100.626ZM54.8301 95.3292C54.0599 92.9893 53.9005 90.1036 54.4777 86.5976L50.5308 85.9478C49.8808 89.8964 50.0054 93.4652 51.0307 96.5799L54.8301 95.3292ZM54.4764 86.6055C55.0514 83.1979 56.1404 80.3331 57.7023 77.9647L54.3631 75.7626C52.4477 78.6669 51.1844 82.0748 50.5321 85.9399L54.4764 86.6055ZM57.7045 77.9614C59.2846 75.5551 61.1872 73.7534 63.406 72.5041L61.4434 69.0186C58.6168 70.6102 56.2581 72.8767 54.3609 75.7659L57.7045 77.9614ZM63.4119 72.5007C65.6279 71.243 68.0254 70.6136 70.6406 70.6136V66.6136C67.3467 66.6136 64.267 67.4161 61.4375 69.022L63.4119 72.5007ZM70.6406 70.6136C73.2969 70.6136 75.427 71.2671 77.1382 72.4788L79.4498 69.2144C76.9565 67.4488 73.9844 66.6136 70.6406 66.6136V70.6136ZM77.1483 72.4859C78.8676 73.6875 80.1327 75.4131 80.9114 77.7787L84.7108 76.5281C83.6941 73.4392 81.9478 70.9602 79.4398 69.2073L77.1483 72.4859ZM80.9145 77.7882C81.6925 80.1126 81.8578 82.9886 81.2808 86.4933L85.2277 87.1431C85.878 83.1932 85.7478 79.6261 84.7077 76.5186L80.9145 77.7882ZM81.2039 86.604C81.7361 83.435 81.6914 80.585 80.9157 78.1488L77.1042 79.3625C77.6239 80.9946 77.727 83.1559 77.2592 85.9415L81.2039 86.604ZM80.9157 78.1488C80.1577 75.7687 78.8509 73.8331 76.9319 72.4956L74.6448 75.7772C75.7258 76.5306 76.5667 77.6745 77.1042 79.3625L80.9157 78.1488ZM76.9319 72.4956C75.0535 71.1863 72.8575 70.5682 70.4361 70.5682V74.5682C72.151 74.5682 73.5232 74.9955 74.6448 75.7772L76.9319 72.4956ZM70.4361 70.5682C67.9186 70.5682 65.5328 71.2153 63.3085 72.4845L65.2909 75.9587C66.9303 75.0233 68.6354 74.5682 70.4361 74.5682V70.5682ZM63.3163 72.4801C61.0656 73.751 59.186 75.6012 57.6603 77.959L61.0186 80.132C62.243 78.2398 63.6702 76.874 65.2832 75.9631L63.3163 72.4801ZM57.663 77.9548C56.1056 80.3489 55.0876 83.2163 54.553 86.4965L58.5009 87.1399C58.9664 84.2837 59.8234 81.9693 61.016 80.1361L57.663 77.9548ZM54.5546 86.4869C54.0224 89.6559 54.0671 92.5059 54.8429 94.9421L58.6543 93.7284C58.1346 92.0963 58.0316 89.935 58.4994 87.1494L54.5546 86.4869ZM54.8429 94.9421C55.6008 97.3222 56.9076 99.2579 58.8266 100.595L61.1138 97.3137C60.0328 96.5603 59.1918 95.4164 58.6543 93.7284L54.8429 94.9421ZM58.8266 100.595C60.705 101.905 62.901 102.523 65.3224 102.523V98.5227C63.6075 98.5227 62.2353 98.0954 61.1138 97.3137L58.8266 100.595ZM65.3224 102.523C67.8359 102.523 70.219 101.883 72.4422 100.628L70.4754 97.1449C68.835 98.0712 67.1271 98.5227 65.3224 98.5227V102.523ZM72.45 100.623C74.6935 99.3433 76.5702 97.4977 78.0955 95.1531L74.7426 92.9719C73.5178 94.8545 72.0877 96.2248 70.4676 97.1492L72.45 100.623ZM78.0982 95.149C79.6533 92.7456 80.671 89.8746 81.2055 86.5944L77.2576 85.951C76.7921 88.8073 75.9348 91.1294 74.7399 92.976L78.0982 95.149ZM116.203 69.0909V67.0909H114.508L114.23 68.7631L116.203 69.0909ZM120.43 69.0909L122.404 69.4169L122.788 67.0909H120.43V69.0909ZM116.612 92.2045L118.585 92.5333L118.585 92.5305L116.612 92.2045ZM113.868 98.5966L115.454 99.8151L115.457 99.8104L113.868 98.5966ZM108.396 103.011L109.265 104.813L109.272 104.809L108.396 103.011ZM94.0781 103.011L93.071 104.739L93.079 104.744L94.0781 103.011ZM90.0895 98.5966L88.2523 99.3871L88.2541 99.3912L90.0895 98.5966ZM89.4759 92.2045L91.4486 92.5333L91.4491 92.5305L89.4759 92.2045ZM93.294 69.0909V67.0909H91.5973L91.3208 68.7649L93.294 69.0909ZM97.5213 69.0909L99.4943 69.4187L99.8811 67.0909H97.5213V69.0909ZM93.7372 91.8636L91.7642 91.5358L91.7623 91.5477L93.7372 91.8636ZM94.1293 96.4148L92.2734 97.1603L92.2756 97.1658L94.1293 96.4148ZM96.8224 99.5341L95.7889 101.246L95.798 101.252L95.8071 101.257L96.8224 99.5341ZM106.845 99.5341L107.729 101.328L107.74 101.323L106.845 99.5341ZM110.561 96.4148L108.943 95.2392L108.941 95.2418L110.561 96.4148ZM112.419 91.8636L110.446 91.5358L110.444 91.5477L112.419 91.8636ZM116.203 71.0909H120.43V67.0909H116.203V71.0909ZM118.457 68.7649L114.639 91.8786L118.585 92.5305L122.404 69.4169L118.457 68.7649ZM114.639 91.8757C114.294 93.9488 113.507 95.7739 112.278 97.3828L115.457 99.8104C117.092 97.6693 118.135 95.233 118.585 92.5333L114.639 91.8757ZM112.282 97.3781C111.048 98.9842 109.472 100.263 107.52 101.213L109.272 104.809C111.753 103.601 113.824 101.936 115.454 99.8151L112.282 97.3781ZM107.528 101.21C105.612 102.133 103.437 102.614 100.964 102.614V106.614C103.969 106.614 106.749 106.026 109.265 104.813L107.528 101.21ZM100.964 102.614C98.4801 102.614 96.5518 102.129 95.0773 101.279L93.079 104.744C95.309 106.03 97.9716 106.614 100.964 106.614V102.614ZM95.0852 101.283C93.5796 100.406 92.5524 99.2515 91.9249 97.802L88.2541 99.3912C89.2402 101.669 90.8721 103.458 93.071 104.739L95.0852 101.283ZM91.9266 97.8061C91.2976 96.3443 91.1021 94.6124 91.4486 92.5333L87.5031 91.8757C87.0541 94.5694 87.2677 97.0989 88.2524 99.3871L91.9266 97.8061ZM91.4491 92.5305L95.2673 69.4169L91.3208 68.7649L87.5026 91.8786L91.4491 92.5305ZM93.294 71.0909H97.5213V67.0909H93.294V71.0909ZM95.5484 68.7631L91.7643 91.5358L95.7102 92.1915L99.4943 69.4187L95.5484 68.7631ZM91.7623 91.5477C91.4441 93.5367 91.5788 95.4312 92.2734 97.1603L95.9851 95.6693C95.6115 94.7392 95.4849 93.5996 95.7121 92.1796L91.7623 91.5477ZM92.2756 97.1658C92.9782 98.8998 94.1718 100.27 95.7889 101.246L97.856 97.8218C96.9504 97.2752 96.3485 96.5661 95.9829 95.6637L92.2756 97.1658ZM95.8071 101.257C97.4698 102.237 99.4556 102.659 101.646 102.659V98.6591C99.9506 98.6591 98.7205 98.3312 97.8378 97.811L95.8071 101.257ZM101.646 102.659C103.851 102.659 105.894 102.232 107.729 101.328L105.961 97.7399C104.751 98.3361 103.328 98.6591 101.646 98.6591V102.659ZM107.74 101.323C109.536 100.425 111.029 99.1788 112.181 97.5878L108.941 95.2418C108.184 96.2872 107.199 97.1209 105.951 97.7452L107.74 101.323ZM112.179 97.5903C113.339 95.9934 114.074 94.1786 114.394 92.1796L110.444 91.5477C110.219 92.9577 109.715 94.1771 108.943 95.2393L112.179 97.5903ZM114.392 92.1915L118.176 69.4187L114.23 68.7631L110.446 91.5358L114.392 92.1915ZM123.077 104L121.104 103.672L120.717 106H123.077V104ZM128.872 69.0909V67.0909H127.177L126.899 68.7634L128.872 69.0909ZM147.145 70.4716L146.143 72.2027L146.149 72.2058L147.145 70.4716ZM150.401 74.2727L148.514 74.937L148.518 74.9488L150.401 74.2727ZM150.759 79.7955L152.731 80.1243L152.732 80.1207L150.759 79.7955ZM148.577 85.25L146.938 84.1031L146.933 84.111L148.577 85.25ZM144.077 89L143.213 87.1963L143.208 87.1983L144.077 89ZM127.645 90.3636L125.676 90.0121L125.256 92.3636H127.645V90.3636ZM128.327 86.5455V84.5455H126.652L126.358 86.1939L128.327 86.5455ZM142.372 85.7273L141.56 83.8996L141.56 83.8996L142.372 85.7273ZM145.236 83.392L143.577 82.2741L143.577 82.2741L145.236 83.392ZM146.599 79.7955L148.573 80.119L148.574 80.1139L146.599 79.7955ZM146.412 76.1307L144.51 76.7507L144.515 76.7632L144.519 76.7756L146.412 76.1307ZM144.315 73.7102L143.346 75.4594L143.357 75.4657L143.368 75.4718L144.315 73.7102ZM132.486 72.8409V70.8409H130.791L130.513 72.5128L132.486 72.8409ZM127.304 104V106H128.999L129.277 104.328L127.304 104ZM142.099 88.3182L143.967 87.6035L143.476 86.3182H142.099V88.3182ZM148.099 104V106H151.006L149.967 103.285L148.099 104ZM143.19 104L141.317 104.7L141.803 106H143.19V104ZM137.327 88.3182V86.3182H134.444L135.453 89.0186L137.327 88.3182ZM125.05 104.328L130.845 69.4185L126.899 68.7634L121.104 103.672L125.05 104.328ZM128.872 71.0909H140.668V67.0909H128.872V71.0909ZM140.668 71.0909C143.201 71.0909 144.969 71.5236 146.143 72.2027L148.146 68.7405C146.138 67.5787 143.588 67.0909 140.668 67.0909V71.0909ZM146.149 72.2058C147.372 72.9083 148.118 73.8127 148.514 74.937L152.287 73.6085C151.547 71.5055 150.123 69.8757 148.141 68.7374L146.149 72.2058ZM148.518 74.9488C148.96 76.1778 149.083 77.6639 148.785 79.4702L152.732 80.1207C153.116 77.7907 153.001 75.5949 152.283 73.5967L148.518 74.9488ZM148.786 79.4667C148.49 81.2383 147.869 82.7729 146.938 84.1031L150.215 86.3969C151.511 84.5453 152.345 82.4436 152.731 80.1243L148.786 79.4667ZM146.933 84.111C146.045 85.3918 144.825 86.4238 143.213 87.1963L144.941 90.8037C147.124 89.758 148.904 88.2901 150.221 86.389L146.933 84.111ZM143.208 87.1983C141.66 87.9446 139.679 88.3636 137.19 88.3636V92.3636C140.111 92.3636 142.721 91.8736 144.945 90.8017L143.208 87.1983ZM137.19 88.3636H127.645V92.3636H137.19V88.3636ZM129.614 90.7152L130.296 86.897L126.358 86.1939L125.676 90.0121L129.614 90.7152ZM128.327 88.5455H137.736V84.5455H128.327V88.5455ZM137.736 88.5455C139.778 88.5455 141.623 88.249 143.184 87.5549L141.56 83.8996C140.667 84.2964 139.421 84.5455 137.736 84.5455V88.5455ZM143.184 87.5549C144.719 86.8729 145.982 85.8637 146.894 84.51L143.577 82.2741C143.126 82.9431 142.48 83.4907 141.56 83.8996L143.184 87.5549ZM146.894 84.51C147.76 83.226 148.306 81.7468 148.573 80.119L144.626 79.4719C144.438 80.6169 144.075 81.5354 143.577 82.2741L146.894 84.51ZM148.574 80.1139C148.838 78.4776 148.79 76.9098 148.305 75.4858L144.519 76.7756C144.738 77.4197 144.816 78.2951 144.625 79.477L148.574 80.1139ZM148.313 75.5106C147.798 73.9294 146.727 72.7362 145.262 71.9487L143.368 75.4718C144.017 75.8206 144.344 76.241 144.51 76.7507L148.313 75.5106ZM145.285 71.961C143.819 71.1483 141.966 70.8409 139.918 70.8409V74.8409C141.642 74.8409 142.721 75.113 143.346 75.4594L145.285 71.961ZM139.918 70.8409H132.486V74.8409H139.918V70.8409ZM130.513 72.5128L125.331 103.672L129.277 104.328L134.459 73.169L130.513 72.5128ZM127.304 102H123.077V106H127.304V102ZM140.231 89.0329L146.231 104.715L149.967 103.285L143.967 87.6035L140.231 89.0329ZM148.099 102H143.19V106H148.099V102ZM145.064 103.3L139.2 87.6177L135.453 89.0186L141.317 104.7L145.064 103.3ZM137.327 90.3182H142.099V86.3182H137.327V90.3182ZM177.166 78.0909H175.166V80.0909H177.166V78.0909ZM175.308 73.8295L174.069 75.3997L174.078 75.4067L175.308 73.8295ZM166.104 73.1136L166.852 74.9682L166.852 74.9682L166.104 73.1136ZM163.07 75.1761L164.559 76.5109L164.559 76.5109L163.07 75.1761ZM161.621 78.1591L159.647 77.8368L159.645 77.8459L161.621 78.1591ZM161.911 80.5625L160.128 81.469L160.134 81.4813L161.911 80.5625ZM163.359 82.2159L162.203 83.8474L162.219 83.8593L162.236 83.8709L163.359 82.2159ZM165.405 83.2898L164.677 85.1527L164.69 85.1576L164.703 85.1624L165.405 83.2898ZM167.416 83.9545L167.955 82.0286L167.951 82.0275L167.416 83.9545ZM170.825 84.9091L170.286 86.835L170.286 86.835L170.825 84.9091ZM173.672 85.8977L172.926 87.7533L172.926 87.7533L173.672 85.8977ZM176.604 87.6193L175.354 89.1811L175.36 89.1858L175.366 89.1906L176.604 87.6193ZM178.683 90.3807L176.842 91.1618L176.845 91.1696L176.849 91.1775L178.683 90.3807ZM179.007 94.5227L180.979 94.8554L180.98 94.8515L179.007 94.5227ZM176.672 99.6364L175.12 98.3743L175.115 98.3813L176.672 99.6364ZM171.797 103.267L170.986 101.439L170.982 101.441L171.797 103.267ZM158.45 103.403L157.59 105.209L157.595 105.211L158.45 103.403ZM154.7 100.028L152.949 100.994L152.955 101.004L154.7 100.028ZM153.78 95V93H151.961L151.789 94.8104L153.78 95ZM158.143 95L160.136 95.1718L160.323 93H158.143V95ZM158.928 98.2727L157.317 99.4591L157.325 99.4693L158.928 98.2727ZM161.587 100.182L160.893 102.058L160.901 102.061L160.909 102.064L161.587 100.182ZM169.837 100.011L170.553 101.879L170.561 101.876L169.837 100.011ZM173.246 97.7955L171.797 96.4161L171.797 96.4166L173.246 97.7955ZM174.916 94.4545L172.947 94.107L172.944 94.1221L172.942 94.1372L174.916 94.4545ZM174.439 91.625L172.815 92.7923L172.815 92.7923L174.439 91.625ZM172.172 89.8523L171.336 91.6694L171.336 91.6694L172.172 89.8523ZM168.916 88.6591L168.341 90.5747L168.352 90.5778L168.362 90.5807L168.916 88.6591ZM164.825 87.4318L164.246 89.3461L164.251 89.3475L164.825 87.4318ZM158.911 84.0739L157.44 85.4295L157.446 85.4356L158.911 84.0739ZM157.462 78.3636L155.491 78.02L155.489 78.0344L155.487 78.0488L157.462 78.3636ZM159.933 73.25L161.421 74.5867L161.426 74.5809L159.933 73.25ZM164.791 69.8409L165.562 71.6864L165.571 71.6825L164.791 69.8409ZM176.808 69.8409L175.899 71.6221L175.909 71.6272L176.808 69.8409ZM180.388 73.1989L178.634 74.1595L178.637 74.1654L180.388 73.1989ZM181.257 78.0909V80.0909H183.047L183.245 78.3118L181.257 78.0909ZM179.166 78.0909C179.166 75.7331 178.359 73.6724 176.538 72.2524L174.078 75.4067C174.735 75.9185 175.166 76.6987 175.166 78.0909H179.166ZM176.547 72.2594C174.852 70.9221 172.691 70.3636 170.28 70.3636V74.3636C172.096 74.3636 173.287 74.7824 174.069 75.3997L176.547 72.2594ZM170.28 70.3636C168.518 70.3636 166.866 70.6491 165.355 71.259L166.852 74.9682C167.819 74.5781 168.951 74.3636 170.28 74.3636V70.3636ZM165.355 71.259C163.872 71.8577 162.595 72.7094 161.58 73.8414L164.559 76.5109C165.113 75.8928 165.858 75.3696 166.852 74.9682L165.355 71.259ZM161.58 73.8414C160.552 74.9884 159.893 76.3304 159.647 77.8368L163.595 78.4814C163.712 77.7605 164.019 77.1139 164.559 76.5109L161.58 73.8414ZM159.645 77.8459C159.449 79.0874 159.552 80.3362 160.128 81.469L163.693 79.656C163.587 79.4479 163.497 79.0944 163.596 78.4723L159.645 77.8459ZM160.134 81.4813C160.627 82.4334 161.326 83.2257 162.203 83.8474L164.516 80.5844C164.143 80.3197 163.876 80.0098 163.687 79.6437L160.134 81.4813ZM162.236 83.8709C162.998 84.3878 163.813 84.8151 164.677 85.1527L166.133 81.4269C165.542 81.1963 164.993 80.9076 164.482 80.561L162.236 83.8709ZM164.703 85.1624C165.473 85.4514 166.2 85.6925 166.881 85.8816L167.951 82.0275C167.405 81.8757 166.791 81.6736 166.107 81.4171L164.703 85.1624ZM166.877 85.8805L170.286 86.835L171.365 82.9832L167.955 82.0286L166.877 85.8805ZM170.286 86.835C171.052 87.0495 171.931 87.3531 172.926 87.7533L174.418 84.0422C173.322 83.6014 172.303 83.2459 171.365 82.9832L170.286 86.835ZM172.926 87.7533C173.784 88.0985 174.593 88.5717 175.354 89.1811L177.853 86.0576C176.797 85.2124 175.651 84.5379 174.418 84.0422L172.926 87.7533ZM175.366 89.1906C175.996 89.6864 176.489 90.3288 176.842 91.1618L180.524 89.5996C179.923 88.1825 179.03 86.9841 177.841 86.048L175.366 89.1906ZM176.849 91.1775C177.138 91.844 177.265 92.8078 177.034 94.1939L180.98 94.8515C181.294 92.965 181.205 91.1673 180.518 89.5839L176.849 91.1775ZM177.035 94.1901C176.776 95.7263 176.147 97.1125 175.12 98.3743L178.223 100.898C179.674 99.1148 180.602 97.0919 180.979 94.8554L177.035 94.1901ZM175.115 98.3813C174.112 99.6256 172.756 100.653 170.986 101.439L172.608 105.095C174.883 104.086 176.777 102.693 178.229 100.891L175.115 98.3813ZM170.982 101.441C169.276 102.202 167.218 102.614 164.757 102.614V106.614C167.66 106.614 170.295 106.128 172.612 105.093L170.982 101.441ZM164.757 102.614C162.461 102.614 160.671 102.242 159.306 101.596L157.595 105.211C159.639 106.179 162.053 106.614 164.757 106.614V102.614ZM159.311 101.598C157.939 100.944 157.024 100.087 156.446 99.0525L152.955 101.004C153.99 102.856 155.575 104.249 157.59 105.209L159.311 101.598ZM156.452 99.063C155.881 98.0269 155.621 96.7657 155.771 95.1896L151.789 94.8104C151.575 97.0525 151.929 99.1436 152.949 100.994L156.452 99.063ZM153.78 97H158.143V93H153.78V97ZM156.151 94.8282C156.006 96.513 156.33 98.1187 157.317 99.4591L160.538 97.0863C160.253 96.6995 160.054 96.1234 160.136 95.1718L156.151 94.8282ZM157.325 99.4693C158.223 100.672 159.446 101.522 160.893 102.058L162.281 98.3061C161.455 98.0004 160.905 97.5776 160.53 97.0761L157.325 99.4693ZM160.909 102.064C162.292 102.562 163.787 102.795 165.371 102.795V98.7955C164.182 98.7955 163.154 98.6203 162.264 98.3L160.909 102.064ZM165.371 102.795C167.203 102.795 168.938 102.498 170.553 101.879L169.121 98.1439C168.008 98.5703 166.765 98.7955 165.371 98.7955V102.795ZM170.561 101.876C172.174 101.249 173.568 100.357 174.694 99.1743L171.797 96.4166C171.128 97.1199 170.25 97.7053 169.112 98.1471L170.561 101.876ZM174.694 99.1748C175.875 97.9346 176.621 96.4532 176.891 94.7719L172.942 94.1372C172.803 95.0014 172.435 95.7472 171.797 96.4161L174.694 99.1748ZM176.886 94.8021C177.153 93.286 176.99 91.7479 176.063 90.4577L172.815 92.7923C172.933 92.9567 173.088 93.3049 172.947 94.107L176.886 94.8021ZM176.063 90.4577C175.299 89.3946 174.243 88.6034 173.007 88.0351L171.336 91.6694C172.078 92.0102 172.534 92.4009 172.815 92.7923L176.063 90.4577ZM173.007 88.0351C171.917 87.5338 170.736 87.1026 169.471 86.7374L168.362 90.5807C169.46 90.8974 170.45 91.2617 171.336 91.6694L173.007 88.0351ZM169.491 86.7434L165.4 85.5162L164.251 89.3475L168.341 90.5747L169.491 86.7434ZM165.405 85.5176C163.034 84.8003 161.414 83.8299 160.375 82.7121L157.446 85.4356C159.111 87.227 161.434 88.4952 164.246 89.3461L165.405 85.5176ZM160.381 82.7183C159.541 81.8071 159.136 80.5634 159.437 78.6785L155.487 78.0488C155.037 80.8685 155.598 83.4315 157.44 85.4295L160.381 82.7183ZM159.432 78.7073C159.709 77.1167 160.369 75.7577 161.421 74.5866L158.445 71.9134C156.884 73.6514 155.896 75.7015 155.491 78.02L159.432 78.7073ZM161.426 74.5809C162.521 73.353 163.888 72.3857 165.562 71.6864L164.02 67.9954C161.831 68.9098 159.959 70.2152 158.44 71.9191L161.426 74.5809ZM165.571 71.6825C167.241 70.9752 169.054 70.6136 171.03 70.6136V66.6136C168.551 66.6136 166.205 67.0702 164.011 67.9993L165.571 71.6825ZM171.03 70.6136C173.041 70.6136 174.64 70.9793 175.899 71.6221L177.718 68.0597C175.772 67.0662 173.519 66.6136 171.03 66.6136V70.6136ZM175.909 71.6272C177.186 72.2706 178.063 73.1182 178.634 74.1595L182.142 72.2382C181.144 70.4159 179.635 69.0248 177.708 68.0546L175.909 71.6272ZM178.637 74.1654C179.194 75.1743 179.435 76.3796 179.269 77.87L183.245 78.3118C183.488 76.1204 183.15 74.0643 182.139 72.2323L178.637 74.1654ZM181.257 76.0909H177.166V80.0909H181.257V76.0909ZM184.389 104L182.416 103.672L182.03 106H184.389V104ZM190.185 69.0909V67.0909H188.489L188.212 68.7634L190.185 69.0909ZM211.253 69.0909L213.227 69.4139L213.607 67.0909H211.253V69.0909ZM210.639 72.8409V74.8409H212.339L212.613 73.1639L210.639 72.8409ZM193.798 72.8409V70.8409H192.106L191.826 72.5103L193.798 72.8409ZM191.821 84.6364L189.849 84.3057L189.458 86.6364H191.821V84.6364ZM207.571 84.6364L209.545 84.9593L209.925 82.6364H207.571V84.6364ZM206.957 88.3864V90.3864H208.657L208.931 88.7093L206.957 88.3864ZM191.207 88.3864V86.3864H189.513L189.235 88.0576L191.207 88.3864ZM189.23 100.25L187.257 99.9212L186.869 102.25H189.23V100.25ZM206.344 100.25L208.317 100.573L208.698 98.25H206.344V100.25ZM205.73 104V106H207.429L207.704 104.323L205.73 104ZM186.362 104.328L192.158 69.4185L188.212 68.7634L182.416 103.672L186.362 104.328ZM190.185 71.0909H211.253V67.0909H190.185V71.0909ZM209.279 68.7679L208.665 72.5179L212.613 73.1639L213.227 69.4139L209.279 68.7679ZM210.639 70.8409H193.798V74.8409H210.639V70.8409ZM191.826 72.5103L189.849 84.3057L193.794 84.967L195.771 73.1716L191.826 72.5103ZM191.821 86.6364H207.571V82.6364H191.821V86.6364ZM205.597 84.3134L204.984 88.0634L208.931 88.7093L209.545 84.9593L205.597 84.3134ZM206.957 86.3864H191.207V90.3864H206.957V86.3864ZM189.235 88.0576L187.257 99.9212L191.203 100.579L193.18 88.7152L189.235 88.0576ZM189.23 102.25H206.344V98.25H189.23V102.25ZM204.37 99.927L203.756 103.677L207.704 104.323L208.317 100.573L204.37 99.927ZM205.73 102H184.389V106H205.73V102Z" fill="#D6D6D6"/>
</g>
<defs>
<filter id="filter0_d_3_7" x="12.6619" y="10.6136" width="202.591" height="102" filterUnits="userSpaceOnUse" color-interpolation-filters="sRGB">
<feFlood flood-opacity="0" result="BackgroundImageFix"/>
<feColorMatrix in="SourceAlpha" type="matrix" values="0 0 0 0 0 0 0 0 0 0 0 0 0 0 0 0 0 0 127 0" result="hardAlpha"/>
<feOffset dy="4"/>
<feGaussianBlur stdDeviation="2"/>
<feComposite in2="hardAlpha" operator="out"/>
<feColorMatrix type="matrix" values="0 0 0 0 0 0 0 0 0 0 0 0 0 0 0 0 0 0 0.25 0"/>
<feBlend mode="normal" in2="BackgroundImageFix" result="effect1_dropShadow_3_7"/>
<feBlend mode="normal" in="SourceGraphic" in2="effect1_dropShadow_3_7" result="shape"/>
</filter>
</defs>
</svg>
