<svg width="107" height="23" viewBox="0 0 107 23" fill="none" xmlns="http://www.w3.org/2000/svg">
<path d="M8.9726 0.459178C11.2433 0.459178 13.2276 0.909223 14.9255 1.80931C16.6234 2.70941 17.9326 3.97772 18.8532 5.61425C19.7942 7.23032 20.2647 9.1021 20.2647 11.2296C20.2647 13.3366 19.7942 15.2084 18.8532 16.8449C17.9326 18.4815 16.6132 19.7498 14.8948 20.6499C13.1969 21.55 11.2228 22 8.9726 22H0.902466V0.459178H8.9726ZM8.63507 17.4586C10.6194 17.4586 12.1638 16.9165 13.2685 15.8323C14.3732 14.7481 14.9255 13.2139 14.9255 11.2296C14.9255 9.2453 14.3732 7.70082 13.2685 6.59616C12.1638 5.49151 10.6194 4.93918 8.63507 4.93918H6.14959V17.4586H8.63507ZM28.4441 4.66301V9.02027H35.471V13.0707H28.4441V17.7962H36.3915V22H23.197V0.459178H36.3915V4.66301H28.4441ZM38.9081 11.1989C38.9081 9.07141 39.3684 7.17918 40.289 5.52219C41.2095 3.84475 42.4881 2.54575 44.1246 1.6252C45.7816 0.6842 47.6534 0.213698 49.7399 0.213698C52.297 0.213698 54.4859 0.888766 56.3065 2.2389C58.1271 3.58904 59.3443 5.43014 59.958 7.76219H54.1892C53.7597 6.8621 53.146 6.1768 52.3481 5.7063C51.5708 5.2358 50.6809 5.00055 49.6786 5.00055C48.0625 5.00055 46.7533 5.5631 45.7509 6.68822C44.7485 7.81333 44.2473 9.31689 44.2473 11.1989C44.2473 13.0809 44.7485 14.5845 45.7509 15.7096C46.7533 16.8347 48.0625 17.3973 49.6786 17.3973C50.6809 17.3973 51.5708 17.162 52.3481 16.6915C53.146 16.221 53.7597 15.5357 54.1892 14.6356H59.958C59.3443 16.9677 58.1271 18.8088 56.3065 20.1589C54.4859 21.4886 52.297 22.1534 49.7399 22.1534C47.6534 22.1534 45.7816 21.6932 44.1246 20.7726C42.4881 19.8316 41.2095 18.5326 40.289 16.8756C39.3684 15.2186 38.9081 13.3264 38.9081 11.1989ZM73.3587 22.2148C71.3335 22.2148 69.4719 21.7443 67.774 20.8033C66.0966 19.8623 64.7567 18.5531 63.7543 16.8756C62.7724 15.1777 62.2814 13.2753 62.2814 11.1682C62.2814 9.06119 62.7724 7.16895 63.7543 5.49151C64.7567 3.81406 66.0966 2.50484 67.774 1.56384C69.4719 0.622831 71.3335 0.152329 73.3587 0.152329C75.3839 0.152329 77.2352 0.622831 78.9127 1.56384C80.6106 2.50484 81.9402 3.81406 82.9017 5.49151C83.8836 7.16895 84.3746 9.06119 84.3746 11.1682C84.3746 13.2753 83.8836 15.1777 82.9017 16.8756C81.9198 18.5531 80.5901 19.8623 78.9127 20.8033C77.2352 21.7443 75.3839 22.2148 73.3587 22.2148ZM73.3587 17.4279C75.0771 17.4279 76.4476 16.8552 77.4705 15.7096C78.5138 14.564 79.0354 13.0502 79.0354 11.1682C79.0354 9.26575 78.5138 7.75196 77.4705 6.62685C76.4476 5.48128 75.0771 4.90849 73.3587 4.90849C71.6199 4.90849 70.2288 5.47105 69.1855 6.59616C68.1627 7.72128 67.6513 9.2453 67.6513 11.1682C67.6513 13.0707 68.1627 14.5947 69.1855 15.7403C70.2288 16.8654 71.6199 17.4279 73.3587 17.4279ZM106.564 22H101.317L92.5409 8.71342V22H87.2937V0.459178H92.5409L101.317 13.8071V0.459178H106.564V22Z" fill="url(#paint0_linear_12_417)"/>
<defs>
<linearGradient id="paint0_linear_12_417" x1="-0.999999" y1="11" x2="105.5" y2="11" gradientUnits="userSpaceOnUse">
<stop stop-color="#FFD100"/>
<stop offset="0.46875" stop-color="#FFEE32"/>
<stop offset="1" stop-color="#D6D6D6"/>
</linearGradient>
</defs>
</svg>
