<svg width="82" height="82" viewBox="0 0 82 82" fill="none" xmlns="http://www.w3.org/2000/svg">
<path d="M54.1162 21.3265H58.4877V23.5122H54.1162V21.3265Z" fill="#FFD100"/>
<path d="M45.3721 21.3265H49.7436V23.5122H45.3721V21.3265Z" fill="#FFD100"/>
<path d="M36.6279 21.3265H40.9994V23.5122H36.6279V21.3265Z" fill="#FFD100"/>
<path d="M27.8848 21.3265H32.2563V23.5122H27.8848V21.3265Z" fill="#FFD100"/>
<path d="M21.3271 23.5124H23.5129V27.8839H21.3271V23.5124Z" fill="#FFD100"/>
<path d="M21.3271 32.2562H23.5129V36.6277H21.3271V32.2562Z" fill="#FFD100"/>
<path d="M21.3271 41H23.5129V45.3715H21.3271V41Z" fill="#FFD100"/>
<path d="M21.3271 49.7438H23.5129V54.1153H21.3271V49.7438Z" fill="#FFD100"/>
<path d="M23.5127 58.4876H27.8842V60.6733H23.5127V58.4876Z" fill="#FFD100"/>
<path d="M32.2568 58.4876H36.6283V60.6733H32.2568V58.4876Z" fill="#FFD100"/>
<path d="M41 58.4876H45.3715V60.6733H41V58.4876Z" fill="#FFD100"/>
<path d="M49.7441 58.4876H54.1156V60.6733H49.7441V58.4876Z" fill="#FFD100"/>
<path d="M58.4873 54.1157H60.6731V58.4872H58.4873V54.1157Z" fill="#FFD100"/>
<path d="M58.4873 45.3719H60.6731V49.7434H58.4873V45.3719Z" fill="#FFD100"/>
<path d="M58.4873 36.6281H60.6731V40.9996H58.4873V36.6281Z" fill="#FFD100"/>
<path d="M58.4873 27.8843H60.6731V32.2558H58.4873V27.8843Z" fill="#FFD100"/>
<path d="M25.917 56.083H56.083V25.917H25.917V56.083ZM28.1027 39.6884C31.0212 39.5138 39.852 39.6884 43.831 47.503C42.0813 49.3297 40.7434 51.5093 39.907 53.8965H28.1035L28.1027 39.6884ZM42.246 53.8973V53.8965C43.1403 51.4781 44.7169 49.3702 46.7846 47.8301C48.853 46.2893 51.3239 45.3828 53.8969 45.2189V53.8965L42.246 53.8973ZM53.8969 28.1031V42.9996C50.858 43.1192 47.9281 44.1683 45.5029 46.0056C41.0002 37.7863 31.4915 37.3707 28.1035 37.5132V28.1029L53.8969 28.1031Z" fill="#FFD100"/>
<path d="M47.3512 40.0827C48.5687 40.0827 49.7368 39.5986 50.5975 38.7378C51.4582 37.8771 51.9416 36.7098 51.9416 35.4923C51.9416 34.2747 51.4582 33.1067 50.5975 32.246C49.7367 31.3852 48.5686 30.9019 47.3512 30.9019C46.1336 30.9019 44.9663 31.3852 44.1056 32.246C43.2441 33.1067 42.7607 34.2748 42.7607 35.4923C42.7638 36.7083 43.2479 37.8748 44.1087 38.7347C44.9686 39.5947 46.1344 40.0796 47.3511 40.0826L47.3512 40.0827ZM47.3512 33.0877C48.324 33.0877 49.2007 33.6732 49.5728 34.5721C49.9449 35.4702 49.739 36.5047 49.0513 37.1925C48.3637 37.8801 47.3298 38.086 46.4309 37.7132C45.5328 37.3411 44.9465 36.4644 44.9465 35.4923C44.9526 34.1665 46.0261 33.0938 47.3511 33.0878L47.3512 33.0877Z" fill="#FFD100"/>
<path d="M42.093 73.3949V63.4051H39.9064V73.3949C38.5211 73.7525 37.3981 74.7657 36.9004 76.1074C36.4033 77.4493 36.5939 78.9496 37.4112 80.1245C38.2285 81.2993 39.5688 82 40.9998 82C42.4308 82 43.7711 81.2994 44.5885 80.1245C45.4058 78.9497 45.5964 77.4493 45.0993 76.1074C44.6014 74.7656 43.4784 73.7525 42.0932 73.3949H42.093ZM40.9997 79.7997C40.1153 79.7997 39.3186 79.2668 38.98 78.4503C38.6415 77.633 38.8291 76.693 39.4542 76.0678C40.0794 75.4426 41.0194 75.2558 41.8359 75.5943C42.6532 75.9321 43.1854 76.7296 43.1854 77.614C43.1854 78.1934 42.9551 78.7492 42.545 79.1594C42.1356 79.5696 41.579 79.7998 40.9996 79.7998L40.9997 79.7997Z" fill="#FFD100"/>
<path d="M58.8488 68.2482C57.882 68.2512 56.9435 68.5745 56.1796 69.1676C55.4164 69.7608 54.8713 70.591 54.6296 71.5265H52.8044C52.2006 71.5265 51.7111 71.0378 51.7111 70.434V63.4062H49.5254V70.434C49.5254 71.3031 49.8708 72.1372 50.486 72.7524C51.1005 73.3677 51.9346 73.7131 52.8045 73.7131H54.6297C54.9041 74.7743 55.5667 75.6945 56.4876 76.2907C57.4086 76.8862 58.5194 77.1141 59.6004 76.9288C60.6815 76.7443 61.6529 76.1596 62.3229 75.2912C62.9931 74.4236 63.3125 73.335 63.218 72.2424C63.1234 71.1499 62.6218 70.1328 61.8121 69.3933C61.0032 68.653 59.945 68.2443 58.8486 68.2481L58.8488 68.2482ZM58.8488 74.8064V74.8056C57.9644 74.8056 57.1677 74.2735 56.8291 73.4562C56.4906 72.6397 56.6774 71.6996 57.3026 71.0745C57.9277 70.4494 58.8685 70.2618 59.685 70.6003C60.5016 70.9388 61.0345 71.7355 61.0345 72.6199C61.0345 73.1994 60.8042 73.7559 60.3941 74.1653C59.9839 74.5755 59.4281 74.8057 58.8487 74.8057L58.8488 74.8064Z" fill="#FFD100"/>
<path d="M30.2892 70.4341C30.2892 70.7238 30.174 71.0021 29.969 71.2072C29.7639 71.4115 29.4856 71.5266 29.1959 71.5266H27.3707C27.0132 70.1413 25.9999 69.0183 24.6582 68.5206C23.3164 68.0235 21.8161 68.2141 20.6411 69.0314C19.4662 69.8487 18.7656 71.189 18.7656 72.62C18.7656 74.051 19.4663 75.3913 20.6411 76.2087C21.816 77.0261 23.3164 77.2166 24.6582 76.7195C26 76.2217 27.0132 75.0986 27.3707 73.7134H29.1959C30.0658 73.7134 30.8999 73.3681 31.5144 72.7528C32.1296 72.1376 32.475 71.3035 32.475 70.4343V63.4065H30.2892L30.2892 70.4341ZM23.1524 74.8056H23.1517C22.2681 74.8056 21.4706 74.2735 21.132 73.4562C20.7943 72.6397 20.9811 71.6996 21.6062 71.0745C22.2314 70.4493 23.1714 70.2617 23.9887 70.6003C24.8053 70.9388 25.3382 71.7355 25.3382 72.6199C25.3382 73.1993 25.1072 73.7559 24.6978 74.1653C24.2876 74.5755 23.7318 74.8057 23.1516 74.8057L23.1524 74.8056Z" fill="#FFD100"/>
<path d="M4.38565 36.6281C3.28933 36.6243 2.23113 37.0329 1.42214 37.7732C0.612482 38.5128 0.110806 39.5298 0.0162832 40.6224C-0.0782394 41.715 0.241183 42.8036 0.911331 43.6712C1.58148 44.5396 2.55278 45.1236 3.63381 45.3088C4.71484 45.4941 5.82561 45.2661 6.74663 44.6699C7.66762 44.0745 8.33013 43.1543 8.60459 42.0931H18.5944V39.9065H8.60459C8.3629 38.9711 7.8178 38.1408 7.05464 37.5477C6.29071 36.9545 5.35295 36.6313 4.38544 36.6282L4.38565 36.6281ZM4.38565 43.1863V43.1856C3.50204 43.1856 2.70457 42.6534 2.366 41.8361C2.02825 41.0196 2.21504 40.0796 2.84021 39.4544C3.46538 38.8293 4.40541 38.6417 5.2227 38.9802C6.03923 39.3187 6.57215 40.1154 6.57215 40.9999C6.57215 41.5793 6.3419 42.1358 5.93174 42.5453C5.52156 42.9554 4.96579 43.1857 4.3856 43.1857L4.38565 43.1863Z" fill="#FFD100"/>
<path d="M8.28729 52.8041V54.6293C6.902 54.9868 5.77892 56.0001 5.28122 57.3418C4.78414 58.6836 4.97474 60.1839 5.79203 61.3589C6.60932 62.5338 7.94968 63.2344 9.38069 63.2344C10.8117 63.2344 12.152 62.5337 12.9693 61.3589C13.7867 60.184 13.9772 58.6836 13.4802 57.3418C12.9823 56 11.8593 54.9868 10.4741 54.6293V52.8041C10.4741 52.2003 10.9628 51.7108 11.5666 51.7108H18.5944V49.5251H11.5666C10.6975 49.5251 9.86341 49.8704 9.24815 50.4857C8.6329 51.1002 8.28752 51.9342 8.28752 52.8042L8.28729 52.8041ZM11.5664 58.8484C11.5664 59.732 11.0342 60.5295 10.2169 60.8681C9.40042 61.2058 8.46039 61.019 7.83525 60.3939C7.21009 59.7687 7.02252 58.8287 7.36103 58.0114C7.69954 57.1949 8.49624 56.6619 9.38069 56.6619C9.96012 56.6619 10.5167 56.8929 10.9261 57.3023C11.3363 57.7125 11.5665 58.2683 11.5665 58.8485L11.5664 58.8484Z" fill="#FFD100"/>
<path d="M10.4731 29.1959V27.3707C11.8584 27.0132 12.9815 25.9999 13.4792 24.6582C13.9763 23.3164 13.7857 21.8161 12.9684 20.6411C12.1511 19.4662 10.8107 18.7656 9.37974 18.7656C7.94872 18.7656 6.60847 19.4663 5.79108 20.6411C4.97369 21.816 4.78318 23.3164 5.28027 24.6582C5.77812 26 6.90113 27.0132 8.28634 27.3707V29.1959C8.28634 30.0658 8.6317 30.8999 9.24696 31.5144C9.86221 32.1296 10.6963 32.475 11.5654 32.475H18.5932V30.2892H11.5654C10.9616 30.2892 10.4729 29.7998 10.4729 29.196L10.4731 29.1959ZM7.19403 23.1516C7.19403 22.268 7.72619 21.4705 8.54348 21.1319C9.36001 20.7942 10.3 20.981 10.9252 21.6061C11.5503 22.2313 11.7379 23.1713 11.3994 23.9886C11.0609 24.8051 10.2642 25.3381 9.37974 25.3381C8.1721 25.3381 7.19399 24.3591 7.19399 23.1515L7.19403 23.1516Z" fill="#FFD100"/>
<path d="M39.9077 8.60509V18.5949H42.0934L42.0942 8.60509C43.4795 8.24753 44.6026 7.2343 45.1003 5.89256C45.5974 4.55075 45.4067 3.05045 44.5895 1.8755C43.7722 0.700653 42.4318 0 41.0008 0C39.5698 0 38.2295 0.700634 37.4121 1.8755C36.5949 3.05035 36.4043 4.55075 36.9013 5.89256C37.3992 7.23438 38.5222 8.24753 39.9074 8.60509H39.9077ZM41.001 2.20027C41.8853 2.20027 42.6821 2.73319 43.0206 3.54972C43.3591 4.36701 43.1716 5.30704 42.5464 5.9322C41.9213 6.55736 40.9812 6.74416 40.1647 6.40566C39.3474 6.06791 38.8153 5.27045 38.8153 4.386C38.8153 3.17912 39.7934 2.20025 41.001 2.20025L41.001 2.20027Z" fill="#FFD100"/>
<path d="M23.1511 13.7518C24.1179 13.7488 25.0564 13.4255 25.8203 12.8324C26.5835 12.2392 27.1286 11.409 27.3703 10.4735H29.1955C29.4852 10.4735 29.7635 10.5886 29.9685 10.7929C30.1736 10.998 30.2887 11.2763 30.2887 11.566V18.5938H32.4745V11.566C32.4745 10.6969 32.1291 9.8628 31.5139 9.24754C30.8994 8.63229 30.0653 8.28691 29.1954 8.28691H27.3702C27.0958 7.22566 26.4332 6.30551 25.5123 5.70926C24.5913 5.11382 23.4805 4.88586 22.3994 5.07114C21.3183 5.25564 20.347 5.84039 19.677 6.70876C19.0068 7.57637 18.6874 8.66498 18.7819 9.75757C18.8765 10.8501 19.3781 11.8672 20.1878 12.6067C20.9967 13.347 22.0549 13.7556 23.1513 13.7518L23.1511 13.7518ZM23.1511 7.19359V7.19435C24.0355 7.19435 24.8322 7.72651 25.1708 8.5438C25.5093 9.36033 25.3225 10.3004 24.6974 10.9255C24.0722 11.5506 23.1314 11.7382 22.3149 11.3997C21.4983 11.0612 20.9654 10.2645 20.9654 9.38006C20.9654 8.17243 21.9443 7.19431 23.1512 7.19431L23.1511 7.19359Z" fill="#FFD100"/>
<path d="M58.8488 5.00882C57.8821 5.01187 56.9436 5.33513 56.1796 5.92826C55.4164 6.52141 54.8714 7.35166 54.6297 8.28713H52.8045C51.9346 8.28713 51.1005 8.63249 50.486 9.24775C49.8708 9.863 49.5254 10.6971 49.5254 11.5662V18.594H51.7111V11.5662C51.7111 10.9624 52.2006 10.4737 52.8044 10.4737H54.6296C54.9041 11.535 55.5666 12.4551 56.4876 13.0506C57.4085 13.6468 58.5193 13.8747 59.6004 13.6895C60.6815 13.5042 61.6528 12.9202 62.3229 12.0518C62.993 11.1842 63.3124 10.0956 63.2179 9.00303C63.1234 7.9105 62.6217 6.89339 61.8121 6.1531C61.0032 5.41357 59.9449 5.00493 58.8485 5.00874L58.8488 5.00882ZM58.8488 11.567V11.5663C57.9644 11.5663 57.1677 11.0341 56.8292 10.2168C56.4906 9.4003 56.6774 8.46027 57.3026 7.83513C57.9278 7.20999 58.8686 7.0224 59.6851 7.36091C60.5016 7.69942 61.0345 8.49612 61.0345 9.38057C61.0345 9.96 60.8043 10.5165 60.3941 10.926C59.984 11.3361 59.4282 11.5664 58.8488 11.5664L58.8488 11.567Z" fill="#FFD100"/>
<path d="M77.6152 36.6281C76.6477 36.6312 75.7099 36.9544 74.946 37.5476C74.1828 38.1407 73.6377 38.971 73.396 39.9064H63.4062V42.0922H73.396V42.0929C73.6705 43.1542 74.333 44.0743 75.254 44.6698C76.1749 45.266 77.2857 45.494 78.3668 45.3087C79.4479 45.1234 80.4192 44.5394 81.0893 43.6711C81.7594 42.8035 82.0789 41.7148 81.9843 40.6223C81.8898 39.5297 81.3881 38.5126 80.5785 37.7731C79.7696 37.0328 78.7113 36.6242 77.6149 36.628L77.6152 36.6281ZM77.6152 43.1863V43.1856C76.7308 43.1856 75.9333 42.6534 75.5955 41.8361C75.257 41.0196 75.4438 40.0796 76.069 39.4544C76.6941 38.8293 77.6342 38.6417 78.4514 38.9802C79.268 39.3187 79.8009 40.1154 79.8009 40.9999C79.8009 41.5793 79.5706 42.1358 79.1605 42.5452C78.7503 42.9554 78.1945 43.1856 77.6151 43.1856L77.6152 43.1863Z" fill="#FFD100"/>
<path d="M73.7134 29.1959V27.3707C75.0987 27.0132 76.2217 25.9999 76.7194 24.6582C77.2165 23.3164 77.0259 21.8161 76.2086 20.6411C75.3913 19.4662 74.051 18.7656 72.62 18.7656C71.189 18.7656 69.8487 19.4663 69.0313 20.6411C68.2139 21.816 68.0234 23.3164 68.5205 24.6582C69.0184 26 70.1414 27.0132 71.5266 27.3707V29.1959C71.5266 29.4856 71.4114 29.7639 71.2071 29.969C71.002 30.1741 70.7238 30.2892 70.4341 30.2892H63.4062V32.4749H70.4341C71.3032 32.4749 72.1373 32.1296 72.7525 31.5143C73.3678 30.8998 73.7132 30.0657 73.7132 29.1958L73.7134 29.1959ZM70.4343 23.1516C70.4343 22.268 70.9664 21.4705 71.7837 21.1319C72.6002 20.7942 73.5403 20.981 74.1654 21.6061C74.7906 22.2313 74.9781 23.1713 74.6396 23.9886C74.3011 24.8051 73.5044 25.3381 72.62 25.3381C71.4131 25.3381 70.4342 24.3591 70.4342 23.1515L70.4343 23.1516Z" fill="#FFD100"/>
<path d="M73.7132 54.629V52.8038C73.7132 51.9339 73.3678 51.0998 72.7525 50.4853C72.1373 49.8701 71.3032 49.5247 70.4341 49.5247H63.4062V51.7104H70.4341C70.7238 51.7104 71.0021 51.8256 71.2071 52.0306C71.4115 52.2357 71.5266 52.514 71.5266 52.8037V54.6289C70.1413 54.9865 69.0182 55.9997 68.5205 57.3414C68.0234 58.6832 68.214 60.1835 69.0313 61.3585C69.8486 62.5334 71.189 63.234 72.62 63.234C74.051 63.234 75.3912 62.5333 76.2086 61.3585C77.026 60.1836 77.2165 58.6832 76.7194 57.3414C76.2216 55.9996 75.0986 54.9865 73.7134 54.6289L73.7132 54.629ZM72.6199 61.0338C71.7355 61.0338 70.9388 60.5009 70.6002 59.6843C70.2616 58.8678 70.4493 57.927 71.0744 57.3019C71.6996 56.6767 72.6396 56.4899 73.4561 56.8284C74.2734 57.1669 74.8056 57.9636 74.8056 58.8481C74.8056 59.4275 74.5753 59.9833 74.1652 60.3934C73.7558 60.8036 73.1992 61.0338 72.6198 61.0338L72.6199 61.0338Z" fill="#FFD100"/>
</svg>
