<svg width="120" height="120" viewBox="0 0 120 120" fill="none" xmlns="http://www.w3.org/2000/svg">
<path d="M93.6185 27.469V27.2999C93.544 27.1509 93.4494 27.012 93.3373 26.8881L93.2435 26.7759V26.7751C93.1004 26.6378 92.9355 26.524 92.7564 26.4378L60.8817 11.4379C60.3769 11.201 59.7927 11.201 59.2879 11.4379L27.4132 26.4378C26.7553 26.7467 26.3359 27.4079 26.3359 28.1345C26.3359 28.8611 26.7553 29.5223 27.4132 29.8312L35.6254 33.7502V50.6251C35.6279 51.3307 36.0264 51.9761 36.6567 52.2941L59.1565 63.544C59.6662 63.7868 60.2588 63.7868 60.7686 63.544L81.3934 54.1691C82.0538 53.8728 82.4841 53.2233 82.5 52.5V34.6123L89.9999 31.0875V37.5002H88.125C87.0895 37.5002 86.25 38.3397 86.25 39.3752V50.6251C86.25 51.1223 86.4475 51.5994 86.7991 51.9509C87.1506 52.3025 87.6278 52.5 88.125 52.5H95.6249C96.1221 52.5 96.5992 52.3025 96.9508 51.9509C97.3023 51.5994 97.4999 51.1223 97.4999 50.6251V39.3752C97.4999 38.878 97.3023 38.4008 96.9508 38.0493C96.5992 37.6977 96.1221 37.5002 95.6249 37.5002H93.7499V28.1253C93.7457 27.9001 93.7014 27.6783 93.6185 27.469L93.6185 27.469ZM78.75 51.2995L60.0002 59.8124L39.3754 49.4623V35.4935L58.1252 44.3244V54.3747H61.8752V44.3252L78.75 36.3749V51.2995ZM56.2502 24.3748V31.8747H60.0002V29.9997H83.4943L60.0002 41.0437L32.5311 28.1247L60.0002 15.2058L83.4943 26.2498H60.0002V24.3748H56.2502ZM93.7499 48.7495H89.9999V41.2496H93.7499V48.7495Z" fill="#FFD100"/>
<path d="M59.9999 0C44.0868 0 28.8259 6.32137 17.5738 17.5738C6.32137 28.8255 0 44.0872 0 59.9999H3.74997C3.74997 45.0812 9.6762 30.7737 20.2247 20.2245C30.7739 9.67599 45.0817 3.74975 60.0001 3.74975C74.9185 3.74975 89.2263 9.67599 99.7755 20.2245C110.324 30.7737 116.25 45.0815 116.25 59.9999C116.25 74.9183 110.324 89.2261 99.7755 99.7753C89.2263 110.324 74.9185 116.25 60.0001 116.25V120C75.9132 120 91.1741 113.679 102.426 102.426C113.679 91.1745 120 75.9128 120 60.0001C120 44.0874 113.679 28.8261 102.426 17.5741C91.1746 6.32159 75.9128 0.000214284 60.0001 0.000214284L59.9999 0Z" fill="#FFD100"/>
<path d="M105 56.2495H108.75V59.9995H105V56.2495Z" fill="#FFD100"/>
<path d="M11.25 56.2495H15V59.9995H11.25V56.2495Z" fill="#FFD100"/>
<path d="M78.5615 82.4993C78.1681 84.7308 76.9494 88.1242 73.1241 88.1242H52.4993V91.8742H73.1241C80.624 91.8742 82.499 84.524 82.499 80.6243C82.499 80.1271 82.3014 79.65 81.9499 79.2984C81.5983 78.9469 81.1212 78.7493 80.624 78.7493H61.8742V74.2871L90.4489 59.9995H101.248V56.2495H89.9985C89.7047 56.2512 89.4159 56.3223 89.1547 56.4554L59.9993 71.0242L30.8438 56.4554C30.5827 56.3223 30.2939 56.2512 30.0001 56.2495H18.7502V59.9995H29.5497L58.1244 74.2871V78.7493H33.7496C33.2516 78.7468 32.772 78.9418 32.4187 79.2934L9.91895 101.793L12.5623 104.437L34.5179 82.4982L78.5615 82.4993Z" fill="#FFD100"/>
<path d="M81.9555 106.33L104.455 83.8299C111.43 76.8548 107.511 69.2235 104.455 66.1867C103.725 65.4593 102.544 65.4593 101.812 66.1867L84.9371 83.0615L87.5805 85.7049L102.974 70.3116H102.975C104.198 71.9346 104.757 73.9628 104.537 75.9826C104.318 78.0033 103.337 79.864 101.793 81.1865L79.8551 103.125H41.2497C40.7517 103.122 40.2721 103.317 39.9188 103.669L26.7939 116.794L29.4374 119.437L42.0182 106.875H80.6235C81.1216 106.877 81.6012 106.682 81.9544 106.331L81.9555 106.33Z" fill="#FFD100"/>
<path d="M45 88.1243H48.75V91.8742H45V88.1243Z" fill="#FFD100"/>
</svg>
