<svg width="63" height="82" viewBox="0 0 63 82" fill="none" xmlns="http://www.w3.org/2000/svg">
<path d="M62.4142 22.8204C62.4142 22.3501 62.2305 21.8981 61.9013 21.562L41.2829 0.539199C40.9444 0.193746 40.481 -0.000624459 39.9977 1.50726e-06H8.98824C6.60443 1.50726e-06 4.31853 0.94672 2.63259 2.63259C0.947297 4.31789 0 6.60443 0 8.98824V73.0118C0 75.3956 0.947345 77.6821 2.63259 79.3674C4.31853 81.0533 6.60443 82 8.98824 82H53.427C55.8108 82 58.0967 81.0533 59.7827 79.3674C61.468 77.6821 62.4153 75.3956 62.4153 73.0118L62.4142 22.8204ZM41.6513 6.03002L57.192 21.8854H44.348C43.6332 21.8854 42.9473 21.6014 42.4413 21.0954C41.936 20.5901 41.6514 19.9042 41.6514 19.1888L41.6513 6.03002ZM53.4258 78.403L8.98857 78.4036C7.55845 78.4036 6.18665 77.8356 5.17532 76.8236C4.16401 75.8123 3.59599 74.4405 3.59599 73.0104V8.96116C3.59599 7.53104 4.16403 6.15924 5.17532 5.1479C6.18662 4.13597 7.55848 3.56793 8.98857 3.56793H38.0575V19.1895C38.0575 20.8584 38.7202 22.4585 39.9001 23.6385C41.08 24.8185 42.6807 25.4811 44.3491 25.4811H58.8202V73.0112C58.8202 74.4413 58.2521 75.8131 57.2408 76.8245C56.2295 77.8364 54.8577 78.4044 53.4276 78.4044L53.4258 78.403Z" fill="#FFD100"/>
<path d="M48.7343 39.4229H24.511C23.5179 39.4229 22.7129 40.2273 22.7129 41.2204C22.7129 42.2129 23.5179 43.0179 24.511 43.0179H48.7343C49.7274 43.0179 50.5318 42.2129 50.5318 41.2204C50.5318 40.2273 49.7274 39.4229 48.7343 39.4229Z" fill="#FFD100"/>
<path d="M13.68 38.5241C12.7164 38.5241 11.826 39.0382 11.3445 39.8721C10.863 40.7066 10.863 41.7342 11.3445 42.5687C11.826 43.4032 12.7163 43.9173 13.68 43.9173H13.7252H13.7245C14.4399 43.9173 15.1258 43.6327 15.6318 43.1273C16.1371 42.6214 16.4212 41.9354 16.4212 41.2207C16.4212 40.4978 16.1309 39.805 15.6155 39.2979C15.1002 38.7906 14.403 38.5123 13.68 38.5242L13.68 38.5241Z" fill="#FFD100"/>
<path d="M48.7343 51.106H24.511C23.5179 51.106 22.7129 51.911 22.7129 52.9041C22.7129 53.8966 23.5179 54.7016 24.511 54.7016H48.7343C49.7274 54.7016 50.5318 53.8966 50.5318 52.9041C50.5318 51.911 49.7274 51.106 48.7343 51.106Z" fill="#FFD100"/>
<path d="M13.68 50.2088C12.7164 50.2088 11.826 50.7223 11.3445 51.5568C10.863 52.3913 10.863 53.419 11.3445 54.2534C11.826 55.0879 12.7163 55.6014 13.68 55.6014H13.7252H13.7245C14.4399 55.6014 15.1258 55.3174 15.6318 54.812C16.1371 54.3061 16.4212 53.6202 16.4212 52.9054C16.4212 52.1819 16.1309 51.4891 15.6155 50.9826C15.1002 50.4753 14.403 50.197 13.68 50.2089L13.68 50.2088Z" fill="#FFD100"/>
<path d="M48.7343 62.7923H24.511C23.5179 62.7923 22.7129 63.5974 22.7129 64.5898C22.7129 65.5829 23.5179 66.3879 24.511 66.3879H48.7343C49.7274 66.3879 50.5318 65.5829 50.5318 64.5898C50.5318 63.5973 49.7274 62.7923 48.7343 62.7923Z" fill="#FFD100"/>
<path d="M13.68 61.8935C12.7164 61.8935 11.826 62.407 11.3445 63.2415C10.863 64.076 10.863 65.1037 11.3445 65.9381C11.826 66.772 12.7163 67.2861 13.68 67.2861H13.7252H13.7245C14.4399 67.2861 15.1258 67.0021 15.6318 66.4961C16.1371 65.9908 16.4212 65.3049 16.4212 64.5895C16.4212 63.8666 16.1309 63.1738 15.6155 62.6671C15.1002 62.1599 14.403 61.8809 13.68 61.8934L13.68 61.8935Z" fill="#FFD100"/>
</svg>
