<svg width="774" height="41" viewBox="0 0 774 41" fill="none" xmlns="http://www.w3.org/2000/svg">
<rect width="774" height="41" rx="6" fill="#D6D6D6"/>
<path d="M70.18 27.16C69.3267 27.16 68.9 26.7133 68.9 25.82V20.52L64.62 14.5C64.4467 14.26 64.3667 14.0067 64.38 13.74C64.4067 13.46 64.52 13.2267 64.72 13.04C64.92 12.84 65.2 12.74 65.56 12.74C66.08 12.74 66.5333 13.0133 66.92 13.56L70.22 18.24L73.54 13.56C73.7533 13.2667 73.96 13.06 74.16 12.94C74.36 12.8067 74.6067 12.74 74.9 12.74C75.42 12.74 75.76 12.9333 75.92 13.32C76.0933 13.6933 76.0267 14.0933 75.72 14.52L71.46 20.54V25.82C71.46 26.7133 71.0333 27.16 70.18 27.16ZM80.4631 27.2C79.4498 27.2 78.5698 26.9933 77.8231 26.58C77.0765 26.1667 76.4965 25.58 76.0831 24.82C75.6698 24.0467 75.4631 23.14 75.4631 22.1C75.4631 21.06 75.6698 20.16 76.0831 19.4C76.4965 18.64 77.0765 18.0533 77.8231 17.64C78.5698 17.2267 79.4498 17.02 80.4631 17.02C81.4765 17.02 82.3565 17.2267 83.1031 17.64C83.8498 18.0533 84.4298 18.64 84.8431 19.4C85.2565 20.16 85.4631 21.06 85.4631 22.1C85.4631 23.14 85.2565 24.0467 84.8431 24.82C84.4298 25.58 83.8498 26.1667 83.1031 26.58C82.3565 26.9933 81.4765 27.2 80.4631 27.2ZM80.4631 25.3C81.2098 25.3 81.8098 25.0333 82.2631 24.5C82.7165 23.9533 82.9431 23.1533 82.9431 22.1C82.9431 21.0333 82.7165 20.24 82.2631 19.72C81.8098 19.1867 81.2098 18.92 80.4631 18.92C79.7165 18.92 79.1165 19.1867 78.6631 19.72C78.2098 20.24 77.9831 21.0333 77.9831 22.1C77.9831 23.1533 78.2098 23.9533 78.6631 24.5C79.1165 25.0333 79.7165 25.3 80.4631 25.3ZM91.0666 27.2C88.6666 27.2 87.4666 25.8533 87.4666 23.16V18.32C87.4666 17.48 87.8799 17.06 88.7066 17.06C89.5466 17.06 89.9666 17.48 89.9666 18.32V23.2C89.9666 23.8933 90.1066 24.4067 90.3866 24.74C90.6666 25.0733 91.1132 25.24 91.7266 25.24C92.3932 25.24 92.9399 25.0133 93.3666 24.56C93.7932 24.0933 94.0066 23.48 94.0066 22.72V18.32C94.0066 17.48 94.4199 17.06 95.2466 17.06C96.0866 17.06 96.5066 17.48 96.5066 18.32V25.88C96.5066 26.7333 96.0999 27.16 95.2866 27.16C94.4732 27.16 94.0666 26.7333 94.0666 25.88V25.54C93.4132 26.6467 92.4132 27.2 91.0666 27.2ZM100.389 27.16C99.5353 27.16 99.1086 26.7333 99.1086 25.88V18.32C99.1086 17.48 99.5153 17.06 100.329 17.06C101.142 17.06 101.549 17.48 101.549 18.32V18.94C102.029 17.7933 103.055 17.1533 104.629 17.02C105.202 16.9533 105.522 17.28 105.589 18C105.655 18.7067 105.309 19.1 104.549 19.18L104.109 19.22C102.469 19.38 101.649 20.22 101.649 21.74V25.88C101.649 26.7333 101.229 27.16 100.389 27.16ZM113.61 27.16C112.784 27.16 112.37 26.7333 112.37 25.88V18.32C112.37 17.48 112.777 17.06 113.59 17.06C114.404 17.06 114.81 17.48 114.81 18.32V18.74C115.144 18.18 115.59 17.7533 116.15 17.46C116.724 17.1667 117.364 17.02 118.07 17.02C120.377 17.02 121.53 18.36 121.53 21.04V25.88C121.53 26.7333 121.117 27.16 120.29 27.16C119.45 27.16 119.03 26.7333 119.03 25.88V21.16C119.03 20.4 118.884 19.8467 118.59 19.5C118.31 19.1533 117.87 18.98 117.27 18.98C116.537 18.98 115.95 19.2133 115.51 19.68C115.084 20.1333 114.87 20.74 114.87 21.5V25.88C114.87 26.7333 114.45 27.16 113.61 27.16ZM127.29 27.2C126.583 27.2 125.95 27.0667 125.39 26.8C124.843 26.52 124.41 26.1467 124.09 25.68C123.783 25.2133 123.63 24.6867 123.63 24.1C123.63 23.38 123.816 22.8133 124.19 22.4C124.563 21.9733 125.17 21.6667 126.01 21.48C126.85 21.2933 127.976 21.2 129.39 21.2H130.09V20.78C130.09 20.1133 129.943 19.6333 129.65 19.34C129.356 19.0467 128.863 18.9 128.17 18.9C127.783 18.9 127.363 18.9467 126.91 19.04C126.47 19.1333 126.003 19.2933 125.51 19.52C125.19 19.6667 124.923 19.6867 124.71 19.58C124.496 19.46 124.35 19.28 124.27 19.04C124.203 18.7867 124.216 18.5333 124.31 18.28C124.416 18.0267 124.623 17.84 124.93 17.72C125.543 17.4667 126.13 17.2867 126.69 17.18C127.263 17.0733 127.783 17.02 128.25 17.02C129.676 17.02 130.736 17.3533 131.43 18.02C132.123 18.6733 132.47 19.6933 132.47 21.08V25.88C132.47 26.7333 132.083 27.16 131.31 27.16C130.523 27.16 130.13 26.7333 130.13 25.88V25.44C129.903 25.9867 129.543 26.42 129.05 26.74C128.556 27.0467 127.97 27.2 127.29 27.2ZM127.81 25.48C128.463 25.48 129.003 25.2533 129.43 24.8C129.87 24.3467 130.09 23.7733 130.09 23.08V22.64H129.41C128.156 22.64 127.283 22.74 126.79 22.94C126.31 23.1267 126.07 23.4733 126.07 23.98C126.07 24.42 126.223 24.78 126.53 25.06C126.836 25.34 127.263 25.48 127.81 25.48ZM136.287 27.16C135.46 27.16 135.047 26.7333 135.047 25.88V18.32C135.047 17.48 135.454 17.06 136.267 17.06C137.08 17.06 137.487 17.48 137.487 18.32V18.72C137.78 18.1867 138.187 17.7733 138.707 17.48C139.227 17.1733 139.827 17.02 140.507 17.02C141.974 17.02 142.934 17.66 143.387 18.94C143.694 18.34 144.134 17.8733 144.707 17.54C145.28 17.1933 145.934 17.02 146.667 17.02C148.867 17.02 149.967 18.36 149.967 21.04V25.88C149.967 26.7333 149.547 27.16 148.707 27.16C147.88 27.16 147.467 26.7333 147.467 25.88V21.14C147.467 20.3933 147.34 19.8467 147.087 19.5C146.847 19.1533 146.434 18.98 145.847 18.98C145.194 18.98 144.68 19.2133 144.307 19.68C143.934 20.1333 143.747 20.7667 143.747 21.58V25.88C143.747 26.7333 143.334 27.16 142.507 27.16C141.667 27.16 141.247 26.7333 141.247 25.88V21.14C141.247 20.3933 141.12 19.8467 140.867 19.5C140.627 19.1533 140.22 18.98 139.647 18.98C138.994 18.98 138.48 19.2133 138.107 19.68C137.734 20.1333 137.547 20.7667 137.547 21.58V25.88C137.547 26.7333 137.127 27.16 136.287 27.16ZM157.366 27.2C156.259 27.2 155.306 26.9933 154.506 26.58C153.706 26.1667 153.086 25.58 152.646 24.82C152.219 24.06 152.006 23.16 152.006 22.12C152.006 21.1067 152.213 20.22 152.626 19.46C153.053 18.7 153.633 18.1067 154.366 17.68C155.113 17.24 155.959 17.02 156.906 17.02C158.293 17.02 159.386 17.46 160.186 18.34C160.999 19.22 161.406 20.42 161.406 21.94C161.406 22.4333 161.086 22.68 160.446 22.68H154.406C154.593 24.4267 155.593 25.3 157.406 25.3C157.753 25.3 158.139 25.26 158.566 25.18C159.006 25.0867 159.419 24.9333 159.806 24.72C160.153 24.52 160.446 24.46 160.686 24.54C160.926 24.6067 161.093 24.7467 161.186 24.96C161.293 25.1733 161.306 25.4133 161.226 25.68C161.159 25.9333 160.973 26.1533 160.666 26.34C160.199 26.6333 159.659 26.8533 159.046 27C158.446 27.1333 157.886 27.2 157.366 27.2ZM157.006 18.72C156.273 18.72 155.679 18.9467 155.226 19.4C154.773 19.8533 154.499 20.4667 154.406 21.24H159.326C159.273 20.4267 159.046 19.8067 158.646 19.38C158.259 18.94 157.713 18.72 157.006 18.72ZM173.536 27.2C172.029 27.2 170.836 26.8533 169.956 26.16C169.089 25.4533 168.656 24.5333 168.656 23.4C168.656 22.4933 168.909 21.7067 169.416 21.04C169.922 20.36 170.622 19.7533 171.516 19.22L171.636 19.16C171.116 18.6133 170.742 18.0933 170.516 17.6C170.289 17.0933 170.176 16.58 170.176 16.06C170.176 15.06 170.529 14.2533 171.236 13.64C171.956 13.0133 172.902 12.7 174.076 12.7C175.169 12.7 176.036 12.98 176.676 13.54C177.316 14.0867 177.636 14.8333 177.636 15.78C177.636 16.5 177.429 17.1667 177.016 17.78C176.616 18.38 175.942 18.96 174.996 19.52L177.696 22.4C178.096 21.5733 178.376 20.5667 178.536 19.38C178.642 18.7133 179.002 18.38 179.616 18.38C180.349 18.38 180.676 18.7533 180.596 19.5C180.502 20.3533 180.329 21.1467 180.076 21.88C179.836 22.6133 179.536 23.2733 179.176 23.86L180.816 25.52C181.069 25.7733 181.196 26.0267 181.196 26.28C181.196 26.5333 181.096 26.7467 180.896 26.92C180.709 27.08 180.449 27.16 180.116 27.16C179.822 27.16 179.582 27.1067 179.396 27C179.209 26.88 179.002 26.7067 178.776 26.48L177.816 25.48C177.242 26.0133 176.589 26.4333 175.856 26.74C175.122 27.0467 174.349 27.2 173.536 27.2ZM174.076 14.48C173.596 14.48 173.209 14.62 172.916 14.9C172.622 15.1667 172.476 15.5333 172.476 16C172.476 16.3467 172.556 16.6733 172.716 16.98C172.889 17.2733 173.189 17.66 173.616 18.14C174.322 17.7267 174.816 17.3533 175.096 17.02C175.389 16.6867 175.536 16.3067 175.536 15.88C175.536 15.4267 175.402 15.08 175.136 14.84C174.869 14.6 174.516 14.48 174.076 14.48ZM173.676 25.22C174.756 25.22 175.669 24.8467 176.416 24.1L173.016 20.58C172.336 20.9667 171.849 21.36 171.556 21.76C171.276 22.16 171.136 22.64 171.136 23.2C171.136 23.8267 171.349 24.32 171.776 24.68C172.216 25.04 172.849 25.22 173.676 25.22ZM193.577 27.2C192.47 27.2 191.517 26.9933 190.717 26.58C189.917 26.1667 189.297 25.58 188.857 24.82C188.43 24.06 188.217 23.16 188.217 22.12C188.217 21.1067 188.424 20.22 188.837 19.46C189.264 18.7 189.844 18.1067 190.577 17.68C191.324 17.24 192.17 17.02 193.117 17.02C194.504 17.02 195.597 17.46 196.397 18.34C197.21 19.22 197.617 20.42 197.617 21.94C197.617 22.4333 197.297 22.68 196.657 22.68H190.617C190.804 24.4267 191.804 25.3 193.617 25.3C193.964 25.3 194.35 25.26 194.777 25.18C195.217 25.0867 195.63 24.9333 196.017 24.72C196.364 24.52 196.657 24.46 196.897 24.54C197.137 24.6067 197.304 24.7467 197.397 24.96C197.504 25.1733 197.517 25.4133 197.437 25.68C197.37 25.9333 197.184 26.1533 196.877 26.34C196.41 26.6333 195.87 26.8533 195.257 27C194.657 27.1333 194.097 27.2 193.577 27.2ZM193.217 18.72C192.484 18.72 191.89 18.9467 191.437 19.4C190.984 19.8533 190.71 20.4667 190.617 21.24H195.537C195.484 20.4267 195.257 19.8067 194.857 19.38C194.47 18.94 193.924 18.72 193.217 18.72ZM200.877 27.16C200.05 27.16 199.637 26.7333 199.637 25.88V18.32C199.637 17.48 200.044 17.06 200.857 17.06C201.67 17.06 202.077 17.48 202.077 18.32V18.72C202.37 18.1867 202.777 17.7733 203.297 17.48C203.817 17.1733 204.417 17.02 205.097 17.02C206.564 17.02 207.524 17.66 207.977 18.94C208.284 18.34 208.724 17.8733 209.297 17.54C209.87 17.1933 210.524 17.02 211.257 17.02C213.457 17.02 214.557 18.36 214.557 21.04V25.88C214.557 26.7333 214.137 27.16 213.297 27.16C212.47 27.16 212.057 26.7333 212.057 25.88V21.14C212.057 20.3933 211.93 19.8467 211.677 19.5C211.437 19.1533 211.024 18.98 210.437 18.98C209.784 18.98 209.27 19.2133 208.897 19.68C208.524 20.1333 208.337 20.7667 208.337 21.58V25.88C208.337 26.7333 207.924 27.16 207.097 27.16C206.257 27.16 205.837 26.7333 205.837 25.88V21.14C205.837 20.3933 205.71 19.8467 205.457 19.5C205.217 19.1533 204.81 18.98 204.237 18.98C203.584 18.98 203.07 19.2133 202.697 19.68C202.324 20.1333 202.137 20.7667 202.137 21.58V25.88C202.137 26.7333 201.717 27.16 200.877 27.16ZM220.356 27.2C219.649 27.2 219.016 27.0667 218.456 26.8C217.909 26.52 217.476 26.1467 217.156 25.68C216.849 25.2133 216.696 24.6867 216.696 24.1C216.696 23.38 216.883 22.8133 217.256 22.4C217.629 21.9733 218.236 21.6667 219.076 21.48C219.916 21.2933 221.043 21.2 222.456 21.2H223.156V20.78C223.156 20.1133 223.009 19.6333 222.716 19.34C222.423 19.0467 221.929 18.9 221.236 18.9C220.849 18.9 220.429 18.9467 219.976 19.04C219.536 19.1333 219.069 19.2933 218.576 19.52C218.256 19.6667 217.989 19.6867 217.776 19.58C217.563 19.46 217.416 19.28 217.336 19.04C217.269 18.7867 217.283 18.5333 217.376 18.28C217.483 18.0267 217.689 17.84 217.996 17.72C218.609 17.4667 219.196 17.2867 219.756 17.18C220.329 17.0733 220.849 17.02 221.316 17.02C222.743 17.02 223.803 17.3533 224.496 18.02C225.189 18.6733 225.536 19.6933 225.536 21.08V25.88C225.536 26.7333 225.149 27.16 224.376 27.16C223.589 27.16 223.196 26.7333 223.196 25.88V25.44C222.969 25.9867 222.609 26.42 222.116 26.74C221.623 27.0467 221.036 27.2 220.356 27.2ZM220.876 25.48C221.529 25.48 222.069 25.2533 222.496 24.8C222.936 24.3467 223.156 23.7733 223.156 23.08V22.64H222.476C221.223 22.64 220.349 22.74 219.856 22.94C219.376 23.1267 219.136 23.4733 219.136 23.98C219.136 24.42 219.289 24.78 219.596 25.06C219.903 25.34 220.329 25.48 220.876 25.48ZM229.313 15.22C228.847 15.22 228.48 15.1067 228.213 14.88C227.96 14.64 227.833 14.3133 227.833 13.9C227.833 13.4733 227.96 13.1467 228.213 12.92C228.48 12.6933 228.847 12.58 229.313 12.58C230.3 12.58 230.793 13.02 230.793 13.9C230.793 14.78 230.3 15.22 229.313 15.22ZM229.313 27.14C228.913 27.14 228.607 27.02 228.393 26.78C228.18 26.54 228.073 26.2067 228.073 25.78V18.44C228.073 17.5333 228.487 17.08 229.313 17.08C230.153 17.08 230.573 17.5333 230.573 18.44V25.78C230.573 26.2067 230.467 26.54 230.253 26.78C230.04 27.02 229.727 27.14 229.313 27.14ZM236.511 27.2C234.284 27.2 233.171 25.9533 233.171 23.46V14C233.171 13.16 233.584 12.74 234.411 12.74C235.251 12.74 235.671 13.16 235.671 14V23.34C235.671 24.54 236.171 25.14 237.171 25.14C237.278 25.14 237.378 25.14 237.471 25.14C237.564 25.1267 237.658 25.1133 237.751 25.1C237.938 25.0733 238.064 25.1267 238.131 25.26C238.198 25.38 238.231 25.6333 238.231 26.02C238.231 26.3533 238.164 26.6133 238.031 26.8C237.898 26.9867 237.678 27.1 237.371 27.14C237.091 27.18 236.804 27.2 236.511 27.2ZM246.228 27.16C245.401 27.16 244.988 26.7333 244.988 25.88V14C244.988 13.16 245.401 12.74 246.228 12.74C247.068 12.74 247.488 13.16 247.488 14V18.64C247.821 18.1067 248.268 17.7067 248.827 17.44C249.388 17.16 250.008 17.02 250.688 17.02C252.994 17.02 254.148 18.36 254.148 21.04V25.88C254.148 26.7333 253.734 27.16 252.908 27.16C252.068 27.16 251.648 26.7333 251.648 25.88V21.16C251.648 20.4 251.501 19.8467 251.208 19.5C250.928 19.1533 250.488 18.98 249.888 18.98C249.154 18.98 248.568 19.2133 248.128 19.68C247.701 20.1333 247.488 20.74 247.488 21.5V25.88C247.488 26.7333 247.068 27.16 246.228 27.16ZM259.907 27.2C259.2 27.2 258.567 27.0667 258.007 26.8C257.46 26.52 257.027 26.1467 256.707 25.68C256.4 25.2133 256.247 24.6867 256.247 24.1C256.247 23.38 256.433 22.8133 256.807 22.4C257.18 21.9733 257.787 21.6667 258.627 21.48C259.467 21.2933 260.593 21.2 262.007 21.2H262.707V20.78C262.707 20.1133 262.56 19.6333 262.267 19.34C261.973 19.0467 261.48 18.9 260.787 18.9C260.4 18.9 259.98 18.9467 259.527 19.04C259.087 19.1333 258.62 19.2933 258.127 19.52C257.807 19.6667 257.54 19.6867 257.327 19.58C257.113 19.46 256.967 19.28 256.887 19.04C256.82 18.7867 256.833 18.5333 256.927 18.28C257.033 18.0267 257.24 17.84 257.547 17.72C258.16 17.4667 258.747 17.2867 259.307 17.18C259.88 17.0733 260.4 17.02 260.867 17.02C262.293 17.02 263.353 17.3533 264.047 18.02C264.74 18.6733 265.087 19.6933 265.087 21.08V25.88C265.087 26.7333 264.7 27.16 263.927 27.16C263.14 27.16 262.747 26.7333 262.747 25.88V25.44C262.52 25.9867 262.16 26.42 261.667 26.74C261.173 27.0467 260.587 27.2 259.907 27.2ZM260.427 25.48C261.08 25.48 261.62 25.2533 262.047 24.8C262.487 24.3467 262.707 23.7733 262.707 23.08V22.64H262.027C260.773 22.64 259.9 22.74 259.407 22.94C258.927 23.1267 258.687 23.4733 258.687 23.98C258.687 24.42 258.84 24.78 259.147 25.06C259.453 25.34 259.88 25.48 260.427 25.48ZM271.204 27.2C270.631 27.2 270.024 27.14 269.384 27.02C268.744 26.9 268.171 26.6933 267.664 26.4C267.384 26.24 267.211 26.0467 267.144 25.82C267.078 25.58 267.084 25.36 267.164 25.16C267.258 24.9467 267.404 24.7933 267.604 24.7C267.818 24.6067 268.064 24.6267 268.344 24.76C268.878 25.0133 269.378 25.1933 269.844 25.3C270.311 25.3933 270.771 25.44 271.224 25.44C271.864 25.44 272.338 25.3333 272.644 25.12C272.964 24.8933 273.124 24.6 273.124 24.24C273.124 23.68 272.711 23.32 271.884 23.16L269.884 22.78C268.191 22.46 267.344 21.58 267.344 20.14C267.344 19.5 267.518 18.9467 267.864 18.48C268.224 18.0133 268.718 17.6533 269.344 17.4C269.971 17.1467 270.691 17.02 271.504 17.02C272.678 17.02 273.724 17.28 274.644 17.8C274.898 17.9333 275.044 18.12 275.084 18.36C275.138 18.5867 275.111 18.8067 275.004 19.02C274.911 19.22 274.758 19.3667 274.544 19.46C274.331 19.54 274.084 19.5133 273.804 19.38C273.391 19.1667 272.991 19.0133 272.604 18.92C272.231 18.8267 271.871 18.78 271.524 18.78C270.871 18.78 270.384 18.8933 270.064 19.12C269.758 19.3467 269.604 19.6467 269.604 20.02C269.604 20.6067 269.984 20.9667 270.744 21.1L272.744 21.48C273.611 21.64 274.264 21.9333 274.704 22.36C275.158 22.7867 275.384 23.36 275.384 24.08C275.384 25.0533 275.004 25.82 274.244 26.38C273.484 26.9267 272.471 27.2 271.204 27.2ZM288.46 27.2C287.74 27.2 287.1 27.0467 286.54 26.74C285.98 26.42 285.56 25.9933 285.28 25.46V25.88C285.28 26.7333 284.873 27.16 284.06 27.16C283.233 27.16 282.82 26.7333 282.82 25.88V14C282.82 13.16 283.233 12.74 284.06 12.74C284.9 12.74 285.32 13.16 285.32 14V18.66C285.613 18.1667 286.033 17.7733 286.58 17.48C287.14 17.1733 287.766 17.02 288.46 17.02C289.326 17.02 290.08 17.2267 290.72 17.64C291.36 18.0533 291.86 18.64 292.22 19.4C292.58 20.1467 292.76 21.0467 292.76 22.1C292.76 23.14 292.58 24.0467 292.22 24.82C291.86 25.58 291.353 26.1667 290.7 26.58C290.06 26.9933 289.313 27.2 288.46 27.2ZM287.76 25.3C288.506 25.3 289.106 25.0333 289.56 24.5C290.013 23.9533 290.24 23.1533 290.24 22.1C290.24 21.0333 290.013 20.24 289.56 19.72C289.106 19.1867 288.506 18.92 287.76 18.92C287.013 18.92 286.413 19.1867 285.96 19.72C285.506 20.24 285.28 21.0333 285.28 22.1C285.28 23.1533 285.506 23.9533 285.96 24.5C286.413 25.0333 287.013 25.3 287.76 25.3ZM299.632 27.2C298.525 27.2 297.572 26.9933 296.772 26.58C295.972 26.1667 295.352 25.58 294.912 24.82C294.485 24.06 294.272 23.16 294.272 22.12C294.272 21.1067 294.478 20.22 294.892 19.46C295.318 18.7 295.898 18.1067 296.632 17.68C297.378 17.24 298.225 17.02 299.172 17.02C300.558 17.02 301.652 17.46 302.452 18.34C303.265 19.22 303.672 20.42 303.672 21.94C303.672 22.4333 303.352 22.68 302.712 22.68H296.672C296.858 24.4267 297.858 25.3 299.672 25.3C300.018 25.3 300.405 25.26 300.832 25.18C301.272 25.0867 301.685 24.9333 302.072 24.72C302.418 24.52 302.712 24.46 302.952 24.54C303.192 24.6067 303.358 24.7467 303.452 24.96C303.558 25.1733 303.572 25.4133 303.492 25.68C303.425 25.9333 303.238 26.1533 302.932 26.34C302.465 26.6333 301.925 26.8533 301.312 27C300.712 27.1333 300.152 27.2 299.632 27.2ZM299.272 18.72C298.538 18.72 297.945 18.9467 297.492 19.4C297.038 19.8533 296.765 20.4667 296.672 21.24H301.592C301.538 20.4267 301.312 19.8067 300.912 19.38C300.525 18.94 299.978 18.72 299.272 18.72ZM310.472 27.2C309.365 27.2 308.412 26.9933 307.612 26.58C306.812 26.1667 306.192 25.58 305.752 24.82C305.325 24.06 305.112 23.16 305.112 22.12C305.112 21.1067 305.318 20.22 305.732 19.46C306.158 18.7 306.738 18.1067 307.472 17.68C308.218 17.24 309.065 17.02 310.012 17.02C311.398 17.02 312.492 17.46 313.292 18.34C314.105 19.22 314.512 20.42 314.512 21.94C314.512 22.4333 314.192 22.68 313.552 22.68H307.512C307.698 24.4267 308.698 25.3 310.512 25.3C310.858 25.3 311.245 25.26 311.672 25.18C312.112 25.0867 312.525 24.9333 312.912 24.72C313.258 24.52 313.552 24.46 313.792 24.54C314.032 24.6067 314.198 24.7467 314.292 24.96C314.398 25.1733 314.412 25.4133 314.332 25.68C314.265 25.9333 314.078 26.1533 313.772 26.34C313.305 26.6333 312.765 26.8533 312.152 27C311.552 27.1333 310.992 27.2 310.472 27.2ZM310.112 18.72C309.378 18.72 308.785 18.9467 308.332 19.4C307.878 19.8533 307.605 20.4667 307.512 21.24H312.432C312.378 20.4267 312.152 19.8067 311.752 19.38C311.365 18.94 310.818 18.72 310.112 18.72ZM317.731 27.16C316.905 27.16 316.491 26.7333 316.491 25.88V18.32C316.491 17.48 316.898 17.06 317.711 17.06C318.525 17.06 318.931 17.48 318.931 18.32V18.74C319.265 18.18 319.711 17.7533 320.271 17.46C320.845 17.1667 321.485 17.02 322.191 17.02C324.498 17.02 325.651 18.36 325.651 21.04V25.88C325.651 26.7333 325.238 27.16 324.411 27.16C323.571 27.16 323.151 26.7333 323.151 25.88V21.16C323.151 20.4 323.005 19.8467 322.711 19.5C322.431 19.1533 321.991 18.98 321.391 18.98C320.658 18.98 320.071 19.2133 319.631 19.68C319.205 20.1333 318.991 20.74 318.991 21.5V25.88C318.991 26.7333 318.571 27.16 317.731 27.16ZM337.2 27.2C336.627 27.2 336.02 27.14 335.38 27.02C334.74 26.9 334.167 26.6933 333.66 26.4C333.38 26.24 333.207 26.0467 333.14 25.82C333.074 25.58 333.08 25.36 333.16 25.16C333.254 24.9467 333.4 24.7933 333.6 24.7C333.814 24.6067 334.06 24.6267 334.34 24.76C334.874 25.0133 335.374 25.1933 335.84 25.3C336.307 25.3933 336.767 25.44 337.22 25.44C337.86 25.44 338.334 25.3333 338.64 25.12C338.96 24.8933 339.12 24.6 339.12 24.24C339.12 23.68 338.707 23.32 337.88 23.16L335.88 22.78C334.187 22.46 333.34 21.58 333.34 20.14C333.34 19.5 333.514 18.9467 333.86 18.48C334.22 18.0133 334.714 17.6533 335.34 17.4C335.967 17.1467 336.687 17.02 337.5 17.02C338.674 17.02 339.72 17.28 340.64 17.8C340.894 17.9333 341.04 18.12 341.08 18.36C341.134 18.5867 341.107 18.8067 341 19.02C340.907 19.22 340.754 19.3667 340.54 19.46C340.327 19.54 340.08 19.5133 339.8 19.38C339.387 19.1667 338.987 19.0133 338.6 18.92C338.227 18.8267 337.867 18.78 337.52 18.78C336.867 18.78 336.38 18.8933 336.06 19.12C335.754 19.3467 335.6 19.6467 335.6 20.02C335.6 20.6067 335.98 20.9667 336.74 21.1L338.74 21.48C339.607 21.64 340.26 21.9333 340.7 22.36C341.154 22.7867 341.38 23.36 341.38 24.08C341.38 25.0533 341 25.82 340.24 26.38C339.48 26.9267 338.467 27.2 337.2 27.2ZM346.926 27.2C344.526 27.2 343.326 25.8533 343.326 23.16V18.32C343.326 17.48 343.739 17.06 344.566 17.06C345.406 17.06 345.826 17.48 345.826 18.32V23.2C345.826 23.8933 345.966 24.4067 346.246 24.74C346.526 25.0733 346.973 25.24 347.586 25.24C348.253 25.24 348.799 25.0133 349.226 24.56C349.653 24.0933 349.866 23.48 349.866 22.72V18.32C349.866 17.48 350.279 17.06 351.106 17.06C351.946 17.06 352.366 17.48 352.366 18.32V25.88C352.366 26.7333 351.959 27.16 351.146 27.16C350.333 27.16 349.926 26.7333 349.926 25.88V25.54C349.273 26.6467 348.273 27.2 346.926 27.2ZM359.488 27.2C358.461 27.2 357.568 26.9933 356.808 26.58C356.048 26.1533 355.461 25.5533 355.048 24.78C354.635 24.0067 354.428 23.1 354.428 22.06C354.428 21.02 354.635 20.1267 355.048 19.38C355.461 18.62 356.048 18.04 356.808 17.64C357.568 17.2267 358.461 17.02 359.488 17.02C359.928 17.02 360.401 17.08 360.908 17.2C361.428 17.32 361.915 17.52 362.368 17.8C362.635 17.96 362.788 18.1667 362.828 18.42C362.881 18.6733 362.848 18.9067 362.728 19.12C362.621 19.3333 362.455 19.4867 362.228 19.58C362.015 19.6733 361.768 19.64 361.488 19.48C360.875 19.1333 360.281 18.96 359.708 18.96C358.841 18.96 358.168 19.2333 357.688 19.78C357.221 20.3133 356.988 21.08 356.988 22.08C356.988 23.0667 357.221 23.8467 357.688 24.42C358.168 24.98 358.841 25.26 359.708 25.26C360.281 25.26 360.875 25.0933 361.488 24.76C361.768 24.6 362.015 24.5667 362.228 24.66C362.441 24.7533 362.595 24.9133 362.688 25.14C362.781 25.3533 362.801 25.5867 362.748 25.84C362.695 26.08 362.541 26.28 362.288 26.44C361.848 26.7067 361.381 26.9 360.888 27.02C360.395 27.14 359.928 27.2 359.488 27.2ZM368.726 27.2C367.7 27.2 366.806 26.9933 366.046 26.58C365.286 26.1533 364.7 25.5533 364.286 24.78C363.873 24.0067 363.666 23.1 363.666 22.06C363.666 21.02 363.873 20.1267 364.286 19.38C364.7 18.62 365.286 18.04 366.046 17.64C366.806 17.2267 367.7 17.02 368.726 17.02C369.166 17.02 369.64 17.08 370.146 17.2C370.666 17.32 371.153 17.52 371.606 17.8C371.873 17.96 372.026 18.1667 372.066 18.42C372.12 18.6733 372.086 18.9067 371.966 19.12C371.86 19.3333 371.693 19.4867 371.466 19.58C371.253 19.6733 371.006 19.64 370.726 19.48C370.113 19.1333 369.52 18.96 368.946 18.96C368.08 18.96 367.406 19.2333 366.926 19.78C366.46 20.3133 366.226 21.08 366.226 22.08C366.226 23.0667 366.46 23.8467 366.926 24.42C367.406 24.98 368.08 25.26 368.946 25.26C369.52 25.26 370.113 25.0933 370.726 24.76C371.006 24.6 371.253 24.5667 371.466 24.66C371.68 24.7533 371.833 24.9133 371.926 25.14C372.02 25.3533 372.04 25.5867 371.986 25.84C371.933 26.08 371.78 26.28 371.526 26.44C371.086 26.7067 370.62 26.9 370.126 27.02C369.633 27.14 369.166 27.2 368.726 27.2ZM378.265 27.2C377.158 27.2 376.205 26.9933 375.405 26.58C374.605 26.1667 373.985 25.58 373.545 24.82C373.118 24.06 372.905 23.16 372.905 22.12C372.905 21.1067 373.111 20.22 373.525 19.46C373.951 18.7 374.531 18.1067 375.265 17.68C376.011 17.24 376.858 17.02 377.805 17.02C379.191 17.02 380.285 17.46 381.085 18.34C381.898 19.22 382.305 20.42 382.305 21.94C382.305 22.4333 381.985 22.68 381.345 22.68H375.305C375.491 24.4267 376.491 25.3 378.305 25.3C378.651 25.3 379.038 25.26 379.465 25.18C379.905 25.0867 380.318 24.9333 380.705 24.72C381.051 24.52 381.345 24.46 381.585 24.54C381.825 24.6067 381.991 24.7467 382.085 24.96C382.191 25.1733 382.205 25.4133 382.125 25.68C382.058 25.9333 381.871 26.1533 381.565 26.34C381.098 26.6333 380.558 26.8533 379.945 27C379.345 27.1333 378.785 27.2 378.265 27.2ZM377.905 18.72C377.171 18.72 376.578 18.9467 376.125 19.4C375.671 19.8533 375.398 20.4667 375.305 21.24H380.225C380.171 20.4267 379.945 19.8067 379.545 19.38C379.158 18.94 378.611 18.72 377.905 18.72ZM387.864 27.2C387.291 27.2 386.684 27.14 386.044 27.02C385.404 26.9 384.831 26.6933 384.324 26.4C384.044 26.24 383.871 26.0467 383.804 25.82C383.738 25.58 383.744 25.36 383.824 25.16C383.918 24.9467 384.064 24.7933 384.264 24.7C384.478 24.6067 384.724 24.6267 385.004 24.76C385.538 25.0133 386.038 25.1933 386.504 25.3C386.971 25.3933 387.431 25.44 387.884 25.44C388.524 25.44 388.998 25.3333 389.304 25.12C389.624 24.8933 389.784 24.6 389.784 24.24C389.784 23.68 389.371 23.32 388.544 23.16L386.544 22.78C384.851 22.46 384.004 21.58 384.004 20.14C384.004 19.5 384.178 18.9467 384.524 18.48C384.884 18.0133 385.378 17.6533 386.004 17.4C386.631 17.1467 387.351 17.02 388.164 17.02C389.338 17.02 390.384 17.28 391.304 17.8C391.558 17.9333 391.704 18.12 391.744 18.36C391.798 18.5867 391.771 18.8067 391.664 19.02C391.571 19.22 391.418 19.3667 391.204 19.46C390.991 19.54 390.744 19.5133 390.464 19.38C390.051 19.1667 389.651 19.0133 389.264 18.92C388.891 18.8267 388.531 18.78 388.184 18.78C387.531 18.78 387.044 18.8933 386.724 19.12C386.418 19.3467 386.264 19.6467 386.264 20.02C386.264 20.6067 386.644 20.9667 387.404 21.1L389.404 21.48C390.271 21.64 390.924 21.9333 391.364 22.36C391.818 22.7867 392.044 23.36 392.044 24.08C392.044 25.0533 391.664 25.82 390.904 26.38C390.144 26.9267 389.131 27.2 387.864 27.2ZM395.97 27.16C395.13 27.16 394.71 26.7333 394.71 25.88V19.1H393.79C393.123 19.1 392.79 18.7867 392.79 18.16C392.79 17.5333 393.123 17.22 393.79 17.22H394.71V17.2C394.71 15.8267 395.057 14.8 395.75 14.12C396.443 13.4267 397.443 13.02 398.75 12.9L399.43 12.84C399.777 12.8133 400.03 12.8867 400.19 13.06C400.35 13.2333 400.43 13.4467 400.43 13.7C400.443 13.94 400.383 14.16 400.25 14.36C400.117 14.5467 399.923 14.6533 399.67 14.68L399.39 14.7C398.63 14.7533 398.077 14.9467 397.73 15.28C397.383 15.6133 397.21 16.12 397.21 16.8V17.22H398.91C399.577 17.22 399.91 17.5333 399.91 18.16C399.91 18.7867 399.577 19.1 398.91 19.1H397.21V25.88C397.21 26.7333 396.797 27.16 395.97 27.16ZM404.875 27.2C402.475 27.2 401.275 25.8533 401.275 23.16V18.32C401.275 17.48 401.688 17.06 402.515 17.06C403.355 17.06 403.775 17.48 403.775 18.32V23.2C403.775 23.8933 403.915 24.4067 404.195 24.74C404.475 25.0733 404.922 25.24 405.535 25.24C406.202 25.24 406.748 25.0133 407.175 24.56C407.602 24.0933 407.815 23.48 407.815 22.72V18.32C407.815 17.48 408.228 17.06 409.055 17.06C409.895 17.06 410.315 17.48 410.315 18.32V25.88C410.315 26.7333 409.908 27.16 409.095 27.16C408.282 27.16 407.875 26.7333 407.875 25.88V25.54C407.222 26.6467 406.222 27.2 404.875 27.2ZM416.257 27.2C414.031 27.2 412.917 25.9533 412.917 23.46V14C412.917 13.16 413.331 12.74 414.157 12.74C414.997 12.74 415.417 13.16 415.417 14V23.34C415.417 24.54 415.917 25.14 416.917 25.14C417.024 25.14 417.124 25.14 417.217 25.14C417.311 25.1267 417.404 25.1133 417.497 25.1C417.684 25.0733 417.811 25.1267 417.877 25.26C417.944 25.38 417.977 25.6333 417.977 26.02C417.977 26.3533 417.911 26.6133 417.777 26.8C417.644 26.9867 417.424 27.1 417.117 27.14C416.837 27.18 416.551 27.2 416.257 27.2ZM422.644 27.2C420.417 27.2 419.304 25.9533 419.304 23.46V14C419.304 13.16 419.717 12.74 420.544 12.74C421.384 12.74 421.804 13.16 421.804 14V23.34C421.804 24.54 422.304 25.14 423.304 25.14C423.411 25.14 423.511 25.14 423.604 25.14C423.697 25.1267 423.791 25.1133 423.884 25.1C424.071 25.0733 424.197 25.1267 424.264 25.26C424.331 25.38 424.364 25.6333 424.364 26.02C424.364 26.3533 424.297 26.6133 424.164 26.8C424.031 26.9867 423.811 27.1 423.504 27.14C423.224 27.18 422.937 27.2 422.644 27.2ZM427.917 30.76C427.463 30.76 427.15 30.5933 426.977 30.26C426.803 29.9267 426.81 29.5467 426.997 29.12L428.137 26.6L424.717 18.72C424.53 18.28 424.53 17.8933 424.717 17.56C424.903 17.2267 425.27 17.06 425.817 17.06C426.123 17.06 426.37 17.1333 426.557 17.28C426.743 17.4133 426.91 17.6733 427.057 18.06L429.457 24.06L431.917 18.04C432.063 17.6667 432.237 17.4133 432.437 17.28C432.637 17.1333 432.903 17.06 433.237 17.06C433.663 17.06 433.963 17.2267 434.137 17.56C434.31 17.8933 434.303 18.2733 434.117 18.7L429.257 29.8C429.083 30.1733 428.897 30.4267 428.697 30.56C428.497 30.6933 428.237 30.76 427.917 30.76ZM444.974 27.2C444.4 27.2 443.794 27.14 443.154 27.02C442.514 26.9 441.94 26.6933 441.434 26.4C441.154 26.24 440.98 26.0467 440.914 25.82C440.847 25.58 440.854 25.36 440.934 25.16C441.027 24.9467 441.174 24.7933 441.374 24.7C441.587 24.6067 441.834 24.6267 442.114 24.76C442.647 25.0133 443.147 25.1933 443.614 25.3C444.08 25.3933 444.54 25.44 444.994 25.44C445.634 25.44 446.107 25.3333 446.414 25.12C446.734 24.8933 446.894 24.6 446.894 24.24C446.894 23.68 446.48 23.32 445.654 23.16L443.654 22.78C441.96 22.46 441.114 21.58 441.114 20.14C441.114 19.5 441.287 18.9467 441.634 18.48C441.994 18.0133 442.487 17.6533 443.114 17.4C443.74 17.1467 444.46 17.02 445.274 17.02C446.447 17.02 447.494 17.28 448.414 17.8C448.667 17.9333 448.814 18.12 448.854 18.36C448.907 18.5867 448.88 18.8067 448.774 19.02C448.68 19.22 448.527 19.3667 448.314 19.46C448.1 19.54 447.854 19.5133 447.574 19.38C447.16 19.1667 446.76 19.0133 446.374 18.92C446 18.8267 445.64 18.78 445.294 18.78C444.64 18.78 444.154 18.8933 443.834 19.12C443.527 19.3467 443.374 19.6467 443.374 20.02C443.374 20.6067 443.754 20.9667 444.514 21.1L446.514 21.48C447.38 21.64 448.034 21.9333 448.474 22.36C448.927 22.7867 449.154 23.36 449.154 24.08C449.154 25.0533 448.774 25.82 448.014 26.38C447.254 26.9267 446.24 27.2 444.974 27.2ZM454.699 27.2C452.299 27.2 451.099 25.8533 451.099 23.16V18.32C451.099 17.48 451.513 17.06 452.339 17.06C453.179 17.06 453.599 17.48 453.599 18.32V23.2C453.599 23.8933 453.739 24.4067 454.019 24.74C454.299 25.0733 454.746 25.24 455.359 25.24C456.026 25.24 456.573 25.0133 456.999 24.56C457.426 24.0933 457.639 23.48 457.639 22.72V18.32C457.639 17.48 458.053 17.06 458.879 17.06C459.719 17.06 460.139 17.48 460.139 18.32V25.88C460.139 26.7333 459.733 27.16 458.919 27.16C458.106 27.16 457.699 26.7333 457.699 25.88V25.54C457.046 26.6467 456.046 27.2 454.699 27.2ZM468.381 27.2C467.661 27.2 467.021 27.0467 466.461 26.74C465.901 26.42 465.481 25.9933 465.201 25.46V25.88C465.201 26.7333 464.795 27.16 463.981 27.16C463.155 27.16 462.741 26.7333 462.741 25.88V14C462.741 13.16 463.155 12.74 463.981 12.74C464.821 12.74 465.241 13.16 465.241 14V18.66C465.535 18.1667 465.955 17.7733 466.501 17.48C467.061 17.1733 467.688 17.02 468.381 17.02C469.248 17.02 470.001 17.2267 470.641 17.64C471.281 18.0533 471.781 18.64 472.141 19.4C472.501 20.1467 472.681 21.0467 472.681 22.1C472.681 23.14 472.501 24.0467 472.141 24.82C471.781 25.58 471.275 26.1667 470.621 26.58C469.981 26.9933 469.235 27.2 468.381 27.2ZM467.681 25.3C468.428 25.3 469.028 25.0333 469.481 24.5C469.935 23.9533 470.161 23.1533 470.161 22.1C470.161 21.0333 469.935 20.24 469.481 19.72C469.028 19.1867 468.428 18.92 467.681 18.92C466.935 18.92 466.335 19.1867 465.881 19.72C465.428 20.24 465.201 21.0333 465.201 22.1C465.201 23.1533 465.428 23.9533 465.881 24.5C466.335 25.0333 466.935 25.3 467.681 25.3ZM476.014 27.16C475.187 27.16 474.774 26.7333 474.774 25.88V18.32C474.774 17.48 475.18 17.06 475.994 17.06C476.807 17.06 477.214 17.48 477.214 18.32V18.72C477.507 18.1867 477.914 17.7733 478.434 17.48C478.954 17.1733 479.554 17.02 480.234 17.02C481.7 17.02 482.66 17.66 483.114 18.94C483.42 18.34 483.86 17.8733 484.434 17.54C485.007 17.1933 485.66 17.02 486.394 17.02C488.594 17.02 489.694 18.36 489.694 21.04V25.88C489.694 26.7333 489.274 27.16 488.434 27.16C487.607 27.16 487.194 26.7333 487.194 25.88V21.14C487.194 20.3933 487.067 19.8467 486.814 19.5C486.574 19.1533 486.16 18.98 485.574 18.98C484.92 18.98 484.407 19.2133 484.034 19.68C483.66 20.1333 483.474 20.7667 483.474 21.58V25.88C483.474 26.7333 483.06 27.16 482.234 27.16C481.394 27.16 480.974 26.7333 480.974 25.88V21.14C480.974 20.3933 480.847 19.8467 480.594 19.5C480.354 19.1533 479.947 18.98 479.374 18.98C478.72 18.98 478.207 19.2133 477.834 19.68C477.46 20.1333 477.274 20.7667 477.274 21.58V25.88C477.274 26.7333 476.854 27.16 476.014 27.16ZM493.513 15.22C493.046 15.22 492.679 15.1067 492.413 14.88C492.159 14.64 492.033 14.3133 492.033 13.9C492.033 13.4733 492.159 13.1467 492.413 12.92C492.679 12.6933 493.046 12.58 493.513 12.58C494.499 12.58 494.993 13.02 494.993 13.9C494.993 14.78 494.499 15.22 493.513 15.22ZM493.513 27.14C493.113 27.14 492.806 27.02 492.593 26.78C492.379 26.54 492.273 26.2067 492.273 25.78V18.44C492.273 17.5333 492.686 17.08 493.513 17.08C494.353 17.08 494.773 17.5333 494.773 18.44V25.78C494.773 26.2067 494.666 26.54 494.453 26.78C494.239 27.02 493.926 27.14 493.513 27.14ZM501.85 27.2C499.264 27.2 497.97 25.92 497.97 23.36V19.1H496.93C496.264 19.1 495.93 18.7867 495.93 18.16C495.93 17.5333 496.264 17.22 496.93 17.22H497.97V15.4C497.97 14.56 498.39 14.14 499.23 14.14C500.057 14.14 500.47 14.56 500.47 15.4V17.22H502.59C503.257 17.22 503.59 17.5333 503.59 18.16C503.59 18.7867 503.257 19.1 502.59 19.1H500.47V23.22C500.47 23.86 500.61 24.34 500.89 24.66C501.17 24.98 501.624 25.14 502.25 25.14C502.477 25.14 502.677 25.12 502.85 25.08C503.024 25.04 503.177 25.0133 503.31 25C503.47 24.9867 503.604 25.04 503.71 25.16C503.817 25.2667 503.87 25.4933 503.87 25.84C503.87 26.1067 503.824 26.3467 503.73 26.56C503.65 26.76 503.497 26.9 503.27 26.98C503.097 27.0333 502.87 27.08 502.59 27.12C502.31 27.1733 502.064 27.2 501.85 27.2ZM509.768 27.2C508.662 27.2 507.708 26.9933 506.908 26.58C506.108 26.1667 505.488 25.58 505.048 24.82C504.622 24.06 504.408 23.16 504.408 22.12C504.408 21.1067 504.615 20.22 505.028 19.46C505.455 18.7 506.035 18.1067 506.768 17.68C507.515 17.24 508.362 17.02 509.308 17.02C510.695 17.02 511.788 17.46 512.588 18.34C513.402 19.22 513.808 20.42 513.808 21.94C513.808 22.4333 513.488 22.68 512.848 22.68H506.808C506.995 24.4267 507.995 25.3 509.808 25.3C510.155 25.3 510.542 25.26 510.968 25.18C511.408 25.0867 511.822 24.9333 512.208 24.72C512.555 24.52 512.848 24.46 513.088 24.54C513.328 24.6067 513.495 24.7467 513.588 24.96C513.695 25.1733 513.708 25.4133 513.628 25.68C513.562 25.9333 513.375 26.1533 513.068 26.34C512.602 26.6333 512.062 26.8533 511.448 27C510.848 27.1333 510.288 27.2 509.768 27.2ZM509.408 18.72C508.675 18.72 508.082 18.9467 507.628 19.4C507.175 19.8533 506.902 20.4667 506.808 21.24H511.728C511.675 20.4267 511.448 19.8067 511.048 19.38C510.662 18.94 510.115 18.72 509.408 18.72ZM519.548 27.2C518.695 27.2 517.942 26.9933 517.288 26.58C516.648 26.1667 516.148 25.58 515.788 24.82C515.428 24.0467 515.248 23.14 515.248 22.1C515.248 21.0467 515.428 20.1467 515.788 19.4C516.148 18.64 516.648 18.0533 517.288 17.64C517.942 17.2267 518.695 17.02 519.548 17.02C520.242 17.02 520.868 17.1733 521.428 17.48C521.988 17.7867 522.408 18.1933 522.688 18.7V14C522.688 13.16 523.102 12.74 523.928 12.74C524.768 12.74 525.188 13.16 525.188 14V25.88C525.188 26.7333 524.775 27.16 523.948 27.16C523.122 27.16 522.708 26.7333 522.708 25.88V25.46C522.428 25.9933 522.008 26.42 521.448 26.74C520.888 27.0467 520.255 27.2 519.548 27.2ZM520.248 25.3C520.995 25.3 521.595 25.0333 522.048 24.5C522.502 23.9533 522.728 23.1533 522.728 22.1C522.728 21.0333 522.502 20.24 522.048 19.72C521.595 19.1867 520.995 18.92 520.248 18.92C519.502 18.92 518.902 19.1867 518.448 19.72C517.995 20.24 517.768 21.0333 517.768 22.1C517.768 23.1533 517.995 23.9533 518.448 24.5C518.902 25.0333 519.502 25.3 520.248 25.3ZM528.98 22.94C528.46 22.94 528.18 22.6333 528.14 22.02L527.54 14.38C527.5 13.8867 527.607 13.4933 527.86 13.2C528.114 12.8933 528.487 12.74 528.98 12.74C529.46 12.74 529.82 12.8933 530.06 13.2C530.314 13.4933 530.42 13.8867 530.38 14.38L529.78 22.02C529.74 22.6333 529.474 22.94 528.98 22.94ZM528.98 27.1C528.527 27.1 528.16 26.96 527.88 26.68C527.614 26.4 527.48 26.04 527.48 25.6C527.48 25.1733 527.614 24.8267 527.88 24.56C528.16 24.28 528.527 24.14 528.98 24.14C529.447 24.14 529.807 24.28 530.06 24.56C530.327 24.8267 530.46 25.1733 530.46 25.6C530.46 26.04 530.327 26.4 530.06 26.68C529.807 26.96 529.447 27.1 528.98 27.1ZM541.951 27.16C541.258 27.16 540.778 26.8133 540.511 26.12L537.611 18.72C537.438 18.2533 537.444 17.86 537.631 17.54C537.831 17.22 538.178 17.06 538.671 17.06C538.964 17.06 539.204 17.1333 539.391 17.28C539.578 17.4133 539.738 17.6733 539.871 18.06L542.071 24.08L544.331 17.9C544.544 17.34 544.924 17.06 545.471 17.06C546.031 17.06 546.411 17.34 546.611 17.9L548.871 24.14L551.091 18C551.224 17.64 551.391 17.3933 551.591 17.26C551.804 17.1267 552.038 17.06 552.291 17.06C552.771 17.06 553.084 17.2333 553.231 17.58C553.378 17.9133 553.364 18.2933 553.191 18.72L550.311 26.12C550.031 26.8133 549.551 27.16 548.871 27.16C548.164 27.16 547.684 26.8133 547.431 26.12L545.391 20.7L543.391 26.1C543.138 26.8067 542.658 27.16 541.951 27.16ZM559.847 27.2C558.74 27.2 557.787 26.9933 556.987 26.58C556.187 26.1667 555.567 25.58 555.127 24.82C554.7 24.06 554.487 23.16 554.487 22.12C554.487 21.1067 554.693 20.22 555.107 19.46C555.533 18.7 556.113 18.1067 556.847 17.68C557.593 17.24 558.44 17.02 559.387 17.02C560.773 17.02 561.867 17.46 562.667 18.34C563.48 19.22 563.887 20.42 563.887 21.94C563.887 22.4333 563.567 22.68 562.927 22.68H556.887C557.073 24.4267 558.073 25.3 559.887 25.3C560.233 25.3 560.62 25.26 561.047 25.18C561.487 25.0867 561.9 24.9333 562.287 24.72C562.633 24.52 562.927 24.46 563.167 24.54C563.407 24.6067 563.573 24.7467 563.667 24.96C563.773 25.1733 563.787 25.4133 563.707 25.68C563.64 25.9333 563.453 26.1533 563.147 26.34C562.68 26.6333 562.14 26.8533 561.527 27C560.927 27.1333 560.367 27.2 559.847 27.2ZM559.487 18.72C558.753 18.72 558.16 18.9467 557.707 19.4C557.253 19.8533 556.98 20.4667 556.887 21.24H561.807C561.753 20.4267 561.527 19.8067 561.127 19.38C560.74 18.94 560.193 18.72 559.487 18.72ZM575.076 27.16C574.383 27.16 573.903 26.8133 573.636 26.12L570.736 18.72C570.563 18.2533 570.569 17.86 570.756 17.54C570.956 17.22 571.303 17.06 571.796 17.06C572.089 17.06 572.329 17.1333 572.516 17.28C572.703 17.4133 572.863 17.6733 572.996 18.06L575.196 24.08L577.456 17.9C577.669 17.34 578.049 17.06 578.596 17.06C579.156 17.06 579.536 17.34 579.736 17.9L581.996 24.14L584.216 18C584.349 17.64 584.516 17.3933 584.716 17.26C584.929 17.1267 585.163 17.06 585.416 17.06C585.896 17.06 586.209 17.2333 586.356 17.58C586.503 17.9133 586.489 18.2933 586.316 18.72L583.436 26.12C583.156 26.8133 582.676 27.16 581.996 27.16C581.289 27.16 580.809 26.8133 580.556 26.12L578.516 20.7L576.516 26.1C576.263 26.8067 575.783 27.16 575.076 27.16ZM589.587 15.22C589.12 15.22 588.754 15.1067 588.487 14.88C588.234 14.64 588.107 14.3133 588.107 13.9C588.107 13.4733 588.234 13.1467 588.487 12.92C588.754 12.6933 589.12 12.58 589.587 12.58C590.574 12.58 591.067 13.02 591.067 13.9C591.067 14.78 590.574 15.22 589.587 15.22ZM589.587 27.14C589.187 27.14 588.88 27.02 588.667 26.78C588.454 26.54 588.347 26.2067 588.347 25.78V18.44C588.347 17.5333 588.76 17.08 589.587 17.08C590.427 17.08 590.847 17.5333 590.847 18.44V25.78C590.847 26.2067 590.74 26.54 590.527 26.78C590.314 27.02 590 27.14 589.587 27.14ZM596.785 27.2C594.558 27.2 593.445 25.9533 593.445 23.46V14C593.445 13.16 593.858 12.74 594.685 12.74C595.525 12.74 595.945 13.16 595.945 14V23.34C595.945 24.54 596.445 25.14 597.445 25.14C597.551 25.14 597.651 25.14 597.745 25.14C597.838 25.1267 597.931 25.1133 598.025 25.1C598.211 25.0733 598.338 25.1267 598.405 25.26C598.471 25.38 598.505 25.6333 598.505 26.02C598.505 26.3533 598.438 26.6133 598.305 26.8C598.171 26.9867 597.951 27.1 597.645 27.14C597.365 27.18 597.078 27.2 596.785 27.2ZM603.171 27.2C600.945 27.2 599.831 25.9533 599.831 23.46V14C599.831 13.16 600.245 12.74 601.071 12.74C601.911 12.74 602.331 13.16 602.331 14V23.34C602.331 24.54 602.831 25.14 603.831 25.14C603.938 25.14 604.038 25.14 604.131 25.14C604.225 25.1267 604.318 25.1133 604.411 25.1C604.598 25.0733 604.725 25.1267 604.791 25.26C604.858 25.38 604.891 25.6333 604.891 26.02C604.891 26.3533 604.825 26.6133 604.691 26.8C604.558 26.9867 604.338 27.1 604.031 27.14C603.751 27.18 603.465 27.2 603.171 27.2ZM612.928 27.16C612.074 27.16 611.648 26.7333 611.648 25.88V18.32C611.648 17.48 612.054 17.06 612.868 17.06C613.681 17.06 614.088 17.48 614.088 18.32V18.94C614.568 17.7933 615.594 17.1533 617.168 17.02C617.741 16.9533 618.061 17.28 618.128 18C618.194 18.7067 617.848 19.1 617.088 19.18L616.648 19.22C615.008 19.38 614.188 20.22 614.188 21.74V25.88C614.188 26.7333 613.768 27.16 612.928 27.16ZM624.143 27.2C623.037 27.2 622.083 26.9933 621.283 26.58C620.483 26.1667 619.863 25.58 619.423 24.82C618.997 24.06 618.783 23.16 618.783 22.12C618.783 21.1067 618.99 20.22 619.403 19.46C619.83 18.7 620.41 18.1067 621.143 17.68C621.89 17.24 622.737 17.02 623.683 17.02C625.07 17.02 626.163 17.46 626.963 18.34C627.777 19.22 628.183 20.42 628.183 21.94C628.183 22.4333 627.863 22.68 627.223 22.68H621.183C621.37 24.4267 622.37 25.3 624.183 25.3C624.53 25.3 624.917 25.26 625.343 25.18C625.783 25.0867 626.197 24.9333 626.583 24.72C626.93 24.52 627.223 24.46 627.463 24.54C627.703 24.6067 627.87 24.7467 627.963 24.96C628.07 25.1733 628.083 25.4133 628.003 25.68C627.937 25.9333 627.75 26.1533 627.443 26.34C626.977 26.6333 626.437 26.8533 625.823 27C625.223 27.1333 624.663 27.2 624.143 27.2ZM623.783 18.72C623.05 18.72 622.457 18.9467 622.003 19.4C621.55 19.8533 621.277 20.4667 621.183 21.24H626.103C626.05 20.4267 625.823 19.8067 625.423 19.38C625.037 18.94 624.49 18.72 623.783 18.72ZM633.383 27.2C632.677 27.2 632.043 27.0667 631.483 26.8C630.937 26.52 630.503 26.1467 630.183 25.68C629.877 25.2133 629.723 24.6867 629.723 24.1C629.723 23.38 629.91 22.8133 630.283 22.4C630.657 21.9733 631.263 21.6667 632.103 21.48C632.943 21.2933 634.07 21.2 635.483 21.2H636.183V20.78C636.183 20.1133 636.037 19.6333 635.743 19.34C635.45 19.0467 634.957 18.9 634.263 18.9C633.877 18.9 633.457 18.9467 633.003 19.04C632.563 19.1333 632.097 19.2933 631.603 19.52C631.283 19.6667 631.017 19.6867 630.803 19.58C630.59 19.46 630.443 19.28 630.363 19.04C630.297 18.7867 630.31 18.5333 630.403 18.28C630.51 18.0267 630.717 17.84 631.023 17.72C631.637 17.4667 632.223 17.2867 632.783 17.18C633.357 17.0733 633.877 17.02 634.343 17.02C635.77 17.02 636.83 17.3533 637.523 18.02C638.217 18.6733 638.563 19.6933 638.563 21.08V25.88C638.563 26.7333 638.177 27.16 637.403 27.16C636.617 27.16 636.223 26.7333 636.223 25.88V25.44C635.997 25.9867 635.637 26.42 635.143 26.74C634.65 27.0467 634.063 27.2 633.383 27.2ZM633.903 25.48C634.557 25.48 635.097 25.2533 635.523 24.8C635.963 24.3467 636.183 23.7733 636.183 23.08V22.64H635.503C634.25 22.64 633.377 22.74 632.883 22.94C632.403 23.1267 632.163 23.4733 632.163 23.98C632.163 24.42 632.317 24.78 632.623 25.06C632.93 25.34 633.357 25.48 633.903 25.48ZM645.621 27.2C644.594 27.2 643.701 26.9933 642.941 26.58C642.181 26.1533 641.594 25.5533 641.181 24.78C640.767 24.0067 640.561 23.1 640.561 22.06C640.561 21.02 640.767 20.1267 641.181 19.38C641.594 18.62 642.181 18.04 642.941 17.64C643.701 17.2267 644.594 17.02 645.621 17.02C646.061 17.02 646.534 17.08 647.041 17.2C647.561 17.32 648.047 17.52 648.501 17.8C648.767 17.96 648.921 18.1667 648.961 18.42C649.014 18.6733 648.981 18.9067 648.861 19.12C648.754 19.3333 648.587 19.4867 648.361 19.58C648.147 19.6733 647.901 19.64 647.621 19.48C647.007 19.1333 646.414 18.96 645.841 18.96C644.974 18.96 644.301 19.2333 643.821 19.78C643.354 20.3133 643.121 21.08 643.121 22.08C643.121 23.0667 643.354 23.8467 643.821 24.42C644.301 24.98 644.974 25.26 645.841 25.26C646.414 25.26 647.007 25.0933 647.621 24.76C647.901 24.6 648.147 24.5667 648.361 24.66C648.574 24.7533 648.727 24.9133 648.821 25.14C648.914 25.3533 648.934 25.5867 648.881 25.84C648.827 26.08 648.674 26.28 648.421 26.44C647.981 26.7067 647.514 26.9 647.021 27.02C646.527 27.14 646.061 27.2 645.621 27.2ZM651.774 27.16C650.948 27.16 650.534 26.7333 650.534 25.88V14C650.534 13.16 650.948 12.74 651.774 12.74C652.614 12.74 653.034 13.16 653.034 14V18.64C653.368 18.1067 653.814 17.7067 654.374 17.44C654.934 17.16 655.554 17.02 656.234 17.02C658.541 17.02 659.694 18.36 659.694 21.04V25.88C659.694 26.7333 659.281 27.16 658.454 27.16C657.614 27.16 657.194 26.7333 657.194 25.88V21.16C657.194 20.4 657.048 19.8467 656.754 19.5C656.474 19.1533 656.034 18.98 655.434 18.98C654.701 18.98 654.114 19.2133 653.674 19.68C653.248 20.1333 653.034 20.74 653.034 21.5V25.88C653.034 26.7333 652.614 27.16 651.774 27.16ZM670.143 30.76C669.69 30.76 669.377 30.5933 669.203 30.26C669.03 29.9267 669.037 29.5467 669.223 29.12L670.363 26.6L666.943 18.72C666.757 18.28 666.757 17.8933 666.943 17.56C667.13 17.2267 667.497 17.06 668.043 17.06C668.35 17.06 668.597 17.1333 668.783 17.28C668.97 17.4133 669.137 17.6733 669.283 18.06L671.683 24.06L674.143 18.04C674.29 17.6667 674.463 17.4133 674.663 17.28C674.863 17.1333 675.13 17.06 675.463 17.06C675.89 17.06 676.19 17.2267 676.363 17.56C676.537 17.8933 676.53 18.2733 676.343 18.7L671.483 29.8C671.31 30.1733 671.123 30.4267 670.923 30.56C670.723 30.6933 670.463 30.76 670.143 30.76ZM682.455 27.2C681.442 27.2 680.562 26.9933 679.815 26.58C679.069 26.1667 678.489 25.58 678.075 24.82C677.662 24.0467 677.455 23.14 677.455 22.1C677.455 21.06 677.662 20.16 678.075 19.4C678.489 18.64 679.069 18.0533 679.815 17.64C680.562 17.2267 681.442 17.02 682.455 17.02C683.469 17.02 684.349 17.2267 685.095 17.64C685.842 18.0533 686.422 18.64 686.835 19.4C687.249 20.16 687.455 21.06 687.455 22.1C687.455 23.14 687.249 24.0467 686.835 24.82C686.422 25.58 685.842 26.1667 685.095 26.58C684.349 26.9933 683.469 27.2 682.455 27.2ZM682.455 25.3C683.202 25.3 683.802 25.0333 684.255 24.5C684.709 23.9533 684.935 23.1533 684.935 22.1C684.935 21.0333 684.709 20.24 684.255 19.72C683.802 19.1867 683.202 18.92 682.455 18.92C681.709 18.92 681.109 19.1867 680.655 19.72C680.202 20.24 679.975 21.0333 679.975 22.1C679.975 23.1533 680.202 23.9533 680.655 24.5C681.109 25.0333 681.709 25.3 682.455 25.3ZM693.059 27.2C690.659 27.2 689.459 25.8533 689.459 23.16V18.32C689.459 17.48 689.872 17.06 690.699 17.06C691.539 17.06 691.959 17.48 691.959 18.32V23.2C691.959 23.8933 692.099 24.4067 692.379 24.74C692.659 25.0733 693.105 25.24 693.719 25.24C694.385 25.24 694.932 25.0133 695.359 24.56C695.785 24.0933 695.999 23.48 695.999 22.72V18.32C695.999 17.48 696.412 17.06 697.239 17.06C698.079 17.06 698.499 17.48 698.499 18.32V25.88C698.499 26.7333 698.092 27.16 697.279 27.16C696.465 27.16 696.059 26.7333 696.059 25.88V25.54C695.405 26.6467 694.405 27.2 693.059 27.2ZM710.11 27.2C709.537 27.2 708.93 27.14 708.29 27.02C707.65 26.9 707.077 26.6933 706.57 26.4C706.29 26.24 706.117 26.0467 706.05 25.82C705.984 25.58 705.99 25.36 706.07 25.16C706.164 24.9467 706.31 24.7933 706.51 24.7C706.724 24.6067 706.97 24.6267 707.25 24.76C707.784 25.0133 708.284 25.1933 708.75 25.3C709.217 25.3933 709.677 25.44 710.13 25.44C710.77 25.44 711.244 25.3333 711.55 25.12C711.87 24.8933 712.03 24.6 712.03 24.24C712.03 23.68 711.617 23.32 710.79 23.16L708.79 22.78C707.097 22.46 706.25 21.58 706.25 20.14C706.25 19.5 706.424 18.9467 706.77 18.48C707.13 18.0133 707.624 17.6533 708.25 17.4C708.877 17.1467 709.597 17.02 710.41 17.02C711.584 17.02 712.63 17.28 713.55 17.8C713.804 17.9333 713.95 18.12 713.99 18.36C714.044 18.5867 714.017 18.8067 713.91 19.02C713.817 19.22 713.664 19.3667 713.45 19.46C713.237 19.54 712.99 19.5133 712.71 19.38C712.297 19.1667 711.897 19.0133 711.51 18.92C711.137 18.8267 710.777 18.78 710.43 18.78C709.777 18.78 709.29 18.8933 708.97 19.12C708.664 19.3467 708.51 19.6467 708.51 20.02C708.51 20.6067 708.89 20.9667 709.65 21.1L711.65 21.48C712.517 21.64 713.17 21.9333 713.61 22.36C714.064 22.7867 714.29 23.36 714.29 24.08C714.29 25.0533 713.91 25.82 713.15 26.38C712.39 26.9267 711.377 27.2 710.11 27.2ZM720.756 27.2C719.743 27.2 718.863 26.9933 718.116 26.58C717.369 26.1667 716.789 25.58 716.376 24.82C715.963 24.0467 715.756 23.14 715.756 22.1C715.756 21.06 715.963 20.16 716.376 19.4C716.789 18.64 717.369 18.0533 718.116 17.64C718.863 17.2267 719.743 17.02 720.756 17.02C721.769 17.02 722.649 17.2267 723.396 17.64C724.143 18.0533 724.723 18.64 725.136 19.4C725.549 20.16 725.756 21.06 725.756 22.1C725.756 23.14 725.549 24.0467 725.136 24.82C724.723 25.58 724.143 26.1667 723.396 26.58C722.649 26.9933 721.769 27.2 720.756 27.2ZM720.756 25.3C721.503 25.3 722.103 25.0333 722.556 24.5C723.009 23.9533 723.236 23.1533 723.236 22.1C723.236 21.0333 723.009 20.24 722.556 19.72C722.103 19.1867 721.503 18.92 720.756 18.92C720.009 18.92 719.409 19.1867 718.956 19.72C718.503 20.24 718.276 21.0333 718.276 22.1C718.276 23.1533 718.503 23.9533 718.956 24.5C719.409 25.0333 720.009 25.3 720.756 25.3ZM732.28 27.2C731.266 27.2 730.386 26.9933 729.64 26.58C728.893 26.1667 728.313 25.58 727.9 24.82C727.486 24.0467 727.28 23.14 727.28 22.1C727.28 21.06 727.486 20.16 727.9 19.4C728.313 18.64 728.893 18.0533 729.64 17.64C730.386 17.2267 731.266 17.02 732.28 17.02C733.293 17.02 734.173 17.2267 734.92 17.64C735.666 18.0533 736.246 18.64 736.66 19.4C737.073 20.16 737.28 21.06 737.28 22.1C737.28 23.14 737.073 24.0467 736.66 24.82C736.246 25.58 735.666 26.1667 734.92 26.58C734.173 26.9933 733.293 27.2 732.28 27.2ZM732.28 25.3C733.026 25.3 733.626 25.0333 734.08 24.5C734.533 23.9533 734.76 23.1533 734.76 22.1C734.76 21.0333 734.533 20.24 734.08 19.72C733.626 19.1867 733.026 18.92 732.28 18.92C731.533 18.92 730.933 19.1867 730.48 19.72C730.026 20.24 729.8 21.0333 729.8 22.1C729.8 23.1533 730.026 23.9533 730.48 24.5C730.933 25.0333 731.533 25.3 732.28 25.3ZM740.583 27.16C739.756 27.16 739.343 26.7333 739.343 25.88V18.32C739.343 17.48 739.75 17.06 740.563 17.06C741.376 17.06 741.783 17.48 741.783 18.32V18.74C742.116 18.18 742.563 17.7533 743.123 17.46C743.696 17.1667 744.336 17.02 745.043 17.02C747.35 17.02 748.503 18.36 748.503 21.04V25.88C748.503 26.7333 748.09 27.16 747.263 27.16C746.423 27.16 746.003 26.7333 746.003 25.88V21.16C746.003 20.4 745.856 19.8467 745.563 19.5C745.283 19.1533 744.843 18.98 744.243 18.98C743.51 18.98 742.923 19.2133 742.483 19.68C742.056 20.1333 741.843 20.74 741.843 21.5V25.88C741.843 26.7333 741.423 27.16 740.583 27.16Z" fill="#333533"/>
<path d="M40.7069 15.7282L34.2028 22.2291L31.2928 19.3191C30.9178 18.9441 30.3057 18.9441 29.9307 19.3191C29.5557 19.6941 29.5557 20.3062 29.9307 20.6812L33.5216 24.2722C33.7106 24.4611 33.9567 24.5543 34.2026 24.5543C34.4487 24.5543 34.6945 24.4614 34.8835 24.2722L42.0685 17.0899C42.4435 16.7149 42.4435 16.1028 42.0685 15.7278C41.6904 15.3498 41.0814 15.3498 40.7064 15.728L40.7069 15.7282Z" fill="#333533"/>
<path d="M36 8C29.3818 8 24 13.3818 24 20C24 26.6182 29.3818 32 36 32C42.6182 32 48 26.6182 48 20C48 13.3818 42.6182 8 36 8ZM36 30.0741C30.4468 30.0741 25.9259 25.5561 25.9259 20C25.9259 14.4439 30.4468 9.92589 36 9.92589C41.5532 9.92589 46.0741 14.4439 46.0741 20C46.0741 25.5561 41.5532 30.0741 36 30.0741Z" fill="#333533"/>
</svg>
