<svg width="114" height="43" viewBox="0 0 114 43" fill="none" xmlns="http://www.w3.org/2000/svg">
<rect x="1" y="1" width="112" height="41" rx="20.5" stroke="url(#paint0_linear_13_1448)" stroke-width="2"/>
<path d="M27.3322 28C26.4655 28 26.0322 27.56 26.0322 26.68V15.14C26.0322 14.2733 26.4589 13.84 27.3122 13.84C28.1655 13.84 28.5922 14.2733 28.5922 15.14V25.82H34.3922C35.1389 25.82 35.5122 26.18 35.5122 26.9C35.5122 27.6333 35.1389 28 34.3922 28H27.3322ZM41.385 28.2C40.3717 28.2 39.4917 27.9933 38.745 27.58C37.9983 27.1667 37.4183 26.58 37.005 25.82C36.5917 25.0467 36.385 24.14 36.385 23.1C36.385 22.06 36.5917 21.16 37.005 20.4C37.4183 19.64 37.9983 19.0533 38.745 18.64C39.4917 18.2267 40.3717 18.02 41.385 18.02C42.3983 18.02 43.2783 18.2267 44.025 18.64C44.7717 19.0533 45.3517 19.64 45.765 20.4C46.1783 21.16 46.385 22.06 46.385 23.1C46.385 24.14 46.1783 25.0467 45.765 25.82C45.3517 26.58 44.7717 27.1667 44.025 27.58C43.2783 27.9933 42.3983 28.2 41.385 28.2ZM41.385 26.3C42.1317 26.3 42.7317 26.0333 43.185 25.5C43.6383 24.9533 43.865 24.1533 43.865 23.1C43.865 22.0333 43.6383 21.24 43.185 20.72C42.7317 20.1867 42.1317 19.92 41.385 19.92C40.6383 19.92 40.0383 20.1867 39.585 20.72C39.1317 21.24 38.905 22.0333 38.905 23.1C38.905 24.1533 39.1317 24.9533 39.585 25.5C40.0383 26.0333 40.6383 26.3 41.385 26.3ZM53.0084 31.8C52.2884 31.8 51.5884 31.7333 50.9084 31.6C50.2418 31.4667 49.6351 31.26 49.0884 30.98C48.7684 30.82 48.5751 30.6133 48.5084 30.36C48.4551 30.12 48.4818 29.8867 48.5884 29.66C48.6951 29.4333 48.8551 29.2667 49.0684 29.16C49.2951 29.0667 49.5351 29.08 49.7884 29.2C50.3751 29.4933 50.9284 29.68 51.4484 29.76C51.9818 29.8533 52.4351 29.9 52.8084 29.9C54.5951 29.9 55.4884 29.04 55.4884 27.32V25.98C55.2084 26.5267 54.7751 26.96 54.1884 27.28C53.6151 27.6 52.9751 27.76 52.2684 27.76C51.3884 27.76 50.6218 27.56 49.9684 27.16C49.3151 26.7467 48.8084 26.1733 48.4484 25.44C48.0884 24.7067 47.9084 23.8533 47.9084 22.88C47.9084 21.9067 48.0884 21.06 48.4484 20.34C48.8084 19.6067 49.3151 19.04 49.9684 18.64C50.6218 18.2267 51.3884 18.02 52.2684 18.02C52.9751 18.02 53.6151 18.1733 54.1884 18.48C54.7618 18.7867 55.1818 19.2067 55.4484 19.74V19.32C55.4484 18.9067 55.5551 18.5933 55.7684 18.38C55.9951 18.1667 56.3018 18.06 56.6884 18.06C57.5151 18.06 57.9284 18.48 57.9284 19.32V27.02C57.9284 28.6067 57.5084 29.8 56.6684 30.6C55.8284 31.4 54.6084 31.8 53.0084 31.8ZM52.9484 25.86C53.7218 25.86 54.3351 25.5933 54.7884 25.06C55.2418 24.5267 55.4684 23.8 55.4684 22.88C55.4684 21.96 55.2418 21.24 54.7884 20.72C54.3351 20.1867 53.7218 19.92 52.9484 19.92C52.1751 19.92 51.5618 20.1867 51.1084 20.72C50.6551 21.24 50.4284 21.96 50.4284 22.88C50.4284 23.8 50.6551 24.5267 51.1084 25.06C51.5618 25.5933 52.1751 25.86 52.9484 25.86ZM64.9788 28.2C63.9654 28.2 63.0854 27.9933 62.3388 27.58C61.5921 27.1667 61.0121 26.58 60.5988 25.82C60.1854 25.0467 59.9788 24.14 59.9788 23.1C59.9788 22.06 60.1854 21.16 60.5988 20.4C61.0121 19.64 61.5921 19.0533 62.3388 18.64C63.0854 18.2267 63.9654 18.02 64.9788 18.02C65.9921 18.02 66.8721 18.2267 67.6188 18.64C68.3654 19.0533 68.9454 19.64 69.3588 20.4C69.7721 21.16 69.9788 22.06 69.9788 23.1C69.9788 24.14 69.7721 25.0467 69.3588 25.82C68.9454 26.58 68.3654 27.1667 67.6188 27.58C66.8721 27.9933 65.9921 28.2 64.9788 28.2ZM64.9788 26.3C65.7254 26.3 66.3254 26.0333 66.7788 25.5C67.2321 24.9533 67.4588 24.1533 67.4588 23.1C67.4588 22.0333 67.2321 21.24 66.7788 20.72C66.3254 20.1867 65.7254 19.92 64.9788 19.92C64.2321 19.92 63.6321 20.1867 63.1788 20.72C62.7254 21.24 62.4988 22.0333 62.4988 23.1C62.4988 24.1533 62.7254 24.9533 63.1788 25.5C63.6321 26.0333 64.2321 26.3 64.9788 26.3ZM75.5822 28.2C73.1822 28.2 71.9822 26.8533 71.9822 24.16V19.32C71.9822 18.48 72.3955 18.06 73.2222 18.06C74.0622 18.06 74.4822 18.48 74.4822 19.32V24.2C74.4822 24.8933 74.6222 25.4067 74.9022 25.74C75.1822 26.0733 75.6289 26.24 76.2422 26.24C76.9089 26.24 77.4555 26.0133 77.8822 25.56C78.3089 25.0933 78.5222 24.48 78.5222 23.72V19.32C78.5222 18.48 78.9355 18.06 79.7622 18.06C80.6022 18.06 81.0222 18.48 81.0222 19.32V26.88C81.0222 27.7333 80.6155 28.16 79.8022 28.16C78.9889 28.16 78.5822 27.7333 78.5822 26.88V26.54C77.9289 27.6467 76.9289 28.2 75.5822 28.2ZM88.1042 28.2C85.5176 28.2 84.2242 26.92 84.2242 24.36V20.1H83.1842C82.5176 20.1 82.1842 19.7867 82.1842 19.16C82.1842 18.5333 82.5176 18.22 83.1842 18.22H84.2242V16.4C84.2242 15.56 84.6442 15.14 85.4842 15.14C86.3109 15.14 86.7242 15.56 86.7242 16.4V18.22H88.8442C89.5109 18.22 89.8442 18.5333 89.8442 19.16C89.8442 19.7867 89.5109 20.1 88.8442 20.1H86.7242V24.22C86.7242 24.86 86.8642 25.34 87.1442 25.66C87.4242 25.98 87.8776 26.14 88.5042 26.14C88.7309 26.14 88.9309 26.12 89.1042 26.08C89.2776 26.04 89.4309 26.0133 89.5642 26C89.7242 25.9867 89.8576 26.04 89.9642 26.16C90.0709 26.2667 90.1242 26.4933 90.1242 26.84C90.1242 27.1067 90.0776 27.3467 89.9842 27.56C89.9042 27.76 89.7509 27.9 89.5242 27.98C89.3509 28.0333 89.1242 28.08 88.8442 28.12C88.5642 28.1733 88.3176 28.2 88.1042 28.2Z" fill="white"/>
<defs>
<linearGradient id="paint0_linear_13_1448" x1="0" y1="43" x2="114" y2="43" gradientUnits="userSpaceOnUse">
<stop stop-color="#FFD100"/>
<stop offset="0.46875" stop-color="#FFEE32"/>
<stop offset="1" stop-color="#D6D6D6"/>
</linearGradient>
</defs>
</svg>
