<svg width="120" height="119" viewBox="0 0 120 119" fill="none" xmlns="http://www.w3.org/2000/svg">
<path d="M118.733 87.3632C112.658 81.0122 104.706 77.3577 96.1816 76.8719V64.905C98.4152 64.1107 100.029 61.9994 100.029 59.4999C100.029 57.0012 98.4153 54.8899 96.1816 54.0948V37.9551C97.3066 37.4367 98.2049 36.483 98.6153 35.2544L101.416 26.8709H113.494C116.676 26.8709 119.265 24.2876 119.265 21.1129V5.75805C119.265 2.58334 116.676 0 113.494 0H75.0215C71.8397 0 69.2506 2.58334 69.2506 5.75805V11.5161H67.327C64.1452 11.5161 61.5561 14.0994 61.5561 17.2742V34.6459C60.9198 34.5962 60.2825 34.5483 59.6325 34.5483C58.9824 34.5483 58.3452 34.5962 57.7088 34.6459V23.0322C57.7088 19.8575 55.1197 17.2742 51.938 17.2742H50.0143V9.59676C50.0143 6.42204 47.4252 3.8387 44.2434 3.8387H32.6518C30.8956 1.52188 28.1364 0 25.0072 0C21.8779 0 19.1187 1.52177 17.3626 3.8387H5.77088C2.58909 3.8387 0 6.42204 0 9.59676V28.7903C0 31.965 2.58909 34.5483 5.77088 34.5483H23.0835V54.0948C20.8499 54.8891 19.2363 57.0003 19.2363 59.4999C19.2363 61.9986 20.8499 64.1098 23.0835 64.905V92.1291C16.9468 92.1291 11.4242 95.3227 8.99467 100.173C4.84007 101.297 1.92363 105.026 1.92363 109.403C1.92363 114.695 6.23805 119 11.5418 119H38.4726C43.1159 119 47.0018 115.697 47.8966 111.323H51.938C55.1197 111.323 57.7088 108.739 57.7088 105.565V84.3541C58.3452 84.4038 58.9824 84.4517 59.6325 84.4517C60.2825 84.4517 60.9198 84.4038 61.5561 84.3541V109.404C61.5561 112.579 64.1452 115.162 67.327 115.162H84.6396V111.324H67.327C66.2673 111.324 65.4034 110.463 65.4034 109.404V83.7552C75.8081 81.2892 83.7027 72.3352 84.5418 61.4206H88.8408C89.4214 63.046 90.7052 64.3261 92.3344 64.9063V76.8732C83.8111 77.359 75.8582 81.0135 69.7829 87.3645L68.5153 88.6892L76.3044 96.8292L77.6956 95.3743C82.1258 90.7448 88.0058 88.1955 94.2577 88.1955C100.51 88.1955 106.392 90.7446 110.82 95.3743L112.211 96.8292L120 88.6892L118.733 87.3632ZM94.258 61.4201C93.1983 61.4201 92.3344 60.5598 92.3344 59.5008C92.3344 58.4417 93.1983 57.5814 94.258 57.5814C95.3177 57.5814 96.1816 58.4417 96.1816 59.5008C96.1816 60.5598 95.3177 61.4201 94.258 61.4201ZM73.0981 5.75893C73.0981 4.69987 73.962 3.83958 75.0217 3.83958H113.494C114.554 3.83958 115.418 4.69987 115.418 5.75893V21.1137C115.418 22.1728 114.554 23.0331 113.494 23.0331H98.6419L94.9639 34.0403C94.7621 34.6469 93.7522 34.6469 93.5504 34.0403L89.8739 23.0331H75.0216C73.9619 23.0331 73.0979 22.1728 73.0979 21.1137L73.0981 5.75893ZM65.4036 17.275C65.4036 16.216 66.2675 15.3557 67.3272 15.3557H69.2508V21.1137C69.2508 24.2885 71.8399 26.8718 75.0217 26.8718H87.1001L89.9005 35.2553C90.3118 36.484 91.2084 37.4377 92.3341 37.956V54.0956C90.7051 54.6749 89.4221 55.9559 88.8406 57.5814H84.5416C83.7026 46.6659 75.8079 37.7127 65.4031 35.2467L65.4036 17.275ZM59.6327 80.6136C57.5648 80.6136 55.362 77.6833 53.8447 72.9362H65.4207C63.9033 77.6833 61.7005 80.6136 59.6327 80.6136ZM65.4207 46.0653H53.8447C55.3621 41.3183 57.5666 38.3879 59.6327 38.3879C61.6988 38.3879 63.9034 41.3183 65.4207 46.0653ZM66.7767 39.6527C70.3817 40.9482 73.5437 43.1727 75.9407 46.0653H69.4502C68.7452 43.5796 67.8409 41.417 66.7769 39.6527H66.7767ZM66.4023 49.904C66.872 52.2243 67.1872 54.8044 67.2868 57.5814H51.9785C52.0781 54.8044 52.3958 52.2243 52.863 49.904H66.4023ZM49.8127 46.0653H43.3223C45.719 43.1725 48.8837 40.9482 52.4862 39.6527C51.4248 41.417 50.5205 43.5796 49.8129 46.0653H49.8127ZM40.8077 49.904H48.9195C48.4867 52.2783 48.2196 54.8575 48.1329 57.5814H38.5706C38.8187 54.8368 39.6037 52.2476 40.8077 49.904H40.8077ZM48.1329 61.4201C48.2213 64.1441 48.4867 66.7232 48.9195 69.0975H40.8077C39.6037 66.7539 38.8188 64.1647 38.5689 61.4201H48.1329ZM49.8126 72.9362C50.5203 75.4219 51.4245 77.5846 52.4886 79.3488C48.8836 78.0533 45.7216 75.8288 43.3246 72.9362H49.8126ZM52.863 69.0975C52.3932 66.7772 52.078 64.1971 51.9784 61.4201H67.2868C67.1872 64.1971 66.8694 66.7772 66.4023 69.0975H52.863ZM71.1324 61.4201H80.6947C80.4448 64.1647 79.6616 66.7539 78.4558 69.0975H70.344C70.7785 66.7232 71.0456 64.1441 71.1323 61.4201H71.1324ZM71.1324 57.5814C71.0439 54.8575 70.7785 52.2783 70.3457 49.904H78.4575C79.6615 52.2476 80.4464 54.8368 80.6964 57.5814H71.1324ZM44.2433 7.67828C45.303 7.67828 46.167 8.53857 46.167 9.59763V28.7911C46.167 29.8502 45.303 30.7105 44.2433 30.7105H42.2064C41.4944 24.3132 37.2685 18.9682 31.5035 16.6282C33.4091 14.8742 34.6251 12.3826 34.6251 9.59763C34.6251 8.94128 34.5581 8.29864 34.431 7.67828H44.2433ZM38.3188 30.7105H11.6958C12.6344 24.2112 18.2379 19.1944 25.0075 19.1944C31.7771 19.1944 37.3805 24.2112 38.3192 30.7105H38.3188ZM25.0071 3.83958C28.1888 3.83958 30.7779 6.42292 30.7779 9.59763C30.7779 12.7723 28.1888 15.3557 25.0071 15.3557C21.8253 15.3557 19.2362 12.7723 19.2362 9.59763C19.2362 6.42292 21.8253 3.83958 25.0071 3.83958ZM3.84715 28.7911V9.59763C3.84715 8.53857 4.71106 7.67828 5.77077 7.67828H15.583C15.4559 8.29864 15.389 8.94128 15.389 9.59763C15.389 12.3823 16.605 14.8742 18.5114 16.6282C12.7456 18.9682 8.51973 24.3132 7.80766 30.7105H5.77068C4.71097 30.7105 3.84706 29.8502 3.84706 28.7911H3.84715ZM44.2433 34.5492C47.4251 34.5492 50.0142 31.9659 50.0142 28.7911V21.1137H51.9379C52.9976 21.1137 53.8615 21.974 53.8615 23.0331V35.2459C43.4567 37.7118 35.5622 46.6659 34.723 57.5805H30.424C29.8435 55.9551 28.5596 54.675 26.9305 54.0948V34.5483L44.2433 34.5492ZM25.0071 57.5814C26.0668 57.5814 26.9307 58.4417 26.9307 59.5008C26.9307 60.5598 26.0668 61.4201 25.0071 61.4201C23.9473 61.4201 23.0834 60.5598 23.0834 59.5008C23.0834 58.4417 23.9473 57.5814 25.0071 57.5814ZM38.4725 115.162H11.5417C8.35987 115.162 5.77077 112.579 5.77077 109.404C5.77077 106.565 7.82149 104.183 10.6469 103.743L11.7298 103.573L12.136 102.558C13.7092 98.6169 18.1113 95.9684 23.0835 95.9684C28.1467 95.9684 32.6957 98.7899 34.1443 102.828L34.7866 104.621L36.5875 103.995C37.2642 103.761 37.8782 103.646 38.4725 103.646C41.6542 103.646 44.2433 106.229 44.2433 109.404C44.2433 112.578 41.6542 115.162 38.4725 115.162V115.162ZM53.8615 105.565C53.8615 106.624 52.9976 107.485 51.9379 107.485H47.8965C47.0016 103.11 43.1184 99.8071 38.4725 99.8071C38.001 99.8071 37.5321 99.8457 37.0564 99.9245C35.1138 96.2297 31.3782 93.5718 26.9306 92.577V64.9055C28.5597 64.3262 29.8426 63.0452 30.4241 61.4197H34.7232C35.5622 72.3352 43.4569 81.2884 53.8616 83.7544L53.8615 105.565ZM66.7764 79.348C67.8404 77.5837 68.7447 75.4211 69.4523 72.9353H75.9427C73.5443 75.8282 70.3814 78.0524 66.7764 79.348ZM112.163 91.319C107.196 86.8146 100.91 84.3554 94.2579 84.3554C87.6061 84.3554 81.3197 86.8137 76.3528 91.319L73.8692 88.7245C79.4959 83.4806 86.6691 80.6127 94.2579 80.6127C101.847 80.6127 109.02 83.4806 114.647 88.7254L112.163 91.319Z" fill="#FFD100"/>
</svg>
