<svg width="203" height="76" viewBox="0 0 203 76" fill="none" xmlns="http://www.w3.org/2000/svg">
<path d="M58.5369 49.32C57.1075 49.32 55.7102 49.16 54.3449 48.84C53.0009 48.52 51.8275 48.04 50.8249 47.4C50.3342 47.08 50.0355 46.6853 49.9289 46.216C49.8222 45.7467 49.8542 45.3093 50.0249 44.904C50.2169 44.4773 50.5049 44.1893 50.8889 44.04C51.2942 43.8693 51.7529 43.944 52.2649 44.264C53.2035 44.8187 54.1955 45.224 55.2409 45.48C56.2862 45.736 57.3849 45.864 58.5369 45.864C60.2222 45.864 61.4489 45.5867 62.2169 45.032C62.9849 44.456 63.3689 43.72 63.3689 42.824C63.3689 42.0773 63.0915 41.4907 62.5369 41.064C62.0035 40.6373 61.0755 40.2853 59.7529 40.008L56.2329 39.272C52.2222 38.4187 50.2169 36.36 50.2169 33.096C50.2169 31.688 50.5902 30.4613 51.3369 29.416C52.0835 28.3707 53.1182 27.56 54.4409 26.984C55.7635 26.408 57.2889 26.12 59.0169 26.12C60.2969 26.12 61.5129 26.28 62.6649 26.6C63.8169 26.92 64.8515 27.3893 65.7689 28.008C66.1955 28.3067 66.4515 28.68 66.5369 29.128C66.6222 29.5547 66.5689 29.96 66.3769 30.344C66.1849 30.7067 65.8755 30.9627 65.4489 31.112C65.0435 31.24 64.5635 31.144 64.0089 30.824C63.2195 30.376 62.4195 30.056 61.6089 29.864C60.7982 29.672 59.9235 29.576 58.9849 29.576C57.5129 29.576 56.3609 29.8853 55.5289 30.504C54.6969 31.1227 54.2809 31.9333 54.2809 32.936C54.2809 33.704 54.5369 34.3227 55.0489 34.792C55.5609 35.24 56.4355 35.592 57.6729 35.848L61.1609 36.584C63.2729 37.032 64.8409 37.736 65.8649 38.696C66.9102 39.656 67.4329 40.936 67.4329 42.536C67.4329 43.88 67.0702 45.064 66.3449 46.088C65.6195 47.112 64.5849 47.912 63.2409 48.488C61.9182 49.0427 60.3502 49.32 58.5369 49.32ZM76.2284 49.32C72.3884 49.32 70.4684 47.1653 70.4684 42.856V35.112C70.4684 33.768 71.1297 33.096 72.4524 33.096C73.7964 33.096 74.4684 33.768 74.4684 35.112V42.92C74.4684 44.0293 74.6924 44.8507 75.1404 45.384C75.5884 45.9173 76.303 46.184 77.2844 46.184C78.351 46.184 79.2257 45.8213 79.9084 45.096C80.591 44.3493 80.9324 43.368 80.9324 42.152V35.112C80.9324 33.768 81.5937 33.096 82.9164 33.096C84.2604 33.096 84.9324 33.768 84.9324 35.112V47.208C84.9324 48.5733 84.2817 49.256 82.9804 49.256C81.679 49.256 81.0284 48.5733 81.0284 47.208V46.664C79.983 48.4347 78.383 49.32 76.2284 49.32ZM98.1196 49.32C96.9676 49.32 95.9436 49.0747 95.0476 48.584C94.1516 48.072 93.4796 47.3893 93.0316 46.536V47.208C93.0316 48.5733 92.381 49.256 91.0796 49.256C89.757 49.256 89.0956 48.5733 89.0956 47.208V28.2C89.0956 26.856 89.757 26.184 91.0796 26.184C92.4236 26.184 93.0956 26.856 93.0956 28.2V35.656C93.565 34.8667 94.237 34.2373 95.1116 33.768C96.0076 33.2773 97.0103 33.032 98.1196 33.032C99.5063 33.032 100.712 33.3627 101.736 34.024C102.76 34.6853 103.56 35.624 104.136 36.84C104.712 38.0347 105 39.4747 105 41.16C105 42.824 104.712 44.2747 104.136 45.512C103.56 46.728 102.749 47.6667 101.704 48.328C100.68 48.9893 99.485 49.32 98.1196 49.32ZM96.9996 46.28C98.1943 46.28 99.1543 45.8533 99.8796 45C100.605 44.1253 100.968 42.8453 100.968 41.16C100.968 39.4533 100.605 38.184 99.8796 37.352C99.1543 36.4987 98.1943 36.072 96.9996 36.072C95.805 36.072 94.845 36.4987 94.1196 37.352C93.3943 38.184 93.0316 39.4533 93.0316 41.16C93.0316 42.8453 93.3943 44.1253 94.1196 45C94.845 45.8533 95.805 46.28 96.9996 46.28ZM110.331 49.256C109.008 49.256 108.347 48.5733 108.347 47.208V35.112C108.347 33.768 108.998 33.096 110.299 33.096C111.6 33.096 112.251 33.768 112.251 35.112V35.752C112.72 34.8987 113.371 34.2373 114.203 33.768C115.035 33.2773 115.995 33.032 117.083 33.032C119.43 33.032 120.966 34.056 121.691 36.104C122.182 35.144 122.886 34.3973 123.803 33.864C124.72 33.3093 125.766 33.032 126.939 33.032C130.459 33.032 132.219 35.176 132.219 39.464V47.208C132.219 48.5733 131.547 49.256 130.203 49.256C128.88 49.256 128.219 48.5733 128.219 47.208V39.624C128.219 38.4293 128.016 37.5547 127.611 37C127.227 36.4453 126.566 36.168 125.627 36.168C124.582 36.168 123.76 36.5413 123.163 37.288C122.566 38.0133 122.267 39.0267 122.267 40.328V47.208C122.267 48.5733 121.606 49.256 120.283 49.256C118.939 49.256 118.267 48.5733 118.267 47.208V39.624C118.267 38.4293 118.064 37.5547 117.659 37C117.275 36.4453 116.624 36.168 115.707 36.168C114.662 36.168 113.84 36.5413 113.243 37.288C112.646 38.0133 112.347 39.0267 112.347 40.328V47.208C112.347 48.5733 111.675 49.256 110.331 49.256ZM138.33 30.152C137.583 30.152 136.996 29.9707 136.57 29.608C136.164 29.224 135.962 28.7013 135.962 28.04C135.962 27.3573 136.164 26.8347 136.57 26.472C136.996 26.1093 137.583 25.928 138.33 25.928C139.908 25.928 140.698 26.632 140.698 28.04C140.698 29.448 139.908 30.152 138.33 30.152ZM138.33 49.224C137.69 49.224 137.199 49.032 136.858 48.648C136.516 48.264 136.346 47.7307 136.346 47.048V35.304C136.346 33.8533 137.007 33.128 138.33 33.128C139.674 33.128 140.346 33.8533 140.346 35.304V47.048C140.346 47.7307 140.175 48.264 139.834 48.648C139.492 49.032 138.991 49.224 138.33 49.224ZM151.67 49.32C147.531 49.32 145.462 47.272 145.462 43.176V36.36H143.798C142.731 36.36 142.198 35.8587 142.198 34.856C142.198 33.8533 142.731 33.352 143.798 33.352H145.462V30.44C145.462 29.096 146.134 28.424 147.478 28.424C148.801 28.424 149.462 29.096 149.462 30.44V33.352H152.854C153.921 33.352 154.454 33.8533 154.454 34.856C154.454 35.8587 153.921 36.36 152.854 36.36H149.462V42.952C149.462 43.976 149.686 44.744 150.134 45.256C150.582 45.768 151.307 46.024 152.31 46.024C152.673 46.024 152.993 45.992 153.27 45.928C153.547 45.864 153.793 45.8213 154.006 45.8C154.262 45.7787 154.475 45.864 154.646 46.056C154.817 46.2267 154.902 46.5893 154.902 47.144C154.902 47.5707 154.827 47.9547 154.678 48.296C154.55 48.616 154.305 48.84 153.942 48.968C153.665 49.0533 153.302 49.128 152.854 49.192C152.406 49.2773 152.011 49.32 151.67 49.32Z" fill="white"/>
<rect x="1.5" y="1.5" width="200" height="73" rx="36.5" stroke="url(#paint0_linear_13_543)" stroke-width="3"/>
<defs>
<linearGradient id="paint0_linear_13_543" x1="0" y1="76" x2="203" y2="76" gradientUnits="userSpaceOnUse">
<stop stop-color="#FFD100"/>
<stop offset="0.46875" stop-color="#FFEE32"/>
<stop offset="1" stop-color="#D6D6D6"/>
</linearGradient>
</defs>
</svg>
