<svg width="82" height="82" viewBox="0 0 82 82" fill="none" xmlns="http://www.w3.org/2000/svg">
<path d="M40.7156 0C18.2648 0 0 18.2647 0 40.7175C0 41.6612 0.764308 42.4255 1.70806 42.4255C2.65255 42.4255 3.41612 41.6605 3.41612 40.7175C3.41612 20.1501 20.1493 3.41722 40.7164 3.41722C61.2834 3.41722 78.0166 20.1497 78.0166 40.7175C78.0166 61.283 61.2841 78.0177 40.7164 78.0177C31.9165 78.0177 23.5878 74.9819 16.9075 69.4201L25.387 68.0945C26.3193 67.9494 26.9571 67.075 26.812 66.1434C26.6668 65.2118 25.7924 64.5719 24.8601 64.7192L12.8522 66.596C12.7457 66.6125 12.6599 66.6689 12.562 66.7033C12.5241 66.7168 12.4876 66.7283 12.4504 66.7447C12.2617 66.8262 12.0986 66.9349 11.955 67.0743C11.9464 67.0822 11.9356 67.0844 11.9271 67.0929C11.9213 67.0986 11.9199 67.1065 11.9142 67.1122C11.7676 67.2631 11.6554 67.4325 11.5724 67.6263C11.5646 67.6449 11.5546 67.662 11.5467 67.6806C11.4809 67.8508 11.4502 68.0281 11.4423 68.2162C11.4402 68.2626 11.4345 68.307 11.4359 68.3534C11.438 68.4192 11.4166 68.4807 11.4273 68.5472L13.3041 80.555C13.4357 81.3987 14.1628 82 14.9907 82C15.0772 82 15.1673 81.9936 15.256 81.9793C16.1883 81.8341 16.8261 80.9597 16.6809 80.0281L15.5363 72.7061C22.6873 78.358 31.4638 81.4338 40.7161 81.4338C63.1669 81.4338 81.4317 63.1692 81.4317 40.7182C81.4317 18.2656 63.1678 0.000737314 40.7161 0.000737314L40.7156 0Z" fill="#FFD100"/>
<path d="M23.1699 40.7175C23.1699 51.2948 31.7747 59.9011 42.3536 59.9011C52.9325 59.9011 61.5372 51.2949 61.5372 40.7175C61.5372 30.1402 52.9325 21.5338 42.3536 21.5338C31.7756 21.5338 23.1699 30.1393 23.1699 40.7175ZM42.3536 24.9501C51.0469 24.9501 58.1202 32.0227 58.1202 40.7167C58.1202 49.4108 51.0469 56.4834 42.3536 56.4834C33.6603 56.4834 26.587 49.4108 26.587 40.7167C26.587 32.0227 33.6603 24.9501 42.3536 24.9501Z" fill="#FFD100"/>
<path d="M42.3534 47.4348C40.972 47.4348 39.8495 46.3116 39.8495 44.9294C39.8495 43.9857 39.0852 43.2214 38.1414 43.2214C37.1969 43.2214 36.4333 43.9864 36.4333 44.9294C36.4333 47.5962 38.2172 49.8305 40.646 50.5698V51.3126C40.646 52.2564 41.4103 53.0207 42.3541 53.0207C43.2986 53.0207 44.0622 52.2557 44.0622 51.3126V50.5698C46.491 49.8312 48.2748 47.5962 48.2748 44.9294C48.2748 41.6649 45.6187 39.0087 42.3541 39.0087C40.9728 39.0087 39.8502 37.8855 39.8502 36.5033C39.8502 35.122 40.9727 33.998 42.3541 33.998C43.7355 33.998 44.858 35.1212 44.858 36.5033C44.858 37.4471 45.6223 38.2114 46.566 38.2114C47.5105 38.2114 48.2741 37.4464 48.2741 36.5033C48.2741 33.8366 46.4903 31.6015 44.0614 30.863V30.1216C44.0614 29.1778 43.2971 28.4135 42.3534 28.4135C41.4089 28.4135 40.6453 29.1785 40.6453 30.1216V30.863C38.2165 31.6016 36.4326 33.8366 36.4326 36.5033C36.4326 39.7679 39.0888 42.4248 42.3534 42.4248C43.7347 42.4248 44.8573 43.548 44.8573 44.9287C44.858 46.3107 43.7347 47.4346 42.3534 47.4346V47.4348Z" fill="#FFD100"/>
<path d="M44.0636 18.2063V14.4841C44.0636 13.5404 43.2993 12.7761 42.3555 12.7761C41.411 12.7761 40.6475 13.5411 40.6475 14.4841V18.2063C40.6475 19.15 41.4118 19.9143 42.3555 19.9143C43.2993 19.9143 44.0636 19.1493 44.0636 18.2063Z" fill="#FFD100"/>
<path d="M40.6465 63.225V66.9479C40.6465 67.8917 41.4108 68.656 42.3545 68.656C43.299 68.656 44.0626 67.891 44.0626 66.9479V63.225C44.0626 62.2813 43.2983 61.517 42.3545 61.517C41.4108 61.517 40.6465 62.282 40.6465 63.225Z" fill="#FFD100"/>
<path d="M70.2935 40.7175C70.2935 39.7737 69.5292 39.0094 68.5855 39.0094H64.8633C63.9188 39.0094 63.1553 39.7744 63.1553 40.7175C63.1553 41.6612 63.9196 42.4255 64.8633 42.4255H68.5855C69.5292 42.4255 70.2935 41.6605 70.2935 40.7175Z" fill="#FFD100"/>
<path d="M14.4141 40.7175C14.4141 41.6612 15.1784 42.4255 16.1221 42.4255H19.8443C20.7888 42.4255 21.5523 41.6605 21.5523 40.7175C21.5523 39.7737 20.788 39.0094 19.8443 39.0094H16.1221C15.1776 39.0087 14.4141 39.7737 14.4141 40.7175Z" fill="#FFD100"/>
<path d="M59.6963 20.9609L57.0638 23.5928C56.3967 24.2591 56.3967 25.3409 57.0638 26.0086C57.3977 26.3425 57.8345 26.5091 58.2714 26.5091C58.7082 26.5091 59.1458 26.3425 59.479 26.0086L62.1115 23.3768C62.7786 22.7104 62.7786 21.6287 62.1115 20.9609C61.4452 20.2939 60.3641 20.2939 59.6964 20.9609H59.6963Z" fill="#FFD100"/>
<path d="M23.8052 60.9737C24.2421 60.9737 24.6796 60.8071 25.0128 60.4732L27.6454 57.8414C28.3124 57.175 28.3124 56.0933 27.6454 55.4255C26.9783 54.7585 25.8973 54.7585 25.2295 55.4255L22.597 58.0574C21.9299 58.7237 21.9299 59.8055 22.597 60.4732C22.9309 60.8071 23.3684 60.9737 23.8053 60.9737H23.8052Z" fill="#FFD100"/>
<path d="M59.4786 55.426C58.8116 54.7589 57.7305 54.7589 57.0628 55.426C56.3957 56.093 56.3957 57.1755 57.0628 57.8418L59.6954 60.4736C60.0292 60.8075 60.4661 60.9741 60.9029 60.9741C61.3398 60.9741 61.7774 60.8075 62.1105 60.4736C62.7776 59.8066 62.7776 58.7241 62.1105 58.0578L59.4786 55.426Z" fill="#FFD100"/>
<path d="M25.0119 20.9609C24.3448 20.2939 23.2637 20.2939 22.596 20.9609C21.9289 21.628 21.9289 22.7105 22.596 23.3768L25.2286 26.0086C25.5624 26.3425 25.9993 26.5091 26.4362 26.5091C26.873 26.5091 27.3106 26.3425 27.6438 26.0086C28.3108 25.3415 28.3108 24.2591 27.6438 23.5928L25.0119 20.9609Z" fill="#FFD100"/>
<path d="M33.7403 21.629C33.9591 21.629 34.1808 21.5868 34.3945 21.4981C35.2654 21.1371 35.6793 20.1375 35.319 19.266L33.894 15.8278C33.5337 14.9541 32.5292 14.5451 31.662 14.9033C30.7911 15.2644 30.3772 16.2639 30.7375 17.1354L32.1624 20.5737C32.4341 21.2315 33.0719 21.629 33.7404 21.629L33.7403 21.629Z" fill="#FFD100"/>
<path d="M50.3153 59.9341C49.4445 60.2944 49.0305 61.2939 49.3908 62.1654L50.8136 65.6044C51.0853 66.2622 51.7209 66.6604 52.3916 66.6604C52.6103 66.6604 52.8305 66.6182 53.0457 66.5296C53.9166 66.1692 54.3305 65.1697 53.9702 64.2982L52.5474 60.8592C52.1871 59.9877 51.1911 59.5759 50.3153 59.934L50.3153 59.9341Z" fill="#FFD100"/>
<path d="M65.9352 29.0985L62.4969 30.5235C61.6261 30.8845 61.2121 31.884 61.5725 32.7555C61.8442 33.4133 62.4819 33.8108 63.1504 33.8108C63.3692 33.8108 63.5908 33.7686 63.8046 33.68L67.2429 32.255C68.1137 31.894 68.5277 30.8945 68.1673 30.023C67.807 29.1507 66.801 28.741 65.9353 29.0985L65.9352 29.0985Z" fill="#FFD100"/>
<path d="M23.1351 48.6776C22.7747 47.806 21.7723 47.3942 20.903 47.7531L17.4647 49.1773C16.5939 49.5384 16.1799 50.5379 16.5402 51.4094C16.8119 52.0665 17.4497 52.4647 18.1182 52.4647C18.337 52.4647 18.5586 52.4225 18.7724 52.3339L22.2106 50.9097C23.0822 50.5486 23.4954 49.5491 23.1351 48.6776L23.1351 48.6776Z" fill="#FFD100"/>
<path d="M50.9694 21.629C51.6401 21.629 52.2757 21.2308 52.5474 20.573L53.9702 17.1347C54.3305 16.2632 53.9165 15.2636 53.0457 14.9034C52.1784 14.5466 51.1738 14.9556 50.8136 15.8285L49.3908 19.2668C49.0305 20.1384 49.4445 21.138 50.3153 21.4982C50.5291 21.5861 50.7507 21.629 50.9695 21.629L50.9694 21.629Z" fill="#FFD100"/>
<path d="M32.1625 60.8584L30.7375 64.2974C30.3772 65.1689 30.7911 66.1685 31.662 66.5295C31.8758 66.6181 32.0974 66.6603 32.3162 66.6603C32.9854 66.6603 33.6224 66.262 33.8941 65.605L35.3191 62.166C35.6794 61.2945 35.2654 60.2949 34.3946 59.9339C33.5288 59.5764 32.5227 59.9868 32.1625 60.8584L32.1625 60.8584Z" fill="#FFD100"/>
<path d="M66.5893 52.4645C67.2586 52.4645 67.8956 52.0663 68.1673 51.4092C68.5276 50.5377 68.1137 49.5381 67.2428 49.1771L63.8046 47.7529C62.9387 47.3926 61.9341 47.8051 61.5725 48.6774C61.2121 49.5489 61.6261 50.5485 62.4969 50.9095L65.9352 52.3337C66.149 52.4216 66.3706 52.4645 66.5894 52.4645L66.5893 52.4645Z" fill="#FFD100"/>
<path d="M16.5402 30.0247C16.1799 30.8962 16.5939 31.8958 17.4647 32.2568L20.903 33.6817C21.1168 33.7704 21.3384 33.8125 21.5572 33.8125C22.2264 33.8125 22.8634 33.4157 23.1351 32.7572C23.4955 31.8857 23.0815 30.8861 22.2107 30.5252L18.7724 29.1002C17.9044 28.742 16.9005 29.151 16.5403 30.0247L16.5402 30.0247Z" fill="#FFD100"/>
</svg>
