<svg width="82" height="71" viewBox="0 0 82 71" fill="none" xmlns="http://www.w3.org/2000/svg">
<path d="M18.1167 0C16.837 0 15.5787 0.452942 14.6901 1.34085C13.8015 2.22875 13.3492 3.48586 13.3492 4.76745V11.4417H8.58177C7.58345 11.4417 6.67496 12.3502 6.67496 13.3485V28.6047H1.72856C0.790766 28.6932 -0.0040707 29.5704 1.5687e-05 30.5122V49.582C1.5687e-05 50.5803 0.90854 51.4888 1.90683 51.4888H25.7441C32.0499 51.4888 37.1865 46.3529 37.1865 40.0471C37.1865 33.7413 32.0499 28.6047 25.7441 28.6047H10.4879V15.2562H73.4183C74.801 15.2562 76.1105 14.8944 77.2319 14.2432L77.2325 31.4657C77.2186 32.4733 78.1317 33.3997 79.1393 33.3997C80.1469 33.3997 81.0608 32.4732 81.0462 31.4657V7.6284C81.0462 7.56787 81.0475 7.51001 81.0462 7.44948V7.38962C80.9178 3.30715 77.5305 0.00041439 73.4181 0.00041439L18.1167 0ZM18.1167 3.81362H73.4191C75.5648 3.81362 77.2327 5.4817 77.2327 7.62724C77.2327 9.77293 75.5646 11.4409 73.4191 11.4409H17.1632V4.7666C17.1632 4.31965 17.2909 4.13209 17.4013 4.02168C17.5117 3.91194 17.67 3.81417 18.1163 3.81417L18.1167 3.81362ZM3.81432 32.4183H25.7446C30.0033 32.4183 33.3727 35.787 33.3727 40.0464C33.3727 44.3051 30.004 47.6745 25.7446 47.6745H3.81432V32.4183ZM26.6981 37.1858C25.1411 37.1858 23.8374 38.4887 23.8374 40.0464C23.8374 41.6034 25.141 42.9071 26.6981 42.9071C28.2551 42.9071 29.5587 41.6035 29.5587 40.0464C29.5587 38.4894 28.2551 37.1858 26.6981 37.1858ZM79.1094 37.1858C78.1111 37.2017 77.2165 38.1249 77.2326 39.1232V40.0471C77.2186 41.0547 78.1318 41.9811 79.1394 41.9811C80.147 41.9811 81.0608 41.0546 81.0462 40.0471V39.1232C81.0621 38.105 80.1277 37.1704 79.1094 37.1865V37.1858ZM67.6976 41.9539C59.8215 41.9539 53.3953 48.3801 53.3953 56.2563C53.3953 64.1324 59.8215 70.5586 67.6976 70.5586C75.5738 70.5586 82 64.1324 82 56.2563C82 48.3801 75.5738 41.9539 67.6976 41.9539ZM67.6976 45.7675C73.5126 45.7675 78.1864 50.4405 78.1864 56.2563C78.1864 62.0712 73.5134 66.745 67.6976 66.745C61.8827 66.745 57.2089 62.072 57.2089 56.2563C57.2089 50.4413 61.8819 45.7675 67.6976 45.7675ZM62.7213 50.505C61.999 50.5755 61.3405 51.0949 61.1031 51.7807C60.8663 52.4664 61.0638 53.2818 61.5886 53.7827L68.2629 60.4569C69.0337 61.2165 70.4711 61.1114 71.1235 60.2481L73.9842 56.4345C74.6546 55.6456 74.5063 54.3015 73.6795 53.6777C72.8535 53.0538 71.5199 53.2793 70.9447 54.1406L69.395 56.1964L64.2697 51.071C63.8726 50.664 63.286 50.4498 62.72 50.505L62.7213 50.505ZM8.37234 55.2725C7.43521 55.3756 6.65368 56.2668 6.67366 57.2092V66.7441C6.67366 67.7425 7.58219 68.651 8.58048 68.651H50.534C51.5417 68.6649 52.4681 67.7517 52.4681 66.7441C52.4681 65.7365 51.5416 64.8227 50.534 64.8373H10.4875V57.2092C10.5107 56.1278 9.44723 55.1541 8.37173 55.2725H8.37234Z" fill="#E3BB04"/>
</svg>
